<?xml version="1.0" encoding="utf-8"?>
<!-- Generator: Adobe Illustrator 24.0.2, SVG Export Plug-In . SVG Version: 6.00 Build 0)  -->
<svg version="1.1" xmlns="http://www.w3.org/2000/svg" xmlns:xlink="http://www.w3.org/1999/xlink" x="0px" y="0px" width="640px"
	 height="470px" viewBox="0 0 640 470" style="enable-background:new 0 0 640 470;" xml:space="preserve">
<style type="text/css">
	.st0{fill:#B84E91;}
	.st1{fill:#FFFFFF;}
	.st2{fill-rule:evenodd;clip-rule:evenodd;fill:#FFFFFF;}
	.st3{fill:#E6E7E8;}
	.st4{fill:url(#SVGID_1_);stroke:#FFFFFF;stroke-width:5;stroke-miterlimit:10;}
</style>
<g id="Layer_1">
	<rect x="0" y="-85" class="st0" width="640" height="640"/>
	<g>
		<path class="st1" d="M333.3,125.8l1.1-1.6l1.1-1.6l2.4-3.6c0.3-0.4,0.2-1-0.3-1.3c-0.4-0.3-1-0.2-1.3,0.3l-2.6,3.9l-1.1,1.6
			l-1.1,1.7c-3.5-1.4-7.4-2.1-11.5-2.1c-4.1,0-8,0.8-11.5,2.1l-1.1-1.7l-1.1-1.6l-2.6-3.9c-0.3-0.4-0.9-0.6-1.3-0.3
			c-0.4,0.3-0.6,0.9-0.3,1.3l2.4,3.6l1.1,1.6l1.1,1.6c-8.2,3.8-13.8,11.1-13.8,19.4h54.2C347.1,136.9,341.5,129.6,333.3,125.8z
			 M308.4,137.4c-1.6,0-2.9-1.3-2.9-2.9c0-1.6,1.3-2.9,2.9-2.9c1.6,0,2.9,1.3,2.9,2.9S310,137.4,308.4,137.4z M331.6,137.4
			c-1.6,0-2.9-1.3-2.9-2.9c0-1.6,1.3-2.9,2.9-2.9c1.6,0,2.9,1.3,2.9,2.9S333.2,137.4,331.6,137.4z"/>
		<path class="st1" d="M293.3,149.1h-0.4v4.8v3.9v33.8c0,3.4,2.7,6.1,6.1,6.1h4.4c-0.1,0.5-0.2,1.1-0.2,1.6v0.3v1.9v10
			c0,3.2,2.6,5.8,5.8,5.8c3.2,0,5.8-2.6,5.8-5.8v-10v-1.9v-0.3c0-0.6-0.1-1.1-0.2-1.6h10.8c-0.1,0.5-0.2,1.1-0.2,1.6v0.3v1.9v10
			c0,3.2,2.6,5.8,5.8,5.8c3.2,0,5.8-2.6,5.8-5.8v-10v-1.9v-0.3c0-0.6-0.1-1.1-0.2-1.6h4.4c3.4,0,6.1-2.7,6.1-6.1v-33.8v-3.9v-4.8
			h-0.4C346.7,149.1,293.3,149.1,293.3,149.1z"/>
		<path class="st1" d="M283.2,149.1c-3.2,0-5.8,2.6-5.8,5.8v24.8c0,3.2,2.6,5.8,5.8,5.8c3.2,0,5.8-2.6,5.8-5.8v-24.8
			C289,151.7,286.4,149.1,283.2,149.1z"/>
		<path class="st1" d="M356.8,149.1c-3.2,0-5.8,2.6-5.8,5.8v24.8c0,3.2,2.6,5.8,5.8,5.8c3.2,0,5.8-2.6,5.8-5.8v-24.8
			C362.6,151.7,360,149.1,356.8,149.1z"/>
	</g>
	<g>
		<path class="st1" d="M200.4,319.6h-7.9l-3.1-8.1h-14.3l-3,8.1h-7.7l13.9-35.8h7.6L200.4,319.6z M187.1,305.4l-4.9-13.3l-4.8,13.3
			H187.1z"/>
		<path class="st1" d="M227.7,319.6h-6.9v-13.2c0-2.8-0.1-4.6-0.4-5.4c-0.3-0.8-0.8-1.5-1.4-1.9c-0.7-0.5-1.5-0.7-2.4-0.7
			c-1.2,0-2.3,0.3-3.2,1c-0.9,0.7-1.6,1.5-1.9,2.6c-0.4,1.1-0.5,3.1-0.5,6v11.7h-6.9v-25.9h6.4v3.8c2.3-2.9,5.1-4.4,8.5-4.4
			c1.5,0,2.9,0.3,4.2,0.8c1.3,0.5,2.2,1.2,2.8,2.1c0.6,0.8,1.1,1.8,1.3,2.9c0.3,1.1,0.4,2.6,0.4,4.6V319.6z"/>
		<path class="st1" d="M258.5,319.6h-6.4v-3.8c-1.1,1.5-2.3,2.6-3.7,3.3s-2.9,1.1-4.4,1.1c-3,0-5.5-1.2-7.7-3.6
			c-2.1-2.4-3.2-5.7-3.2-10c0-4.4,1-7.7,3.1-10c2.1-2.3,4.7-3.4,7.8-3.4c2.9,0,5.4,1.2,7.5,3.6v-12.9h6.9V319.6z M240.2,306.1
			c0,2.8,0.4,4.8,1.1,6c1.1,1.8,2.7,2.7,4.6,2.7c1.6,0,2.9-0.7,4-2c1.1-1.3,1.7-3.3,1.7-6c0-3-0.5-5.1-1.6-6.4c-1.1-1.3-2.4-2-4.1-2
			c-1.6,0-3,0.6-4.1,1.9S240.2,303.5,240.2,306.1z"/>
		<path class="st1" d="M271.8,319.6h-6.9v-25.9h6.4v3.7c1.1-1.7,2.1-2.9,2.9-3.4c0.9-0.6,1.9-0.8,3-0.8c1.6,0,3.1,0.4,4.5,1.3
			l-2.1,6c-1.2-0.7-2.2-1.1-3.2-1.1c-1,0-1.8,0.3-2.4,0.8c-0.7,0.5-1.2,1.5-1.6,2.9c-0.4,1.4-0.6,4.3-0.6,8.7V319.6z"/>
		<path class="st1" d="M283.1,306.3c0-2.3,0.6-4.5,1.7-6.6c1.1-2.1,2.7-3.8,4.8-4.9c2.1-1.1,4.4-1.7,6.9-1.7c3.9,0,7.1,1.3,9.6,3.8
			c2.5,2.5,3.8,5.8,3.8,9.7c0,3.9-1.3,7.2-3.8,9.8c-2.5,2.6-5.7,3.9-9.6,3.9c-2.4,0-4.6-0.5-6.8-1.6c-2.2-1.1-3.8-2.6-4.9-4.7
			S283.1,309.2,283.1,306.3z M290.1,306.6c0,2.6,0.6,4.5,1.8,5.9s2.7,2.1,4.5,2.1c1.8,0,3.3-0.7,4.5-2.1c1.2-1.4,1.8-3.4,1.8-6
			c0-2.5-0.6-4.5-1.8-5.9c-1.2-1.4-2.7-2.1-4.5-2.1c-1.8,0-3.3,0.7-4.5,2.1S290.1,304.1,290.1,306.6z"/>
		<path class="st1" d="M315.2,290.1v-6.3h6.9v6.3H315.2z M315.2,319.6v-25.9h6.9v25.9H315.2z"/>
		<path class="st1" d="M352.9,319.6h-6.4v-3.8c-1.1,1.5-2.3,2.6-3.7,3.3s-2.9,1.1-4.4,1.1c-3,0-5.5-1.2-7.7-3.6
			c-2.1-2.4-3.2-5.7-3.2-10c0-4.4,1-7.7,3.1-10c2.1-2.3,4.7-3.4,7.8-3.4c2.9,0,5.4,1.2,7.5,3.6v-12.9h6.9V319.6z M334.6,306.1
			c0,2.8,0.4,4.8,1.1,6c1.1,1.8,2.7,2.7,4.6,2.7c1.6,0,2.9-0.7,4-2s1.7-3.3,1.7-6c0-3-0.5-5.1-1.6-6.4c-1.1-1.3-2.4-2-4.1-2
			c-1.6,0-3,0.6-4.1,1.9S334.6,303.5,334.6,306.1z"/>
		<path class="st1" d="M371.8,307.9l7-0.7c0.4,2.4,1.3,4.1,2.6,5.2c1.3,1.1,3,1.7,5.2,1.7c2.3,0,4.1-0.5,5.3-1.5
			c1.2-1,1.8-2.1,1.8-3.5c0-0.8-0.2-1.6-0.7-2.2c-0.5-0.6-1.4-1.1-2.6-1.6c-0.8-0.3-2.8-0.8-5.8-1.6c-3.9-1-6.6-2.1-8.2-3.5
			c-2.2-2-3.3-4.4-3.3-7.2c0-1.8,0.5-3.5,1.6-5.1c1-1.6,2.5-2.8,4.5-3.6c1.9-0.8,4.3-1.2,7-1.2c4.5,0,7.9,1,10.1,3
			c2.3,2,3.5,4.6,3.6,7.9l-7.2,0.3c-0.3-1.8-1-3.2-2-4c-1-0.8-2.5-1.2-4.6-1.2c-2.1,0-3.7,0.4-4.9,1.3c-0.8,0.6-1.1,1.3-1.1,2.2
			c0,0.8,0.4,1.6,1.1,2.2c0.9,0.8,3.1,1.6,6.6,2.4s6.1,1.7,7.8,2.6c1.7,0.9,3,2.1,4,3.6s1.4,3.4,1.4,5.7c0,2.1-0.6,4-1.7,5.8
			c-1.1,1.8-2.8,3.1-4.8,4s-4.7,1.3-7.8,1.3c-4.5,0-8-1-10.4-3.1C373.7,315,372.3,312,371.8,307.9z"/>
		<path class="st1" d="M406.9,283.8h13.2c3,0,5.2,0.2,6.8,0.7c2.1,0.6,3.9,1.7,5.4,3.3c1.5,1.6,2.6,3.5,3.4,5.8
			c0.8,2.3,1.2,5.1,1.2,8.5c0,2.9-0.4,5.5-1.1,7.6c-0.9,2.6-2.2,4.7-3.8,6.3c-1.3,1.2-2.9,2.2-5.1,2.9c-1.6,0.5-3.7,0.8-6.4,0.8
			h-13.6V283.8z M414.2,289.9v23.7h5.4c2,0,3.5-0.1,4.4-0.3c1.2-0.3,2.1-0.8,2.9-1.5c0.8-0.7,1.4-1.9,1.9-3.5
			c0.5-1.6,0.7-3.8,0.7-6.6c0-2.8-0.2-4.9-0.7-6.4c-0.5-1.5-1.2-2.6-2.1-3.5s-2-1.4-3.3-1.7c-1-0.2-3-0.3-5.9-0.3H414.2z"/>
		<path class="st1" d="M443.2,319.6v-35.8h7.2v15.9l14.6-15.9h9.7l-13.5,13.9l14.2,21.9h-9.4l-9.8-16.8l-5.9,6v10.8H443.2z"/>
	</g>
</g>
<g id="Guides">
</g>
</svg>
