<svg width="640" height="470" viewBox="0 0 640 470" fill="none" xmlns="http://www.w3.org/2000/svg">
<g clip-path="url(#clip0_2_134)">
<path d="M640 0H0V470H640V0Z" fill="#B84E91"/>
<path d="M61.1549 347C60.2269 345.144 59.2029 343.272 58.0829 341.384C56.9949 339.464 55.7309 337.512 54.2909 335.528C53.8429 336.104 53.2669 336.904 52.5629 337.928C51.8909 338.952 51.2029 340.04 50.4989 341.192C49.8269 342.344 49.1869 343.448 48.5789 344.504C47.9709 345.56 47.5229 346.392 47.2349 347H38.6909C40.0989 344.408 41.7309 341.688 43.5869 338.84C45.4749 335.992 47.5709 332.968 49.8749 329.768L39.1709 313.736H48.2429L54.7229 324.104L61.0589 313.736H69.6029L59.0429 329.864C61.7309 333.352 63.9869 336.584 65.8109 339.56C67.6349 342.504 69.0749 344.984 70.1309 347H61.1549ZM83.2736 313.736C83.8496 314.792 84.5056 316.104 85.2416 317.672C86.0096 319.208 86.7936 320.888 87.5936 322.712C88.4256 324.504 89.2416 326.344 90.0416 328.232C90.8416 330.12 91.5936 331.896 92.2976 333.56C93.0016 331.896 93.7536 330.12 94.5536 328.232C95.3536 326.344 96.1536 324.504 96.9536 322.712C97.7856 320.888 98.5696 319.208 99.3056 317.672C100.074 316.104 100.746 314.792 101.322 313.736H108.138C108.458 315.944 108.746 318.424 109.002 321.176C109.29 323.896 109.53 326.744 109.722 329.72C109.946 332.664 110.138 335.624 110.298 338.6C110.49 341.576 110.65 344.376 110.778 347H103.482C103.386 343.768 103.258 340.248 103.098 336.44C102.938 332.632 102.698 328.792 102.378 324.92C101.802 326.264 101.162 327.752 100.458 329.384C99.7536 331.016 99.0496 332.648 98.3456 334.28C97.6736 335.912 97.0176 337.48 96.3776 338.984C95.7376 340.456 95.1936 341.72 94.7456 342.776H89.5136C89.0656 341.72 88.5216 340.456 87.8816 338.984C87.2416 337.48 86.5696 335.912 85.8656 334.28C85.1936 332.648 84.5056 331.016 83.8016 329.384C83.0976 327.752 82.4576 326.264 81.8816 324.92C81.5616 328.792 81.3216 332.632 81.1616 336.44C81.0016 340.248 80.8736 343.768 80.7776 347H73.4816C73.6096 344.376 73.7536 341.576 73.9136 338.6C74.1056 335.624 74.2976 332.664 74.4896 329.72C74.7136 326.744 74.9536 323.896 75.2096 321.176C75.4976 318.424 75.8016 315.944 76.1216 313.736H83.2736ZM139.744 340.568V347H117.52V313.736H125.008V340.568H139.744ZM153.938 338.168C153.938 336.952 154.114 335.848 154.466 334.856C154.818 333.832 155.282 332.92 155.858 332.12C156.466 331.288 157.154 330.568 157.922 329.96C158.722 329.32 159.554 328.76 160.418 328.28C159.65 327.352 158.962 326.36 158.354 325.304C157.746 324.216 157.442 323.032 157.442 321.752C157.442 318.936 158.29 316.776 159.986 315.272C161.682 313.736 164.018 312.968 166.994 312.968C168.498 312.968 169.81 313.176 170.93 313.592C172.05 313.976 172.978 314.52 173.714 315.224C174.482 315.896 175.058 316.696 175.442 317.624C175.826 318.52 176.018 319.496 176.018 320.552C176.018 322.504 175.458 324.248 174.338 325.784C173.25 327.288 171.858 328.552 170.162 329.576L175.538 334.952C175.826 334.312 176.098 333.512 176.354 332.552C176.642 331.56 176.818 330.696 176.882 329.96L182.834 330.728C182.77 331.336 182.658 332.008 182.498 332.744C182.338 333.448 182.13 334.168 181.874 334.904C181.65 335.64 181.378 336.376 181.058 337.112C180.77 337.848 180.45 338.52 180.098 339.128C181.122 340.28 182.114 341.544 183.074 342.92C184.066 344.264 184.914 345.624 185.618 347H178.274C178.018 346.584 177.666 346.072 177.218 345.464C176.77 344.824 176.322 344.28 175.874 343.832C174.594 344.856 173.106 345.72 171.41 346.424C169.714 347.096 167.81 347.432 165.698 347.432C163.458 347.432 161.586 347.16 160.082 346.616C158.578 346.04 157.362 345.32 156.434 344.456C155.538 343.56 154.898 342.568 154.514 341.48C154.13 340.36 153.938 339.256 153.938 338.168ZM160.61 337.448C160.61 337.928 160.706 338.424 160.898 338.936C161.09 339.448 161.394 339.928 161.81 340.376C162.258 340.792 162.818 341.144 163.49 341.432C164.162 341.688 164.978 341.816 165.938 341.816C167.282 341.816 168.45 341.64 169.442 341.288C170.466 340.936 171.314 340.472 171.986 339.896L164.306 332.168C163.858 332.392 163.41 332.664 162.962 332.984C162.546 333.304 162.162 333.688 161.81 334.136C161.458 334.552 161.17 335.032 160.946 335.576C160.722 336.12 160.61 336.744 160.61 337.448ZM169.922 320.888C169.922 320.152 169.682 319.496 169.202 318.92C168.722 318.344 167.922 318.056 166.802 318.056C165.778 318.056 164.978 318.376 164.402 319.016C163.858 319.624 163.586 320.424 163.586 321.416C163.586 322.248 163.826 323.064 164.306 323.864C164.786 324.632 165.41 325.368 166.178 326.072C167.202 325.496 168.082 324.808 168.818 324.008C169.554 323.208 169.922 322.168 169.922 320.888ZM219.665 335.816C219.665 337.448 219.473 338.984 219.089 340.424C218.737 341.864 218.097 343.128 217.169 344.216C216.273 345.272 215.041 346.12 213.473 346.76C211.937 347.368 209.985 347.672 207.617 347.672C205.441 347.672 203.569 347.416 202.001 346.904C200.433 346.36 199.137 345.736 198.113 345.032L200.609 339.224C201.537 339.768 202.529 340.248 203.585 340.664C204.641 341.08 205.793 341.288 207.041 341.288C208.865 341.288 210.177 340.84 210.977 339.944C211.777 339.048 212.177 337.544 212.177 335.432V313.736H219.665V335.816ZM225.199 334.568C225.199 332.328 225.535 330.376 226.207 328.712C226.911 327.016 227.823 325.608 228.943 324.488C230.063 323.368 231.343 322.52 232.783 321.944C234.255 321.368 235.759 321.08 237.295 321.08C240.879 321.08 243.711 322.184 245.791 324.392C247.871 326.568 248.911 329.784 248.911 334.04C248.911 334.456 248.895 334.92 248.863 335.432C248.831 335.912 248.799 336.344 248.767 336.728H232.543C232.703 338.2 233.391 339.368 234.607 340.232C235.823 341.096 237.455 341.528 239.503 341.528C240.815 341.528 242.095 341.416 243.343 341.192C244.623 340.936 245.663 340.632 246.463 340.28L247.423 346.088C247.039 346.28 246.527 346.472 245.887 346.664C245.247 346.856 244.527 347.016 243.727 347.144C242.959 347.304 242.127 347.432 241.231 347.528C240.335 347.624 239.439 347.672 238.543 347.672C236.271 347.672 234.287 347.336 232.591 346.664C230.927 345.992 229.535 345.08 228.415 343.928C227.327 342.744 226.511 341.352 225.967 339.752C225.455 338.152 225.199 336.424 225.199 334.568ZM241.999 331.832C241.967 331.224 241.855 330.632 241.663 330.056C241.503 329.48 241.231 328.968 240.847 328.52C240.495 328.072 240.031 327.704 239.455 327.416C238.911 327.128 238.223 326.984 237.391 326.984C236.591 326.984 235.903 327.128 235.327 327.416C234.751 327.672 234.271 328.024 233.887 328.472C233.503 328.92 233.199 329.448 232.975 330.056C232.783 330.632 232.639 331.224 232.543 331.832H241.999ZM254.19 315.464L261.342 314.312V321.752H269.934V327.704H261.342V336.584C261.342 338.088 261.598 339.288 262.11 340.184C262.654 341.08 263.726 341.528 265.326 341.528C266.094 341.528 266.878 341.464 267.678 341.336C268.51 341.176 269.262 340.968 269.934 340.712L270.942 346.28C270.078 346.632 269.118 346.936 268.062 347.192C267.006 347.448 265.71 347.576 264.174 347.576C262.222 347.576 260.606 347.32 259.326 346.808C258.046 346.264 257.022 345.528 256.254 344.6C255.486 343.64 254.942 342.488 254.622 341.144C254.334 339.8 254.19 338.312 254.19 336.68V315.464ZM291.934 334.568C291.934 332.36 291.438 330.6 290.446 329.288C289.454 327.944 287.982 327.272 286.03 327.272C285.39 327.272 284.798 327.304 284.254 327.368C283.71 327.4 283.262 327.448 282.91 327.512V340.424C283.358 340.712 283.934 340.952 284.638 341.144C285.374 341.336 286.11 341.432 286.846 341.432C290.238 341.432 291.934 339.144 291.934 334.568ZM299.23 334.376C299.23 336.328 298.99 338.104 298.51 339.704C298.03 341.304 297.326 342.68 296.398 343.832C295.47 344.984 294.318 345.88 292.942 346.52C291.566 347.16 289.982 347.48 288.19 347.48C287.198 347.48 286.27 347.384 285.406 347.192C284.542 347 283.71 346.728 282.91 346.376V355.88H275.758V322.616C276.398 322.424 277.134 322.248 277.966 322.088C278.798 321.896 279.662 321.736 280.558 321.608C281.486 321.48 282.414 321.384 283.342 321.32C284.302 321.224 285.214 321.176 286.078 321.176C288.158 321.176 290.014 321.496 291.646 322.136C293.278 322.744 294.654 323.624 295.774 324.776C296.894 325.896 297.742 327.272 298.318 328.904C298.926 330.536 299.23 332.36 299.23 334.376ZM314.375 342.008C315.079 342.008 315.751 341.992 316.391 341.96C317.031 341.928 317.543 341.88 317.927 341.816V336.392C317.639 336.328 317.207 336.264 316.631 336.2C316.055 336.136 315.527 336.104 315.047 336.104C314.375 336.104 313.735 336.152 313.127 336.248C312.551 336.312 312.039 336.456 311.591 336.68C311.143 336.904 310.791 337.208 310.535 337.592C310.279 337.976 310.151 338.456 310.151 339.032C310.151 340.152 310.519 340.936 311.255 341.384C312.023 341.8 313.063 342.008 314.375 342.008ZM313.799 321.08C315.911 321.08 317.671 321.32 319.079 321.8C320.487 322.28 321.607 322.968 322.439 323.864C323.303 324.76 323.911 325.848 324.263 327.128C324.615 328.408 324.791 329.832 324.791 331.4V346.28C323.767 346.504 322.343 346.76 320.519 347.048C318.695 347.368 316.487 347.528 313.895 347.528C312.263 347.528 310.775 347.384 309.431 347.096C308.119 346.808 306.983 346.344 306.023 345.704C305.063 345.032 304.327 344.168 303.815 343.112C303.303 342.056 303.047 340.76 303.047 339.224C303.047 337.752 303.335 336.504 303.911 335.48C304.519 334.456 305.319 333.64 306.311 333.032C307.303 332.424 308.439 331.992 309.719 331.736C310.999 331.448 312.327 331.304 313.703 331.304C314.631 331.304 315.447 331.352 316.151 331.448C316.887 331.512 317.479 331.608 317.927 331.736V331.064C317.927 329.848 317.559 328.872 316.823 328.136C316.087 327.4 314.807 327.032 312.983 327.032C311.767 327.032 310.567 327.128 309.383 327.32C308.199 327.48 307.175 327.72 306.311 328.04L305.399 322.28C305.815 322.152 306.327 322.024 306.935 321.896C307.575 321.736 308.263 321.608 308.999 321.512C309.735 321.384 310.503 321.288 311.303 321.224C312.135 321.128 312.967 321.08 313.799 321.08ZM330.058 334.376C330.058 332.552 330.346 330.84 330.922 329.24C331.53 327.608 332.394 326.2 333.514 325.016C334.634 323.8 335.994 322.84 337.594 322.136C339.194 321.432 341.018 321.08 343.066 321.08C344.41 321.08 345.642 321.208 346.762 321.464C347.882 321.688 348.97 322.024 350.026 322.472L348.538 328.184C347.866 327.928 347.13 327.704 346.33 327.512C345.53 327.32 344.634 327.224 343.642 327.224C341.53 327.224 339.946 327.88 338.89 329.192C337.866 330.504 337.354 332.232 337.354 334.376C337.354 336.648 337.834 338.408 338.794 339.656C339.786 340.904 341.498 341.528 343.93 341.528C344.794 341.528 345.722 341.448 346.714 341.288C347.706 341.128 348.618 340.872 349.45 340.52L350.458 346.376C349.626 346.728 348.586 347.032 347.338 347.288C346.09 347.544 344.714 347.672 343.21 347.672C340.906 347.672 338.922 347.336 337.258 346.664C335.594 345.96 334.218 345.016 333.13 343.832C332.074 342.648 331.29 341.256 330.778 339.656C330.298 338.024 330.058 336.264 330.058 334.376ZM362.41 330.872C363.114 330.104 363.834 329.304 364.57 328.472C365.338 327.64 366.074 326.824 366.778 326.024C367.482 325.192 368.138 324.408 368.746 323.672C369.386 322.936 369.93 322.296 370.378 321.752H378.874C377.178 323.704 375.514 325.576 373.882 327.368C372.282 329.128 370.522 330.952 368.602 332.84C369.562 333.704 370.554 334.744 371.578 335.96C372.602 337.144 373.594 338.376 374.554 339.656C375.514 340.936 376.394 342.216 377.194 343.496C377.994 344.776 378.666 345.944 379.21 347H371.002C370.49 346.168 369.898 345.256 369.226 344.264C368.586 343.24 367.898 342.232 367.162 341.24C366.426 340.216 365.642 339.24 364.81 338.312C364.01 337.384 363.21 336.6 362.41 335.96V347H355.258V310.904L362.41 309.752V330.872ZM410.235 347.672C404.827 347.672 400.699 346.168 397.851 343.16C395.035 340.152 393.627 335.88 393.627 330.344C393.627 327.592 394.059 325.144 394.923 323C395.787 320.824 396.971 319 398.475 317.528C399.979 316.024 401.771 314.888 403.851 314.12C405.931 313.352 408.187 312.968 410.619 312.968C412.027 312.968 413.307 313.08 414.459 313.304C415.611 313.496 416.619 313.736 417.483 314.024C418.347 314.28 419.067 314.552 419.643 314.84C420.219 315.128 420.635 315.352 420.891 315.512L418.731 321.56C417.707 321.016 416.507 320.552 415.131 320.168C413.787 319.784 412.251 319.592 410.523 319.592C409.371 319.592 408.235 319.784 407.115 320.168C406.027 320.552 405.051 321.176 404.187 322.04C403.355 322.872 402.683 323.96 402.171 325.304C401.659 326.648 401.403 328.28 401.403 330.2C401.403 331.736 401.563 333.176 401.883 334.52C402.235 335.832 402.779 336.968 403.515 337.928C404.283 338.888 405.275 339.656 406.491 340.232C407.707 340.776 409.179 341.048 410.907 341.048C411.995 341.048 412.971 340.984 413.835 340.856C414.699 340.728 415.467 340.584 416.139 340.424C416.811 340.232 417.403 340.024 417.915 339.8C418.427 339.576 418.891 339.368 419.307 339.176L421.371 345.176C420.315 345.816 418.827 346.392 416.907 346.904C414.987 347.416 412.763 347.672 410.235 347.672ZM448.765 334.328C448.765 336.312 448.477 338.136 447.901 339.8C447.325 341.432 446.493 342.84 445.405 344.024C444.317 345.176 443.005 346.072 441.469 346.712C439.965 347.352 438.269 347.672 436.381 347.672C434.525 347.672 432.829 347.352 431.293 346.712C429.789 346.072 428.493 345.176 427.405 344.024C426.317 342.84 425.469 341.432 424.861 339.8C424.253 338.136 423.949 336.312 423.949 334.328C423.949 332.344 424.253 330.536 424.861 328.904C425.501 327.272 426.365 325.88 427.453 324.728C428.573 323.576 429.885 322.68 431.389 322.04C432.925 321.4 434.589 321.08 436.381 321.08C438.205 321.08 439.869 321.4 441.373 322.04C442.909 322.68 444.221 323.576 445.309 324.728C446.397 325.88 447.245 327.272 447.853 328.904C448.461 330.536 448.765 332.344 448.765 334.328ZM441.469 334.328C441.469 332.12 441.021 330.392 440.125 329.144C439.261 327.864 438.013 327.224 436.381 327.224C434.749 327.224 433.485 327.864 432.589 329.144C431.693 330.392 431.245 332.12 431.245 334.328C431.245 336.536 431.693 338.296 432.589 339.608C433.485 340.888 434.749 341.528 436.381 341.528C438.013 341.528 439.261 340.888 440.125 339.608C441.021 338.296 441.469 336.536 441.469 334.328ZM468.177 333.608C468.177 331.304 467.873 329.672 467.265 328.712C466.689 327.752 465.681 327.272 464.241 327.272C463.793 327.272 463.329 327.304 462.849 327.368C462.369 327.4 461.905 327.448 461.457 327.512V347H454.305V322.616C454.913 322.456 455.617 322.296 456.417 322.136C457.249 321.944 458.113 321.784 459.009 321.656C459.937 321.496 460.881 321.384 461.841 321.32C462.801 321.224 463.745 321.176 464.673 321.176C466.497 321.176 467.969 321.416 469.089 321.896C470.241 322.344 471.185 322.888 471.921 323.528C472.945 322.792 474.113 322.216 475.425 321.8C476.769 321.384 478.001 321.176 479.121 321.176C481.137 321.176 482.785 321.464 484.065 322.04C485.377 322.584 486.417 323.368 487.185 324.392C487.953 325.416 488.481 326.632 488.769 328.04C489.057 329.448 489.201 331.016 489.201 332.744V347H482.049V333.608C482.049 331.304 481.745 329.672 481.137 328.712C480.561 327.752 479.553 327.272 478.113 327.272C477.729 327.272 477.185 327.368 476.481 327.56C475.809 327.752 475.249 327.992 474.801 328.28C475.025 329.016 475.169 329.8 475.233 330.632C475.297 331.432 475.329 332.296 475.329 333.224V347H468.177V333.608ZM511.872 334.568C511.872 332.36 511.376 330.6 510.384 329.288C509.392 327.944 507.92 327.272 505.968 327.272C505.328 327.272 504.736 327.304 504.192 327.368C503.648 327.4 503.2 327.448 502.848 327.512V340.424C503.296 340.712 503.872 340.952 504.576 341.144C505.312 341.336 506.048 341.432 506.784 341.432C510.176 341.432 511.872 339.144 511.872 334.568ZM519.168 334.376C519.168 336.328 518.928 338.104 518.448 339.704C517.968 341.304 517.264 342.68 516.336 343.832C515.408 344.984 514.256 345.88 512.88 346.52C511.504 347.16 509.92 347.48 508.128 347.48C507.136 347.48 506.208 347.384 505.344 347.192C504.48 347 503.648 346.728 502.848 346.376V355.88H495.696V322.616C496.336 322.424 497.072 322.248 497.904 322.088C498.736 321.896 499.6 321.736 500.496 321.608C501.424 321.48 502.352 321.384 503.28 321.32C504.24 321.224 505.152 321.176 506.016 321.176C508.096 321.176 509.952 321.496 511.584 322.136C513.216 322.744 514.592 323.624 515.712 324.776C516.832 325.896 517.68 327.272 518.256 328.904C518.864 330.536 519.168 332.36 519.168 334.376ZM548.281 334.328C548.281 336.312 547.993 338.136 547.417 339.8C546.841 341.432 546.009 342.84 544.921 344.024C543.833 345.176 542.521 346.072 540.985 346.712C539.481 347.352 537.785 347.672 535.897 347.672C534.041 347.672 532.345 347.352 530.809 346.712C529.305 346.072 528.009 345.176 526.921 344.024C525.833 342.84 524.985 341.432 524.377 339.8C523.769 338.136 523.465 336.312 523.465 334.328C523.465 332.344 523.769 330.536 524.377 328.904C525.017 327.272 525.881 325.88 526.969 324.728C528.089 323.576 529.401 322.68 530.905 322.04C532.441 321.4 534.105 321.08 535.897 321.08C537.721 321.08 539.385 321.4 540.889 322.04C542.425 322.68 543.737 323.576 544.825 324.728C545.913 325.88 546.761 327.272 547.369 328.904C547.977 330.536 548.281 332.344 548.281 334.328ZM540.985 334.328C540.985 332.12 540.537 330.392 539.641 329.144C538.777 327.864 537.529 327.224 535.897 327.224C534.265 327.224 533.001 327.864 532.105 329.144C531.209 330.392 530.761 332.12 530.761 334.328C530.761 336.536 531.209 338.296 532.105 339.608C533.001 340.888 534.265 341.528 535.897 341.528C537.529 341.528 538.777 340.888 539.641 339.608C540.537 338.296 540.985 336.536 540.985 334.328ZM561.069 341.864C562.381 341.864 563.309 341.736 563.853 341.48C564.397 341.224 564.669 340.728 564.669 339.992C564.669 339.416 564.317 338.92 563.613 338.504C562.909 338.056 561.837 337.56 560.397 337.016C559.277 336.6 558.253 336.168 557.325 335.72C556.429 335.272 555.661 334.744 555.021 334.136C554.381 333.496 553.885 332.744 553.533 331.88C553.181 331.016 553.005 329.976 553.005 328.76C553.005 326.392 553.885 324.52 555.645 323.144C557.405 321.768 559.821 321.08 562.893 321.08C564.429 321.08 565.901 321.224 567.309 321.512C568.717 321.768 569.837 322.056 570.669 322.376L569.421 327.944C568.589 327.656 567.677 327.4 566.685 327.176C565.725 326.952 564.637 326.84 563.421 326.84C561.181 326.84 560.061 327.464 560.061 328.712C560.061 329 560.109 329.256 560.205 329.48C560.301 329.704 560.493 329.928 560.781 330.152C561.069 330.344 561.453 330.568 561.933 330.824C562.445 331.048 563.085 331.304 563.853 331.592C565.421 332.168 566.717 332.744 567.741 333.32C568.765 333.864 569.565 334.472 570.141 335.144C570.749 335.784 571.165 336.504 571.389 337.304C571.645 338.104 571.773 339.032 571.773 340.088C571.773 342.584 570.829 344.472 568.941 345.752C567.085 347.032 564.445 347.672 561.021 347.672C558.781 347.672 556.909 347.48 555.405 347.096C553.933 346.712 552.909 346.392 552.333 346.136L553.533 340.328C554.749 340.808 555.997 341.192 557.277 341.48C558.557 341.736 559.821 341.864 561.069 341.864ZM575.918 334.568C575.918 332.328 576.254 330.376 576.926 328.712C577.63 327.016 578.542 325.608 579.662 324.488C580.782 323.368 582.062 322.52 583.502 321.944C584.974 321.368 586.478 321.08 588.014 321.08C591.598 321.08 594.43 322.184 596.51 324.392C598.59 326.568 599.63 329.784 599.63 334.04C599.63 334.456 599.614 334.92 599.582 335.432C599.55 335.912 599.518 336.344 599.486 336.728H583.262C583.422 338.2 584.11 339.368 585.326 340.232C586.542 341.096 588.174 341.528 590.222 341.528C591.534 341.528 592.814 341.416 594.062 341.192C595.342 340.936 596.382 340.632 597.182 340.28L598.142 346.088C597.758 346.28 597.246 346.472 596.606 346.664C595.966 346.856 595.246 347.016 594.446 347.144C593.678 347.304 592.846 347.432 591.95 347.528C591.054 347.624 590.158 347.672 589.262 347.672C586.99 347.672 585.006 347.336 583.31 346.664C581.646 345.992 580.254 345.08 579.134 343.928C578.046 342.744 577.23 341.352 576.686 339.752C576.174 338.152 575.918 336.424 575.918 334.568ZM592.718 331.832C592.686 331.224 592.574 330.632 592.382 330.056C592.222 329.48 591.95 328.968 591.566 328.52C591.214 328.072 590.75 327.704 590.174 327.416C589.63 327.128 588.942 326.984 588.11 326.984C587.31 326.984 586.622 327.128 586.046 327.416C585.47 327.672 584.99 328.024 584.606 328.472C584.222 328.92 583.918 329.448 583.694 330.056C583.502 330.632 583.358 331.224 583.262 331.832H592.718Z" fill="white"/>
<g clip-path="url(#clip1_2_134)">
<path d="M320.563 140.012C318.493 139.909 316.439 140.407 314.646 141.446L280.625 161.083C278.965 162.047 277.594 163.439 276.654 165.112L293.142 174.154C293.769 173.147 294.631 172.306 295.654 171.704L316.283 159.787C317.398 159.144 318.663 158.806 319.95 158.806C321.237 158.806 322.502 159.144 323.617 159.787L344.246 171.704C345.098 172.189 345.843 172.841 346.438 173.621L362.775 164.183C361.879 162.916 360.719 161.859 359.375 161.083L325.379 141.446C323.913 140.602 322.268 140.117 320.579 140.029L320.563 140.012ZM319.958 160.479C318.964 160.479 317.987 160.74 317.125 161.237L296.5 173.137C295.735 173.584 295.087 174.205 294.608 174.95L302.608 179.346C302.959 178.882 303.398 178.492 303.9 178.2L317.817 170.167C318.483 169.784 319.238 169.582 320.006 169.582C320.775 169.582 321.53 169.784 322.196 170.167L336.096 178.2C336.465 178.427 336.799 178.706 337.088 179.029L337.163 178.987L337.154 178.979L344.975 174.479C344.543 173.941 344.017 173.486 343.421 173.137L322.796 161.221C321.933 160.729 320.956 160.473 319.963 160.479H319.958ZM363.425 165.267L347.092 174.683C347.638 175.728 347.924 176.888 347.925 178.067V201.879C347.925 204.492 346.542 206.921 344.258 208.246L323.633 220.162C322.81 220.629 321.905 220.932 320.967 221.054V239.904C322.514 239.793 324.02 239.348 325.379 238.6L359.388 218.962C361.019 218.021 362.374 216.667 363.317 215.036C364.26 213.405 364.757 211.555 364.758 209.671V170.404C364.75 168.615 364.294 166.856 363.433 165.287L363.425 165.267ZM276.188 166.258C275.602 167.557 275.28 168.959 275.242 170.383V209.675C275.242 213.5 277.288 217.037 280.629 218.962L314.638 238.6C316.195 239.486 317.95 239.968 319.742 240V221.121C318.521 221.088 317.328 220.752 316.271 220.142L295.65 208.25C294.537 207.602 293.613 206.673 292.972 205.555C292.33 204.438 291.994 203.172 291.996 201.883V178.067C291.992 177.101 292.178 176.144 292.542 175.25L276.188 166.258ZM345.646 175.521L337.771 180.071C338.087 180.662 338.263 181.318 338.288 181.987V198.054C338.288 199.629 337.454 201.054 336.096 201.833L322.196 209.875C321.811 210.085 321.397 210.235 320.967 210.321V219.362C321.6 219.25 322.233 219.037 322.8 218.708L343.421 206.796C344.284 206.298 345 205.581 345.497 204.718C345.995 203.855 346.256 202.875 346.254 201.879V178.067C346.249 177.188 346.039 176.322 345.642 175.537L345.646 175.521ZM294.033 176.062C293.791 176.703 293.667 177.382 293.667 178.067V201.879C293.665 202.875 293.926 203.855 294.424 204.718C294.921 205.581 295.637 206.298 296.5 206.796L317.125 218.712C317.933 219.179 318.842 219.404 319.738 219.45V210.392C319.068 210.369 318.412 210.194 317.821 209.879L303.917 201.846C303.248 201.465 302.691 200.915 302.302 200.251C301.913 199.587 301.706 198.832 301.7 198.062V182.008C301.702 181.465 301.811 180.926 302.021 180.425L301.879 180.371L294.033 176.062Z" fill="white"/>
</g>
</g>
<defs>
<clipPath id="clip0_2_134">
<rect width="640" height="470" fill="white"/>
</clipPath>
<clipPath id="clip1_2_134">
<rect width="100" height="100" fill="white" transform="translate(270 140)"/>
</clipPath>
</defs>
</svg>
