<?xml version="1.0" encoding="utf-8"?>
<!-- Generator: Adobe Illustrator 24.0.2, SVG Export Plug-In . SVG Version: 6.00 Build 0)  -->
<svg version="1.1" xmlns="http://www.w3.org/2000/svg" xmlns:xlink="http://www.w3.org/1999/xlink" x="0px" y="0px" width="640px"
	 height="470px" viewBox="0 0 640 470" style="enable-background:new 0 0 640 470;" xml:space="preserve">
<style type="text/css">
	.st0{fill:#B84E91;}
	.st1{fill:#FFFFFF;}
	.st2{fill-rule:evenodd;clip-rule:evenodd;fill:#FFFFFF;}
	.st3{fill:#E6E7E8;}
	.st4{fill:url(#SVGID_1_);stroke:#FFFFFF;stroke-width:5;stroke-miterlimit:10;}
</style>
<g id="Layer_1">
	<rect y="-85" class="st0" width="640" height="640"/>
	<g>
		<g>
			<path class="st1" d="M193.8,101c-1.8,0-3.5,0.1-4.4,0.1v17.7h0c1,0.1,1.9,0.1,3.7,0.1c5.3,0,10.3-1.9,10.3-9.2
				C203.4,103.9,199.8,101,193.8,101z"/>
			<path class="st1" d="M160,71.9v100h100v-100H160z M192.9,126.1c-1.7,0-2.3-0.1-3.5-0.1v17.6c0,0.4-0.1,0.5-0.5,0.5h-7
				c-0.4,0-0.5-0.1-0.5-0.5l0-49.1c0-0.3,0.6-0.5,1-0.5c2.9-0.1,7.2-0.2,11.7-0.2c12.6,0,17.5,7,17.5,15.8
				C211.5,121.1,203.2,126.1,192.9,126.1z M225.6,144.9c-4,0-7.4-0.8-9.3-2c-0.3-0.1-0.4-0.4-0.4-0.7v-6.7c0-0.5,0.2-0.6,0.5-0.4
				c2.9,1.9,6.1,2.7,9.1,2.7c3.6,0,5.1-1.5,5.1-3.6c0-1.6-1-3.1-5.6-5.5c-6.5-3.1-9.1-6.3-9.1-11.5c0-5.9,4.6-10.8,12.5-10.8
				c3.9,0,6.6,0.6,8.1,1.3c0.4,0.2,0.5,0.6,0.5,0.9v6.3c0,0.4-0.2,0.6-0.7,0.5c-2-1.3-5-2.1-7.9-2.1c-3.6,0-4.8,1.8-4.8,3.3
				c0,1.6,0.8,2.8,5.6,5.3c7.1,3.5,9.4,6.8,9.4,11.7C238.7,141,233.1,144.9,225.6,144.9z"/>
		</g>
		<g id="_x31_1_x2C__Illustrator_x2C__Adobe_x2C__Ai">
			<g>
				<path class="st1" d="M270,71.9v100h100v-100H270z M329.9,143.2h-7.3c-0.3,0-0.5-0.2-0.6-0.5l-4.1-13.3h-14.8l-3.9,13.2
					c-0.1,0.5-0.3,0.7-0.6,0.7h-6.6c-0.5,0-0.6-0.2-0.5-0.8c3.5-11.5,9.4-30.7,13.5-43.7c0.2-0.8,0.4-1.5,0.5-4.1
					c0-0.3,0.2-0.4,0.4-0.4h8.9c0.3,0,0.4,0,0.5,0.3c4.8,15.4,10,32.4,15,48C330.4,143,330.3,143.2,329.9,143.2z M345,142.5
					c0,0.4-0.1,0.6-0.5,0.6h-6.6c-0.4,0-0.5-0.2-0.5-0.7v-35.3c0-0.5,0-0.7,0.4-0.7h6.7c0.4,0,0.5,0.2,0.5,0.7V142.5z M341.1,101.6
					c-2.5,0-4.3-1.8-4.3-4.7c0-2.8,1.8-4.7,4.3-4.7c2.6,0,4.2,1.9,4.2,4.7C345.4,99.8,343.7,101.6,341.1,101.6z"/>
				<path class="st1" d="M310.4,101.6c-1,4.9-3.6,13.5-5.6,20.5h11.4C314.9,117,311.7,106.8,310.4,101.6L310.4,101.6z"/>
			</g>
		</g>
		<g id="_x34__x2C__InDesign_x2C__Adobe">
			<g>
				<path class="st1" d="M433,128.2c0,11.2,7,12.2,9.3,12.2c2.3,0,3.3-0.4,3.3-0.4v-23.3c0,0-0.7-0.5-2.6-0.5
					C441.1,116.1,433,117,433,128.2z"/>
				<path class="st1" d="M380,71.9v100h100v-100H380z M414.4,146.7H406V96.5h8.4V146.7z M454,144.4c0,0-4,2.9-12.5,2.9
					c-11.5,0-17-8.1-17-18.8c0-13.8,10.2-19.3,18.6-19.3c1,0,2.5,0,2.5,0V96.5h8.4V144.4z"/>
			</g>
		</g>
		<g id="_x31_6_x2C__AfterEffects_x2C__After_Effects_x2C__Adobe_1_">
			<g>
				<path class="st1" d="M215,181.9v100h100v-100H215z M267.8,253.4h-7.3c-0.3,0-0.5-0.1-0.6-0.5l-4.1-13.6H241l-4,13.5
					c-0.1,0.5-0.3,0.6-0.6,0.6h-6.6c-0.5,0-0.6-0.2-0.5-0.8c3.5-11.8,9.4-31.6,13.5-45c0.2-0.8,0.4-1.5,0.5-4.2
					c0-0.3,0.2-0.4,0.4-0.4h8.9c0.3,0,0.4,0,0.5,0.4c4.8,15.9,10,33.3,15,49.3C268.4,253.1,268.2,253.4,267.8,253.4z M298.6,235.9
					c-0.8,0.4-3.3,0.5-6.9,0.5h-13.5c0.1,5.9,3.2,9.9,9.9,9.9c2.4,0,5.4-0.5,8.3-1.9c0.2-0.1,0.4,0,0.4,0.4v6.1
					c0,0.5-0.2,0.7-0.4,0.8c-2.6,1.5-5.7,2.1-9.9,2.1c-12,0-16.4-9.4-16.4-19c0-10.9,5.6-19.5,15.5-19.5c9.7,0,13.6,8.5,13.6,15.6
					C299.2,234.2,298.9,235.7,298.6,235.9z"/>
				<path class="st1" d="M285.2,221.8c-4.3,0-6.5,3.8-7,8.7h10.6c2.4,0,2.8-0.3,2.8-0.6c0-0.2,0-0.5,0-0.8
					C291.6,226.8,290.3,221.8,285.2,221.8z"/>
				<path class="st1" d="M248.3,210.6c-1,5.1-3.6,13.9-5.6,21.1h11.4C252.8,226.4,249.7,216.1,248.3,210.6L248.3,210.6z"/>
			</g>
		</g>
		<path class="st1" d="M325,181.9v100h100v-100H325z M376.6,228.3c-3.6,5.2-10.8,7.8-20.8,7.4v19h-8.5v-52.6l12.9-0.2
			c10.7-0.4,18.9,5.3,19,16.6C379,222.4,378.4,225.8,376.6,228.3z M404.4,222.6c0,0.3-0.2,0.4-0.4,0.4c-3.2-0.3-6.4,0.2-9.2,0.9
			v30.7l-8.5,0l0-31c0-1.8-0.1-3.2-0.2-4.6c0-0.2,0-0.5,0.4-0.7c4.3-1.5,10.7-3.4,17.4-3.3c0.3,0,0.4,0.1,0.4,0.4V222.6z
			 M370.4,218.7c0,2.6-0.4,4.5-1.4,5.8c-2.6,3.5-7.7,3.4-9.3,3.5h-3.9v-18.5l4.6,0C367.8,209.6,370.3,213.3,370.4,218.7z"/>
	</g>
	<g>
		<path class="st1" d="M210.1,384.9h-7.9l-3.1-8.1h-14.3l-3,8.1h-7.7l13.9-35.8h7.6L210.1,384.9z M196.8,370.7l-4.9-13.3l-4.8,13.3
			H196.8z"/>
		<path class="st1" d="M237.6,384.9h-6.4V381c-1.1,1.5-2.3,2.6-3.7,3.3c-1.4,0.7-2.9,1.1-4.4,1.1c-3,0-5.5-1.2-7.7-3.6
			c-2.1-2.4-3.2-5.7-3.2-10c0-4.4,1-7.7,3.1-10c2.1-2.3,4.7-3.4,7.8-3.4c2.9,0,5.4,1.2,7.5,3.6v-12.9h6.9V384.9z M219.3,371.3
			c0,2.8,0.4,4.8,1.1,6c1.1,1.8,2.7,2.7,4.6,2.7c1.6,0,2.9-0.7,4-2c1.1-1.3,1.7-3.3,1.7-6c0-3-0.5-5.1-1.6-6.4s-2.4-2-4.1-2
			c-1.6,0-3,0.6-4.1,1.9C219.9,366.8,219.3,368.8,219.3,371.3z"/>
		<path class="st1" d="M242.8,371.5c0-2.3,0.6-4.5,1.7-6.6s2.7-3.8,4.8-4.9c2.1-1.1,4.4-1.7,6.9-1.7c3.9,0,7.1,1.3,9.6,3.8
			c2.5,2.5,3.8,5.8,3.8,9.7c0,3.9-1.3,7.2-3.8,9.8c-2.5,2.6-5.7,3.9-9.6,3.9c-2.4,0-4.6-0.5-6.8-1.6c-2.2-1.1-3.8-2.6-4.9-4.7
			C243.4,377,242.8,374.5,242.8,371.5z M249.8,371.9c0,2.6,0.6,4.5,1.8,5.9s2.7,2.1,4.5,2.1c1.8,0,3.3-0.7,4.5-2.1
			c1.2-1.4,1.8-3.4,1.8-6c0-2.5-0.6-4.5-1.8-5.9c-1.2-1.4-2.7-2.1-4.5-2.1c-1.8,0-3.3,0.7-4.5,2.1S249.8,369.3,249.8,371.9z"/>
		<path class="st1" d="M274.7,384.9v-35.8h6.9V362c2.1-2.4,4.6-3.6,7.5-3.6c3.2,0,5.8,1.1,7.8,3.4c2.1,2.3,3.1,5.6,3.1,9.9
			c0,4.4-1.1,7.8-3.2,10.2s-4.7,3.6-7.7,3.6c-1.5,0-2.9-0.4-4.4-1.1s-2.7-1.8-3.7-3.3v3.8H274.7z M281.5,371.3c0,2.7,0.4,4.7,1.3,6
			c1.2,1.8,2.8,2.7,4.7,2.7c1.5,0,2.8-0.6,3.9-1.9c1.1-1.3,1.6-3.3,1.6-6.1c0-3-0.5-5.1-1.6-6.4s-2.5-2-4.1-2c-1.6,0-3,0.6-4.1,1.9
			C282,366.8,281.5,368.7,281.5,371.3z"/>
		<path class="st1" d="M320.5,376.6l6.8,1.1c-0.9,2.5-2.3,4.4-4.2,5.7s-4.3,2-7.1,2c-4.5,0-7.8-1.5-10-4.4c-1.7-2.4-2.6-5.3-2.6-8.9
			c0-4.3,1.1-7.7,3.4-10.1s5.1-3.7,8.5-3.7c3.9,0,6.9,1.3,9.1,3.8c2.2,2.5,3.3,6.5,3.2,11.7h-17.2c0,2,0.6,3.6,1.7,4.7
			c1.1,1.1,2.4,1.7,4,1.7c1.1,0,2-0.3,2.7-0.9S320.1,377.9,320.5,376.6z M320.9,369.7c0-2-0.6-3.5-1.5-4.5c-1-1-2.2-1.5-3.6-1.5
			c-1.5,0-2.7,0.5-3.7,1.6c-1,1.1-1.5,2.6-1.4,4.4H320.9z"/>
		<path class="st1" d="M345.4,373.2l7-0.7c0.4,2.4,1.3,4.1,2.6,5.2c1.3,1.1,3,1.7,5.2,1.7c2.3,0,4.1-0.5,5.3-1.5s1.8-2.1,1.8-3.5
			c0-0.8-0.2-1.6-0.7-2.2s-1.4-1.1-2.6-1.6c-0.8-0.3-2.8-0.8-5.8-1.6c-3.9-1-6.6-2.1-8.2-3.5c-2.2-2-3.3-4.4-3.3-7.2
			c0-1.8,0.5-3.5,1.5-5.1c1-1.6,2.5-2.8,4.5-3.6s4.3-1.2,7-1.2c4.5,0,7.9,1,10.1,3c2.3,2,3.5,4.6,3.6,7.9l-7.2,0.3
			c-0.3-1.8-1-3.2-2-4c-1-0.8-2.5-1.2-4.6-1.2c-2.1,0-3.7,0.4-4.9,1.3c-0.8,0.6-1.1,1.3-1.1,2.2c0,0.8,0.4,1.6,1.1,2.2
			c0.9,0.8,3.1,1.6,6.6,2.4s6.1,1.7,7.8,2.6c1.7,0.9,3,2.1,4,3.6c1,1.5,1.4,3.4,1.4,5.7c0,2.1-0.6,4-1.7,5.8c-1.1,1.8-2.8,3.1-4.8,4
			c-2.1,0.9-4.7,1.3-7.8,1.3c-4.5,0-8-1-10.4-3.1C347.3,380.3,345.9,377.2,345.4,373.2z"/>
		<path class="st1" d="M397.6,384.9V381c-0.9,1.4-2.2,2.5-3.7,3.3s-3.2,1.2-4.9,1.2c-1.7,0-3.3-0.4-4.7-1.1c-1.4-0.8-2.4-1.8-3-3.2
			c-0.6-1.4-0.9-3.3-0.9-5.7v-16.4h6.9v11.9c0,3.6,0.1,5.9,0.4,6.7c0.3,0.8,0.7,1.5,1.4,2c0.7,0.5,1.5,0.7,2.5,0.7
			c1.2,0,2.2-0.3,3.2-1c0.9-0.6,1.6-1.4,1.9-2.4c0.3-1,0.5-3.3,0.5-7v-10.9h6.9v25.9H397.6z"/>
		<path class="st1" d="M411.1,355.4v-6.3h6.9v6.3H411.1z M411.1,384.9v-25.9h6.9v25.9H411.1z"/>
		<path class="st1" d="M436.9,358.9v5.5h-4.7v10.4c0,2.1,0,3.3,0.1,3.7s0.3,0.6,0.6,0.9s0.7,0.3,1.2,0.3c0.6,0,1.6-0.2,2.8-0.7
			l0.6,5.3c-1.6,0.7-3.4,1-5.4,1c-1.2,0-2.4-0.2-3.3-0.6c-1-0.4-1.7-1-2.2-1.6c-0.5-0.7-0.8-1.5-1-2.7c-0.1-0.8-0.2-2.4-0.2-4.8
			v-11.3h-3.1v-5.5h3.1v-5.2l6.9-4v9.2H436.9z"/>
		<path class="st1" d="M456.6,376.6l6.8,1.1c-0.9,2.5-2.3,4.4-4.2,5.7s-4.3,2-7.1,2c-4.5,0-7.8-1.5-10-4.4c-1.7-2.4-2.6-5.3-2.6-8.9
			c0-4.3,1.1-7.7,3.4-10.1s5.1-3.7,8.5-3.7c3.9,0,6.9,1.3,9.1,3.8c2.2,2.5,3.3,6.5,3.2,11.7h-17.2c0,2,0.6,3.6,1.7,4.7
			c1.1,1.1,2.4,1.7,4,1.7c1.1,0,2-0.3,2.7-0.9S456.3,377.9,456.6,376.6z M457,369.7c0-2-0.6-3.5-1.5-4.5c-1-1-2.2-1.5-3.6-1.5
			c-1.5,0-2.7,0.5-3.7,1.6c-1,1.1-1.5,2.6-1.4,4.4H457z"/>
	</g>
</g>
<g id="Guides">
</g>
</svg>
