<svg width="640" height="470" viewBox="0 0 640 470" fill="none" xmlns="http://www.w3.org/2000/svg">
<path d="M640 0H0V470H640V0Z" fill="#B84E91"/>
<path d="M172.4 200.328L182.3 136.928C182.5 135.728 183.6 134.828 184.9 135.028C185.6 135.128 186.2 135.528 186.6 136.228L197.2 156.128L172.4 200.328ZM242.4 215.728L233 157.428C232.8 156.228 231.6 155.328 230.4 155.528C229.9 155.628 229.5 155.828 229.2 156.128L170 215.728L202.7 234.228C204.8 235.428 207.3 235.428 209.3 234.228C209.4 234.228 242.4 215.728 242.4 215.728ZM215.8 164.828L208.2 150.328C207.6 149.228 206.3 148.828 205.2 149.328C204.8 149.528 204.5 149.828 204.2 150.328L170.9 210.028L215.8 164.828Z" fill="white"/>
<path d="M445.6 176.1C445.1 153.3 426.5 135 403.5 135C387.6 135 373.8 143.8 366.6 156.8C363.4 154.9 359.6 153.9 355.6 153.9C344 153.9 334.4 162.9 333.6 174.3C322.1 179 314 190.3 314 203.5C314 220.9 328.1 235 345.5 235H440.3C456.7 235 470 221.7 470 205.3C470.1 190.7 459.5 178.6 445.6 176.1Z" fill="white"/>
<path d="M154 347.248V313.984H176.272V320.272H161.488V327.232H174.64V333.52H161.488V347.248H154Z" fill="white"/>
<path d="M188.235 347.248H181.083V322H188.235V347.248ZM188.907 314.704C188.907 316.016 188.475 317.056 187.611 317.824C186.779 318.56 185.786 318.928 184.634 318.928C183.482 318.928 182.475 318.56 181.611 317.824C180.779 317.056 180.362 316.016 180.362 314.704C180.362 313.392 180.779 312.368 181.611 311.632C182.475 310.864 183.482 310.48 184.634 310.48C185.786 310.48 186.779 310.864 187.611 311.632C188.475 312.368 188.907 313.392 188.907 314.704Z" fill="white"/>
<path d="M210.174 328.336C209.533 328.176 208.781 328.016 207.917 327.856C207.054 327.664 206.125 327.568 205.133 327.568C204.685 327.568 204.141 327.616 203.501 327.712C202.893 327.776 202.43 327.856 202.11 327.952V347.248H194.958V323.344C196.238 322.896 197.742 322.48 199.47 322.096C201.23 321.68 203.182 321.472 205.326 321.472C205.71 321.472 206.174 321.504 206.718 321.568C207.262 321.6 207.805 321.664 208.349 321.76C208.893 321.824 209.438 321.92 209.982 322.048C210.526 322.144 210.99 322.272 211.374 322.432L210.174 328.336Z" fill="white"/>
<path d="M213.539 334.816C213.539 332.576 213.875 330.624 214.547 328.96C215.251 327.264 216.163 325.856 217.283 324.736C218.403 323.616 219.683 322.768 221.123 322.192C222.595 321.616 224.099 321.328 225.635 321.328C229.219 321.328 232.051 322.432 234.131 324.64C236.211 326.816 237.251 330.032 237.251 334.288C237.251 334.704 237.235 335.168 237.203 335.68C237.171 336.16 237.139 336.592 237.107 336.976H220.883C221.043 338.448 221.731 339.616 222.947 340.48C224.163 341.344 225.795 341.776 227.843 341.776C229.155 341.776 230.435 341.664 231.683 341.44C232.963 341.184 234.003 340.88 234.803 340.528L235.763 346.336C235.379 346.528 234.867 346.72 234.227 346.912C233.587 347.104 232.867 347.264 232.067 347.392C231.299 347.552 230.467 347.68 229.571 347.776C228.675 347.872 227.779 347.92 226.883 347.92C224.611 347.92 222.627 347.584 220.931 346.912C219.267 346.24 217.875 345.328 216.755 344.176C215.667 342.992 214.851 341.6 214.307 340C213.795 338.4 213.539 336.672 213.539 334.816ZM230.339 332.08C230.307 331.472 230.195 330.88 230.003 330.304C229.843 329.728 229.571 329.216 229.187 328.768C228.835 328.32 228.371 327.952 227.795 327.664C227.251 327.376 226.563 327.232 225.731 327.232C224.931 327.232 224.243 327.376 223.667 327.664C223.091 327.92 222.611 328.272 222.227 328.72C221.843 329.168 221.539 329.696 221.315 330.304C221.123 330.88 220.979 331.472 220.883 332.08H230.339Z" fill="white"/>
<path d="M258.946 334.432C258.946 329.824 257.25 327.52 253.858 327.52C253.122 327.52 252.386 327.616 251.65 327.808C250.946 328 250.37 328.24 249.922 328.528V341.536C250.274 341.6 250.722 341.664 251.266 341.728C251.81 341.76 252.402 341.776 253.042 341.776C254.994 341.776 256.466 341.104 257.458 339.76C258.45 338.416 258.946 336.64 258.946 334.432ZM266.242 334.624C266.242 336.64 265.938 338.464 265.33 340.096C264.754 341.728 263.906 343.12 262.786 344.272C261.666 345.424 260.29 346.32 258.658 346.96C257.026 347.568 255.17 347.872 253.09 347.872C252.226 347.872 251.314 347.824 250.354 347.728C249.426 347.664 248.498 347.568 247.57 347.44C246.674 347.312 245.81 347.168 244.978 347.008C244.146 346.816 243.41 346.624 242.77 346.432V311.152L249.922 310V322.576C250.722 322.224 251.554 321.952 252.418 321.76C253.282 321.568 254.21 321.472 255.202 321.472C256.994 321.472 258.578 321.792 259.954 322.432C261.33 323.04 262.482 323.92 263.41 325.072C264.338 326.224 265.042 327.616 265.522 329.248C266.002 330.848 266.242 332.64 266.242 334.624Z" fill="white"/>
<path d="M281.387 342.256C282.091 342.256 282.763 342.24 283.403 342.208C284.043 342.176 284.555 342.128 284.939 342.064V336.64C284.651 336.576 284.219 336.512 283.643 336.448C283.067 336.384 282.539 336.352 282.059 336.352C281.387 336.352 280.747 336.4 280.139 336.496C279.563 336.56 279.051 336.704 278.603 336.928C278.155 337.152 277.803 337.456 277.547 337.84C277.291 338.224 277.163 338.704 277.163 339.28C277.163 340.4 277.531 341.184 278.267 341.632C279.035 342.048 280.075 342.256 281.387 342.256ZM280.811 321.328C282.923 321.328 284.683 321.568 286.091 322.048C287.499 322.528 288.619 323.216 289.451 324.112C290.315 325.008 290.923 326.096 291.275 327.376C291.627 328.656 291.803 330.08 291.803 331.648V346.528C290.779 346.752 289.355 347.008 287.531 347.296C285.707 347.616 283.499 347.776 280.907 347.776C279.275 347.776 277.787 347.632 276.443 347.344C275.131 347.056 273.995 346.592 273.035 345.952C272.075 345.28 271.339 344.416 270.827 343.36C270.315 342.304 270.059 341.008 270.059 339.472C270.059 338 270.347 336.752 270.923 335.728C271.531 334.704 272.331 333.888 273.323 333.28C274.315 332.672 275.451 332.24 276.731 331.984C278.011 331.696 279.339 331.552 280.715 331.552C281.643 331.552 282.459 331.6 283.163 331.696C283.899 331.76 284.491 331.856 284.939 331.984V331.312C284.939 330.096 284.571 329.12 283.835 328.384C283.099 327.648 281.819 327.28 279.995 327.28C278.779 327.28 277.579 327.376 276.395 327.568C275.211 327.728 274.187 327.968 273.323 328.288L272.411 322.528C272.827 322.4 273.339 322.272 273.947 322.144C274.587 321.984 275.275 321.856 276.011 321.76C276.747 321.632 277.515 321.536 278.315 321.472C279.147 321.376 279.979 321.328 280.811 321.328Z" fill="white"/>
<path d="M305.518 342.112C306.83 342.112 307.758 341.984 308.302 341.728C308.846 341.472 309.118 340.976 309.118 340.24C309.118 339.664 308.766 339.168 308.062 338.752C307.358 338.304 306.286 337.808 304.846 337.264C303.726 336.848 302.702 336.416 301.774 335.968C300.878 335.52 300.11 334.992 299.47 334.384C298.83 333.744 298.334 332.992 297.982 332.128C297.63 331.264 297.454 330.224 297.454 329.008C297.454 326.64 298.334 324.768 300.094 323.392C301.854 322.016 304.27 321.328 307.342 321.328C308.878 321.328 310.35 321.472 311.758 321.76C313.166 322.016 314.286 322.304 315.118 322.624L313.87 328.192C313.038 327.904 312.126 327.648 311.134 327.424C310.174 327.2 309.086 327.088 307.87 327.088C305.63 327.088 304.51 327.712 304.51 328.96C304.51 329.248 304.558 329.504 304.654 329.728C304.75 329.952 304.942 330.176 305.23 330.4C305.518 330.592 305.902 330.816 306.382 331.072C306.894 331.296 307.534 331.552 308.302 331.84C309.87 332.416 311.166 332.992 312.19 333.568C313.214 334.112 314.014 334.72 314.59 335.392C315.198 336.032 315.614 336.752 315.838 337.552C316.094 338.352 316.222 339.28 316.222 340.336C316.222 342.832 315.278 344.72 313.39 346C311.534 347.28 308.894 347.92 305.47 347.92C303.23 347.92 301.358 347.728 299.854 347.344C298.382 346.96 297.358 346.64 296.782 346.384L297.982 340.576C299.198 341.056 300.446 341.44 301.726 341.728C303.006 341.984 304.27 342.112 305.518 342.112Z" fill="white"/>
<path d="M320.367 334.816C320.367 332.576 320.703 330.624 321.375 328.96C322.079 327.264 322.991 325.856 324.111 324.736C325.231 323.616 326.511 322.768 327.951 322.192C329.423 321.616 330.927 321.328 332.463 321.328C336.047 321.328 338.879 322.432 340.959 324.64C343.039 326.816 344.079 330.032 344.079 334.288C344.079 334.704 344.063 335.168 344.031 335.68C343.999 336.16 343.967 336.592 343.935 336.976H327.711C327.871 338.448 328.559 339.616 329.775 340.48C330.991 341.344 332.623 341.776 334.671 341.776C335.983 341.776 337.263 341.664 338.511 341.44C339.791 341.184 340.831 340.88 341.631 340.528L342.591 346.336C342.207 346.528 341.695 346.72 341.055 346.912C340.415 347.104 339.695 347.264 338.895 347.392C338.127 347.552 337.295 347.68 336.399 347.776C335.503 347.872 334.607 347.92 333.711 347.92C331.439 347.92 329.455 347.584 327.759 346.912C326.095 346.24 324.703 345.328 323.583 344.176C322.495 342.992 321.679 341.6 321.135 340C320.623 338.4 320.367 336.672 320.367 334.816ZM337.167 332.08C337.135 331.472 337.023 330.88 336.831 330.304C336.671 329.728 336.399 329.216 336.015 328.768C335.663 328.32 335.199 327.952 334.623 327.664C334.079 327.376 333.391 327.232 332.559 327.232C331.759 327.232 331.071 327.376 330.495 327.664C329.919 327.92 329.439 328.272 329.055 328.72C328.671 329.168 328.367 329.696 328.143 330.304C327.951 330.88 327.807 331.472 327.711 332.08H337.167Z" fill="white"/>
<path d="M356.366 339.952C356.43 340.72 356.462 341.264 356.462 341.584C356.494 341.904 356.51 342.176 356.51 342.4C356.51 343.36 356.414 344.384 356.222 345.472C356.062 346.528 355.822 347.6 355.502 348.688C355.182 349.776 354.782 350.864 354.302 351.952C353.822 353.04 353.278 354.08 352.67 355.072L347.054 353.68C347.79 351.568 348.302 349.584 348.59 347.728C348.878 345.872 349.022 344.336 349.022 343.12C349.022 342.928 349.006 342.688 348.974 342.4C348.974 342.08 348.958 341.76 348.926 341.44C348.926 341.12 348.91 340.816 348.878 340.528C348.878 340.24 348.878 340.048 348.878 339.952H356.366Z" fill="white"/>
<path d="M383.166 313.6C388.158 313.6 391.982 314.496 394.638 316.288C397.294 318.048 398.622 320.8 398.622 324.544C398.622 326.88 398.078 328.784 396.99 330.256C395.934 331.696 394.398 332.832 392.382 333.664C393.054 334.496 393.758 335.456 394.494 336.544C395.23 337.6 395.95 338.72 396.654 339.904C397.39 341.056 398.094 342.272 398.766 343.552C399.438 344.8 400.062 346.032 400.638 347.248H392.238C391.63 346.16 391.006 345.056 390.366 343.936C389.758 342.816 389.118 341.728 388.446 340.672C387.806 339.616 387.166 338.624 386.526 337.696C385.886 336.736 385.246 335.872 384.606 335.104H380.91V347.248H373.422V314.464C375.054 314.144 376.734 313.92 378.462 313.792C380.222 313.664 381.79 313.6 383.166 313.6ZM383.598 319.984C383.054 319.984 382.558 320 382.11 320.032C381.694 320.064 381.294 320.096 380.91 320.128V329.152H383.022C385.838 329.152 387.854 328.8 389.07 328.096C390.286 327.392 390.894 326.192 390.894 324.496C390.894 322.864 390.27 321.712 389.022 321.04C387.806 320.336 385.998 319.984 383.598 319.984Z" fill="white"/>
<path d="M405.438 347.248V313.984H427.902V320.272H412.926V326.8H426.221V332.944H412.926V340.96H429.005V347.248H405.438Z" fill="white"/>
<path d="M443.619 341.536C444.675 341.536 445.539 341.456 446.211 341.296C446.915 341.104 447.475 340.864 447.891 340.576C448.307 340.256 448.595 339.888 448.755 339.472C448.915 339.056 448.995 338.592 448.995 338.08C448.995 336.992 448.483 336.096 447.459 335.392C446.435 334.656 444.675 333.872 442.179 333.04C441.091 332.656 440.003 332.224 438.915 331.744C437.827 331.232 436.851 330.608 435.987 329.872C435.123 329.104 434.419 328.192 433.875 327.136C433.331 326.048 433.059 324.736 433.059 323.2C433.059 321.664 433.347 320.288 433.923 319.072C434.499 317.824 435.315 316.768 436.371 315.904C437.427 315.04 438.707 314.384 440.211 313.936C441.715 313.456 443.411 313.216 445.299 313.216C447.539 313.216 449.475 313.456 451.107 313.936C452.739 314.416 454.083 314.944 455.139 315.52L452.979 321.424C452.051 320.944 451.011 320.528 449.859 320.176C448.739 319.792 447.379 319.6 445.779 319.6C443.987 319.6 442.691 319.856 441.891 320.368C441.123 320.848 440.739 321.6 440.739 322.624C440.739 323.232 440.883 323.744 441.171 324.16C441.459 324.576 441.859 324.96 442.371 325.312C442.915 325.632 443.523 325.936 444.195 326.224C444.899 326.48 445.667 326.752 446.499 327.04C448.227 327.68 449.731 328.32 451.011 328.96C452.291 329.568 453.347 330.288 454.179 331.12C455.043 331.952 455.683 332.928 456.099 334.048C456.515 335.168 456.723 336.528 456.723 338.128C456.723 341.232 455.635 343.648 453.459 345.376C451.283 347.072 448.003 347.92 443.619 347.92C442.147 347.92 440.819 347.824 439.635 347.632C438.451 347.472 437.395 347.264 436.467 347.008C435.571 346.752 434.787 346.48 434.115 346.192C433.475 345.904 432.931 345.632 432.483 345.376L434.595 339.424C435.587 339.968 436.803 340.464 438.243 340.912C439.715 341.328 441.507 341.536 443.619 341.536Z" fill="white"/>
<path d="M486.219 313.984V320.368H476.187V347.248H468.699V320.368H458.667V313.984H486.219Z" fill="white"/>
<path d="M191.832 397.256C192.536 397.256 193.208 397.24 193.848 397.208C194.488 397.176 195 397.128 195.384 397.064V391.64C195.096 391.576 194.664 391.512 194.088 391.448C193.512 391.384 192.984 391.352 192.504 391.352C191.832 391.352 191.192 391.4 190.584 391.496C190.008 391.56 189.496 391.704 189.048 391.928C188.6 392.152 188.248 392.456 187.992 392.84C187.736 393.224 187.608 393.704 187.608 394.28C187.608 395.4 187.976 396.184 188.712 396.632C189.48 397.048 190.52 397.256 191.832 397.256ZM191.256 376.328C193.368 376.328 195.128 376.568 196.536 377.048C197.944 377.528 199.064 378.216 199.896 379.112C200.76 380.008 201.368 381.096 201.72 382.376C202.072 383.656 202.248 385.08 202.248 386.648V401.528C201.224 401.752 199.8 402.008 197.976 402.296C196.152 402.616 193.944 402.776 191.352 402.776C189.72 402.776 188.232 402.632 186.888 402.344C185.576 402.056 184.44 401.592 183.48 400.952C182.52 400.28 181.784 399.416 181.272 398.36C180.76 397.304 180.504 396.008 180.504 394.472C180.504 393 180.792 391.752 181.368 390.728C181.976 389.704 182.776 388.888 183.768 388.28C184.76 387.672 185.896 387.24 187.176 386.984C188.456 386.696 189.784 386.552 191.16 386.552C192.088 386.552 192.904 386.6 193.608 386.696C194.344 386.76 194.936 386.856 195.384 386.984V386.312C195.384 385.096 195.016 384.12 194.28 383.384C193.544 382.648 192.264 382.28 190.44 382.28C189.224 382.28 188.024 382.376 186.84 382.568C185.656 382.728 184.632 382.968 183.768 383.288L182.856 377.528C183.272 377.4 183.784 377.272 184.392 377.144C185.032 376.984 185.72 376.856 186.456 376.76C187.192 376.632 187.96 376.536 188.76 376.472C189.592 376.376 190.424 376.328 191.256 376.328Z" fill="white"/>
<path d="M208.715 377.864C209.931 377.512 211.499 377.192 213.419 376.904C215.339 376.584 217.355 376.424 219.467 376.424C221.611 376.424 223.387 376.712 224.795 377.288C226.235 377.832 227.371 378.616 228.203 379.64C229.035 380.664 229.627 381.88 229.979 383.288C230.331 384.696 230.507 386.264 230.507 387.992V402.248H223.355V388.856C223.355 386.552 223.051 384.92 222.443 383.96C221.835 383 220.699 382.52 219.035 382.52C218.523 382.52 217.979 382.552 217.403 382.616C216.827 382.648 216.315 382.696 215.867 382.76V402.248H208.715V377.864Z" fill="white"/>
<path d="M243.077 389.432C243.077 391.64 243.573 393.416 244.565 394.76C245.557 396.104 247.029 396.776 248.981 396.776C249.621 396.776 250.213 396.76 250.757 396.728C251.301 396.664 251.749 396.6 252.101 396.536V383.528C251.653 383.24 251.061 383 250.325 382.808C249.621 382.616 248.901 382.52 248.165 382.52C244.773 382.52 243.077 384.824 243.077 389.432ZM259.253 401.432C258.613 401.624 257.877 401.816 257.045 402.008C256.213 402.168 255.333 402.312 254.405 402.44C253.509 402.568 252.581 402.664 251.621 402.728C250.693 402.824 249.797 402.872 248.933 402.872C246.853 402.872 244.997 402.568 243.365 401.96C241.733 401.352 240.357 400.488 239.237 399.368C238.117 398.216 237.253 396.84 236.645 395.24C236.069 393.608 235.781 391.784 235.781 389.768C235.781 387.72 236.037 385.88 236.549 384.248C237.061 382.584 237.797 381.176 238.757 380.024C239.717 378.872 240.885 377.992 242.261 377.384C243.669 376.776 245.269 376.472 247.061 376.472C248.053 376.472 248.933 376.568 249.701 376.76C250.501 376.952 251.301 377.224 252.101 377.576V366.152L259.253 365V401.432Z" fill="white"/>
<path d="M287.705 368.6C292.697 368.6 296.521 369.496 299.177 371.288C301.833 373.048 303.161 375.8 303.161 379.544C303.161 381.88 302.617 383.784 301.529 385.256C300.473 386.696 298.937 387.832 296.921 388.664C297.593 389.496 298.297 390.456 299.033 391.544C299.769 392.6 300.489 393.72 301.193 394.904C301.929 396.056 302.633 397.272 303.305 398.552C303.977 399.8 304.601 401.032 305.177 402.248H296.777C296.169 401.16 295.545 400.056 294.905 398.936C294.297 397.816 293.657 396.728 292.985 395.672C292.345 394.616 291.705 393.624 291.065 392.696C290.425 391.736 289.785 390.872 289.145 390.104H285.449V402.248H277.961V369.464C279.593 369.144 281.273 368.92 283.001 368.792C284.761 368.664 286.329 368.6 287.705 368.6ZM288.137 374.984C287.593 374.984 287.097 375 286.649 375.032C286.233 375.064 285.833 375.096 285.449 375.128V384.152H287.561C290.377 384.152 292.393 383.8 293.609 383.096C294.825 382.392 295.433 381.192 295.433 379.496C295.433 377.864 294.809 376.712 293.561 376.04C292.345 375.336 290.537 374.984 288.137 374.984Z" fill="white"/>
<path d="M307.078 389.816C307.078 387.576 307.414 385.624 308.086 383.96C308.79 382.264 309.702 380.856 310.822 379.736C311.942 378.616 313.222 377.768 314.662 377.192C316.134 376.616 317.638 376.328 319.174 376.328C322.758 376.328 325.59 377.432 327.67 379.64C329.75 381.816 330.79 385.032 330.79 389.288C330.79 389.704 330.774 390.168 330.742 390.68C330.71 391.16 330.678 391.592 330.646 391.976H314.422C314.582 393.448 315.27 394.616 316.486 395.48C317.702 396.344 319.334 396.776 321.382 396.776C322.694 396.776 323.974 396.664 325.222 396.44C326.502 396.184 327.542 395.88 328.342 395.528L329.302 401.336C328.918 401.528 328.406 401.72 327.766 401.912C327.126 402.104 326.406 402.264 325.606 402.392C324.838 402.552 324.006 402.68 323.11 402.776C322.214 402.872 321.318 402.92 320.422 402.92C318.15 402.92 316.166 402.584 314.47 401.912C312.806 401.24 311.414 400.328 310.294 399.176C309.206 397.992 308.39 396.6 307.846 395C307.334 393.4 307.078 391.672 307.078 389.816ZM323.878 387.08C323.846 386.472 323.734 385.88 323.542 385.304C323.382 384.728 323.11 384.216 322.726 383.768C322.374 383.32 321.91 382.952 321.334 382.664C320.79 382.376 320.102 382.232 319.27 382.232C318.47 382.232 317.782 382.376 317.206 382.664C316.63 382.92 316.15 383.272 315.766 383.72C315.382 384.168 315.078 384.696 314.854 385.304C314.662 385.88 314.518 386.472 314.422 387.08H323.878Z" fill="white"/>
<path d="M336.069 370.712L343.221 369.56V377H351.813V382.952H343.221V391.832C343.221 393.336 343.477 394.536 343.989 395.432C344.533 396.328 345.605 396.776 347.205 396.776C347.973 396.776 348.757 396.712 349.557 396.584C350.389 396.424 351.141 396.216 351.813 395.96L352.821 401.528C351.957 401.88 350.997 402.184 349.941 402.44C348.885 402.696 347.589 402.824 346.053 402.824C344.101 402.824 342.485 402.568 341.205 402.056C339.925 401.512 338.901 400.776 338.133 399.848C337.365 398.888 336.821 397.736 336.501 396.392C336.213 395.048 336.069 393.56 336.069 391.928V370.712Z" fill="white"/>
<path d="M372.853 383.336C372.213 383.176 371.461 383.016 370.597 382.856C369.733 382.664 368.805 382.568 367.813 382.568C367.365 382.568 366.821 382.616 366.181 382.712C365.573 382.776 365.109 382.856 364.789 382.952V402.248H357.637V378.344C358.917 377.896 360.421 377.48 362.149 377.096C363.909 376.68 365.861 376.472 368.005 376.472C368.389 376.472 368.853 376.504 369.397 376.568C369.941 376.6 370.485 376.664 371.029 376.76C371.573 376.824 372.117 376.92 372.661 377.048C373.205 377.144 373.669 377.272 374.053 377.432L372.853 383.336Z" fill="white"/>
<path d="M401.034 389.576C401.034 391.56 400.746 393.384 400.17 395.048C399.594 396.68 398.762 398.088 397.674 399.272C396.586 400.424 395.274 401.32 393.738 401.96C392.234 402.6 390.538 402.92 388.65 402.92C386.794 402.92 385.098 402.6 383.562 401.96C382.058 401.32 380.762 400.424 379.674 399.272C378.586 398.088 377.738 396.68 377.13 395.048C376.522 393.384 376.218 391.56 376.218 389.576C376.218 387.592 376.522 385.784 377.13 384.152C377.77 382.52 378.634 381.128 379.722 379.976C380.842 378.824 382.154 377.928 383.658 377.288C385.194 376.648 386.858 376.328 388.65 376.328C390.474 376.328 392.138 376.648 393.642 377.288C395.178 377.928 396.49 378.824 397.578 379.976C398.666 381.128 399.514 382.52 400.122 384.152C400.73 385.784 401.034 387.592 401.034 389.576ZM393.738 389.576C393.738 387.368 393.29 385.64 392.394 384.392C391.53 383.112 390.282 382.472 388.65 382.472C387.018 382.472 385.754 383.112 384.858 384.392C383.962 385.64 383.514 387.368 383.514 389.576C383.514 391.784 383.962 393.544 384.858 394.856C385.754 396.136 387.018 396.776 388.65 396.776C390.282 396.776 391.53 396.136 392.394 394.856C393.29 393.544 393.738 391.784 393.738 389.576Z" fill="white"/>
<path d="M417.519 365C418.863 365 419.967 365.112 420.831 365.336C421.727 365.56 422.479 365.8 423.087 366.056L421.839 371.672C421.327 371.448 420.751 371.288 420.111 371.192C419.503 371.096 418.879 371.048 418.239 371.048C417.375 371.048 416.639 371.176 416.031 371.432C415.455 371.656 414.991 371.976 414.639 372.392C414.319 372.808 414.079 373.304 413.919 373.88C413.791 374.456 413.727 375.08 413.727 375.752V377H422.559V382.952H413.727V402.248H406.575V375.656C406.575 372.392 407.487 369.8 409.311 367.88C411.167 365.96 413.903 365 417.519 365ZM433.839 402.248H426.687V377H433.839V402.248ZM434.511 369.704C434.511 371.016 434.079 372.056 433.215 372.824C432.383 373.56 431.391 373.928 430.239 373.928C429.087 373.928 428.079 373.56 427.215 372.824C426.383 372.056 425.967 371.016 425.967 369.704C425.967 368.392 426.383 367.368 427.215 366.632C428.079 365.864 429.087 365.48 430.239 365.48C431.391 365.48 432.383 365.864 433.215 366.632C434.079 367.368 434.511 368.392 434.511 369.704Z" fill="white"/>
<path d="M440.319 370.712L447.471 369.56V377H456.063V382.952H447.471V391.832C447.471 393.336 447.727 394.536 448.239 395.432C448.783 396.328 449.855 396.776 451.455 396.776C452.223 396.776 453.007 396.712 453.807 396.584C454.639 396.424 455.391 396.216 456.063 395.96L457.071 401.528C456.207 401.88 455.247 402.184 454.191 402.44C453.135 402.696 451.839 402.824 450.303 402.824C448.351 402.824 446.735 402.568 445.455 402.056C444.175 401.512 443.151 400.776 442.383 399.848C441.615 398.888 441.071 397.736 440.751 396.392C440.463 395.048 440.319 393.56 440.319 391.928V370.712Z" fill="white"/>
</svg>
