<svg width="640" height="470" viewBox="0 0 640 470" fill="none" xmlns="http://www.w3.org/2000/svg">
<g clip-path="url(#clip0_2_161)">
<path d="M640 0H0V470H640V0Z" fill="#B84E91"/>
<path d="M59.0157 313.736C59.5918 314.792 60.2478 316.104 60.9838 317.672C61.7518 319.208 62.5358 320.888 63.3358 322.712C64.1678 324.504 64.9838 326.344 65.7838 328.232C66.5838 330.12 67.3358 331.896 68.0398 333.56C68.7438 331.896 69.4958 330.12 70.2958 328.232C71.0958 326.344 71.8958 324.504 72.6958 322.712C73.5278 320.888 74.3118 319.208 75.0478 317.672C75.8158 316.104 76.4878 314.792 77.0638 313.736H83.8798C84.1998 315.944 84.4878 318.424 84.7438 321.176C85.0318 323.896 85.2718 326.744 85.4638 329.72C85.6878 332.664 85.8798 335.624 86.0398 338.6C86.2318 341.576 86.3918 344.376 86.5198 347H79.2238C79.1278 343.768 78.9998 340.248 78.8398 336.44C78.6798 332.632 78.4398 328.792 78.1198 324.92C77.5438 326.264 76.9038 327.752 76.1998 329.384C75.4958 331.016 74.7918 332.648 74.0878 334.28C73.4158 335.912 72.7598 337.48 72.1198 338.984C71.4798 340.456 70.9358 341.72 70.4878 342.776H65.2558C64.8078 341.72 64.2638 340.456 63.6238 338.984C62.9838 337.48 62.3118 335.912 61.6078 334.28C60.9358 332.648 60.2478 331.016 59.5438 329.384C58.8398 327.752 58.1998 326.264 57.6238 324.92C57.3038 328.792 57.0638 332.632 56.9038 336.44C56.7438 340.248 56.6158 343.768 56.5198 347H49.2238C49.3518 344.376 49.4958 341.576 49.6558 338.6C49.8478 335.624 50.0398 332.664 50.2318 329.72C50.4558 326.744 50.6958 323.896 50.9518 321.176C51.2398 318.424 51.5438 315.944 51.8638 313.736H59.0157ZM116.398 334.328C116.398 336.312 116.11 338.136 115.534 339.8C114.958 341.432 114.126 342.84 113.038 344.024C111.95 345.176 110.638 346.072 109.102 346.712C107.598 347.352 105.902 347.672 104.014 347.672C102.158 347.672 100.462 347.352 98.9259 346.712C97.4219 346.072 96.1259 345.176 95.0379 344.024C93.9499 342.84 93.1019 341.432 92.4939 339.8C91.8859 338.136 91.5819 336.312 91.5819 334.328C91.5819 332.344 91.8859 330.536 92.4939 328.904C93.1339 327.272 93.9979 325.88 95.0859 324.728C96.2059 323.576 97.5179 322.68 99.0219 322.04C100.558 321.4 102.222 321.08 104.014 321.08C105.838 321.08 107.502 321.4 109.006 322.04C110.542 322.68 111.854 323.576 112.942 324.728C114.03 325.88 114.878 327.272 115.486 328.904C116.094 330.536 116.398 332.344 116.398 334.328ZM109.102 334.328C109.102 332.12 108.654 330.392 107.758 329.144C106.894 327.864 105.646 327.224 104.014 327.224C102.382 327.224 101.118 327.864 100.222 329.144C99.3259 330.392 98.8779 332.12 98.8779 334.328C98.8779 336.536 99.3259 338.296 100.222 339.608C101.118 340.888 102.382 341.528 104.014 341.528C105.646 341.528 106.894 340.888 107.758 339.608C108.654 338.296 109.102 336.536 109.102 334.328ZM128.034 334.184C128.034 336.392 128.53 338.168 129.522 339.512C130.514 340.856 131.986 341.528 133.938 341.528C134.578 341.528 135.17 341.512 135.714 341.48C136.258 341.416 136.706 341.352 137.058 341.288V328.28C136.61 327.992 136.018 327.752 135.282 327.56C134.578 327.368 133.858 327.272 133.122 327.272C129.73 327.272 128.034 329.576 128.034 334.184ZM144.21 346.184C143.57 346.376 142.834 346.568 142.002 346.76C141.17 346.92 140.29 347.064 139.362 347.192C138.466 347.32 137.538 347.416 136.578 347.48C135.65 347.576 134.754 347.624 133.89 347.624C131.81 347.624 129.954 347.32 128.322 346.712C126.69 346.104 125.314 345.24 124.194 344.12C123.074 342.968 122.21 341.592 121.602 339.992C121.026 338.36 120.738 336.536 120.738 334.52C120.738 332.472 120.994 330.632 121.506 329C122.018 327.336 122.754 325.928 123.714 324.776C124.674 323.624 125.842 322.744 127.218 322.136C128.626 321.528 130.226 321.224 132.018 321.224C133.01 321.224 133.89 321.32 134.658 321.512C135.458 321.704 136.258 321.976 137.058 322.328V310.904L144.21 309.752V346.184ZM149.707 334.568C149.707 332.328 150.043 330.376 150.715 328.712C151.419 327.016 152.331 325.608 153.451 324.488C154.571 323.368 155.851 322.52 157.291 321.944C158.763 321.368 160.267 321.08 161.803 321.08C165.387 321.08 168.219 322.184 170.299 324.392C172.379 326.568 173.419 329.784 173.419 334.04C173.419 334.456 173.403 334.92 173.371 335.432C173.339 335.912 173.307 336.344 173.275 336.728H157.051C157.211 338.2 157.899 339.368 159.115 340.232C160.331 341.096 161.963 341.528 164.011 341.528C165.323 341.528 166.603 341.416 167.851 341.192C169.131 340.936 170.171 340.632 170.971 340.28L171.931 346.088C171.547 346.28 171.035 346.472 170.395 346.664C169.755 346.856 169.035 347.016 168.235 347.144C167.467 347.304 166.635 347.432 165.739 347.528C164.843 347.624 163.947 347.672 163.051 347.672C160.779 347.672 158.795 347.336 157.099 346.664C155.435 345.992 154.043 345.08 152.923 343.928C151.835 342.744 151.019 341.352 150.475 339.752C149.963 338.152 149.707 336.424 149.707 334.568ZM166.507 331.832C166.475 331.224 166.363 330.632 166.171 330.056C166.011 329.48 165.739 328.968 165.355 328.52C165.003 328.072 164.539 327.704 163.963 327.416C163.419 327.128 162.731 326.984 161.899 326.984C161.099 326.984 160.411 327.128 159.835 327.416C159.259 327.672 158.779 328.024 158.395 328.472C158.011 328.92 157.707 329.448 157.483 330.056C157.291 330.632 157.147 331.224 157.051 331.832H166.507ZM189.018 347.48C186.938 347.448 185.242 347.224 183.93 346.808C182.65 346.392 181.626 345.816 180.858 345.08C180.122 344.312 179.61 343.4 179.322 342.344C179.066 341.256 178.938 340.04 178.938 338.696V310.904L186.09 309.752V337.256C186.09 337.896 186.138 338.472 186.234 338.984C186.33 339.496 186.506 339.928 186.762 340.28C187.05 340.632 187.45 340.92 187.962 341.144C188.474 341.368 189.162 341.512 190.026 341.576L189.018 347.48ZM191.966 329.432H205.886V335.912H191.966V329.432ZM219.353 347C218.041 344.216 216.745 341.32 215.465 338.312C214.185 335.304 212.969 332.328 211.817 329.384C210.665 326.44 209.593 323.624 208.601 320.936C207.641 318.248 206.809 315.848 206.105 313.736H214.361C215.001 315.656 215.689 317.736 216.425 319.976C217.193 322.184 217.961 324.392 218.729 326.6C219.529 328.808 220.297 330.92 221.033 332.936C221.769 334.952 222.457 336.696 223.097 338.168C223.705 336.696 224.377 334.952 225.113 332.936C225.881 330.92 226.649 328.808 227.417 326.6C228.217 324.392 228.985 322.184 229.721 319.976C230.489 317.736 231.193 315.656 231.833 313.736H239.801C239.065 315.848 238.217 318.248 237.257 320.936C236.297 323.624 235.241 326.44 234.089 329.384C232.937 332.328 231.721 335.304 230.441 338.312C229.161 341.32 227.865 344.216 226.553 347H219.353ZM250.778 347H243.626V321.752H250.778V347ZM251.45 314.456C251.45 315.768 251.018 316.808 250.154 317.576C249.322 318.312 248.33 318.68 247.178 318.68C246.026 318.68 245.018 318.312 244.154 317.576C243.322 316.808 242.906 315.768 242.906 314.456C242.906 313.144 243.322 312.12 244.154 311.384C245.018 310.616 246.026 310.232 247.178 310.232C248.33 310.232 249.322 310.616 250.154 311.384C251.018 312.12 251.45 313.144 251.45 314.456ZM256.301 334.568C256.301 332.328 256.637 330.376 257.309 328.712C258.013 327.016 258.925 325.608 260.045 324.488C261.165 323.368 262.445 322.52 263.885 321.944C265.357 321.368 266.861 321.08 268.397 321.08C271.981 321.08 274.813 322.184 276.893 324.392C278.973 326.568 280.013 329.784 280.013 334.04C280.013 334.456 279.997 334.92 279.965 335.432C279.933 335.912 279.901 336.344 279.869 336.728H263.645C263.805 338.2 264.493 339.368 265.709 340.232C266.925 341.096 268.557 341.528 270.605 341.528C271.917 341.528 273.197 341.416 274.445 341.192C275.725 340.936 276.765 340.632 277.565 340.28L278.525 346.088C278.141 346.28 277.629 346.472 276.989 346.664C276.349 346.856 275.629 347.016 274.829 347.144C274.061 347.304 273.229 347.432 272.333 347.528C271.437 347.624 270.541 347.672 269.645 347.672C267.373 347.672 265.389 347.336 263.693 346.664C262.029 345.992 260.637 345.08 259.517 343.928C258.429 342.744 257.613 341.352 257.069 339.752C256.557 338.152 256.301 336.424 256.301 334.568ZM273.101 331.832C273.069 331.224 272.957 330.632 272.765 330.056C272.605 329.48 272.333 328.968 271.949 328.52C271.597 328.072 271.133 327.704 270.557 327.416C270.013 327.128 269.325 326.984 268.493 326.984C267.693 326.984 267.005 327.128 266.429 327.416C265.853 327.672 265.373 328.024 264.989 328.472C264.605 328.92 264.301 329.448 264.077 330.056C263.885 330.632 263.741 331.224 263.645 331.832H273.101ZM300.892 332.504C300.252 334.936 299.564 337.352 298.828 339.752C298.124 342.152 297.372 344.568 296.572 347H291.004C290.428 345.656 289.804 344.056 289.132 342.2C288.46 340.344 287.756 338.328 287.02 336.152C286.316 333.944 285.58 331.624 284.812 329.192C284.076 326.728 283.356 324.248 282.652 321.752H290.188C290.444 322.904 290.716 324.168 291.004 325.544C291.324 326.888 291.644 328.28 291.964 329.72C292.316 331.16 292.668 332.616 293.02 334.088C293.404 335.528 293.788 336.92 294.172 338.264C294.588 336.856 294.988 335.416 295.372 333.944C295.788 332.472 296.172 331.032 296.524 329.624C296.908 328.184 297.26 326.808 297.58 325.496C297.932 324.152 298.236 322.904 298.492 321.752H303.676C303.932 322.904 304.22 324.152 304.54 325.496C304.86 326.808 305.196 328.184 305.548 329.624C305.9 331.032 306.268 332.472 306.652 333.944C307.036 335.416 307.436 336.856 307.852 338.264C308.236 336.92 308.62 335.528 309.004 334.088C309.388 332.616 309.74 331.16 310.06 329.72C310.412 328.28 310.732 326.888 311.02 325.544C311.34 324.168 311.628 322.904 311.884 321.752H319.324C318.62 324.248 317.884 326.728 317.116 329.192C316.38 331.624 315.644 333.944 314.908 336.152C314.204 338.328 313.5 340.344 312.796 342.2C312.124 344.056 311.5 345.656 310.924 347H305.356C304.556 344.568 303.772 342.152 303.004 339.752C302.236 337.352 301.532 334.936 300.892 332.504ZM321.388 329.432H335.308V335.912H321.388V329.432ZM348.775 347C347.463 344.216 346.167 341.32 344.887 338.312C343.607 335.304 342.391 332.328 341.239 329.384C340.087 326.44 339.015 323.624 338.023 320.936C337.063 318.248 336.231 315.848 335.527 313.736H343.783C344.423 315.656 345.111 317.736 345.847 319.976C346.615 322.184 347.383 324.392 348.151 326.6C348.951 328.808 349.719 330.92 350.455 332.936C351.191 334.952 351.879 336.696 352.519 338.168C353.127 336.696 353.799 334.952 354.535 332.936C355.303 330.92 356.071 328.808 356.839 326.6C357.639 324.392 358.407 322.184 359.143 319.976C359.911 317.736 360.615 315.656 361.255 313.736H369.223C368.487 315.848 367.639 318.248 366.679 320.936C365.719 323.624 364.663 326.44 363.511 329.384C362.359 332.328 361.143 335.304 359.863 338.312C358.583 341.32 357.287 344.216 355.975 347H348.775ZM380.2 347H373.048V321.752H380.2V347ZM380.872 314.456C380.872 315.768 380.44 316.808 379.576 317.576C378.744 318.312 377.752 318.68 376.6 318.68C375.448 318.68 374.44 318.312 373.576 317.576C372.744 316.808 372.328 315.768 372.328 314.456C372.328 313.144 372.744 312.12 373.576 311.384C374.44 310.616 375.448 310.232 376.6 310.232C377.752 310.232 378.744 310.616 379.576 311.384C380.44 312.12 380.872 313.144 380.872 314.456ZM385.723 334.568C385.723 332.328 386.059 330.376 386.73 328.712C387.435 327.016 388.347 325.608 389.467 324.488C390.587 323.368 391.867 322.52 393.307 321.944C394.779 321.368 396.283 321.08 397.819 321.08C401.403 321.08 404.235 322.184 406.315 324.392C408.395 326.568 409.435 329.784 409.435 334.04C409.435 334.456 409.419 334.92 409.387 335.432C409.355 335.912 409.323 336.344 409.291 336.728H393.067C393.227 338.2 393.915 339.368 395.131 340.232C396.347 341.096 397.979 341.528 400.027 341.528C401.339 341.528 402.619 341.416 403.867 341.192C405.147 340.936 406.187 340.632 406.987 340.28L407.947 346.088C407.563 346.28 407.051 346.472 406.411 346.664C405.771 346.856 405.051 347.016 404.251 347.144C403.483 347.304 402.651 347.432 401.755 347.528C400.859 347.624 399.963 347.672 399.067 347.672C396.795 347.672 394.811 347.336 393.115 346.664C391.451 345.992 390.059 345.08 388.939 343.928C387.851 342.744 387.035 341.352 386.491 339.752C385.979 338.152 385.723 336.424 385.723 334.568ZM402.523 331.832C402.491 331.224 402.379 330.632 402.187 330.056C402.027 329.48 401.755 328.968 401.371 328.52C401.019 328.072 400.555 327.704 399.979 327.416C399.435 327.128 398.747 326.984 397.915 326.984C397.115 326.984 396.427 327.128 395.851 327.416C395.275 327.672 394.795 328.024 394.411 328.472C394.027 328.92 393.723 329.448 393.499 330.056C393.307 330.632 393.163 331.224 393.067 331.832H402.523ZM430.314 332.504C429.674 334.936 428.986 337.352 428.25 339.752C427.546 342.152 426.794 344.568 425.994 347H420.426C419.85 345.656 419.226 344.056 418.554 342.2C417.882 340.344 417.178 338.328 416.442 336.152C415.738 333.944 415.002 331.624 414.234 329.192C413.498 326.728 412.778 324.248 412.074 321.752H419.61C419.866 322.904 420.138 324.168 420.426 325.544C420.746 326.888 421.066 328.28 421.386 329.72C421.738 331.16 422.09 332.616 422.442 334.088C422.826 335.528 423.21 336.92 423.594 338.264C424.01 336.856 424.41 335.416 424.794 333.944C425.21 332.472 425.594 331.032 425.946 329.624C426.33 328.184 426.682 326.808 427.002 325.496C427.354 324.152 427.658 322.904 427.914 321.752H433.098C433.354 322.904 433.642 324.152 433.962 325.496C434.282 326.808 434.618 328.184 434.97 329.624C435.322 331.032 435.69 332.472 436.074 333.944C436.458 335.416 436.858 336.856 437.274 338.264C437.658 336.92 438.042 335.528 438.426 334.088C438.81 332.616 439.162 331.16 439.482 329.72C439.834 328.28 440.154 326.888 440.442 325.544C440.762 324.168 441.05 322.904 441.306 321.752H448.746C448.042 324.248 447.306 326.728 446.538 329.192C445.802 331.624 445.066 333.944 444.33 336.152C443.626 338.328 442.922 340.344 442.218 342.2C441.546 344.056 440.922 345.656 440.346 347H434.778C433.978 344.568 433.194 342.152 432.426 339.752C431.658 337.352 430.954 334.936 430.314 332.504ZM461.906 313.736C462.482 314.792 463.138 316.104 463.874 317.672C464.642 319.208 465.426 320.888 466.226 322.712C467.058 324.504 467.874 326.344 468.674 328.232C469.474 330.12 470.226 331.896 470.93 333.56C471.634 331.896 472.386 330.12 473.186 328.232C473.986 326.344 474.786 324.504 475.586 322.712C476.418 320.888 477.202 319.208 477.938 317.672C478.706 316.104 479.378 314.792 479.954 313.736H486.77C487.09 315.944 487.378 318.424 487.634 321.176C487.922 323.896 488.162 326.744 488.354 329.72C488.578 332.664 488.77 335.624 488.93 338.6C489.122 341.576 489.282 344.376 489.41 347H482.114C482.018 343.768 481.89 340.248 481.73 336.44C481.57 332.632 481.33 328.792 481.01 324.92C480.434 326.264 479.794 327.752 479.09 329.384C478.386 331.016 477.682 332.648 476.978 334.28C476.306 335.912 475.65 337.48 475.01 338.984C474.37 340.456 473.826 341.72 473.378 342.776H468.146C467.698 341.72 467.154 340.456 466.514 338.984C465.874 337.48 465.202 335.912 464.498 334.28C463.826 332.648 463.138 331.016 462.434 329.384C461.73 327.752 461.09 326.264 460.514 324.92C460.194 328.792 459.954 332.632 459.794 336.44C459.634 340.248 459.506 343.768 459.41 347H452.114C452.242 344.376 452.386 341.576 452.546 338.6C452.738 335.624 452.93 332.664 453.122 329.72C453.346 326.744 453.586 323.896 453.842 321.176C454.13 318.424 454.434 315.944 454.754 313.736H461.906ZM519.289 334.328C519.289 336.312 519.001 338.136 518.425 339.8C517.849 341.432 517.017 342.84 515.929 344.024C514.841 345.176 513.529 346.072 511.993 346.712C510.489 347.352 508.793 347.672 506.905 347.672C505.049 347.672 503.353 347.352 501.817 346.712C500.313 346.072 499.017 345.176 497.929 344.024C496.841 342.84 495.993 341.432 495.385 339.8C494.777 338.136 494.473 336.312 494.473 334.328C494.473 332.344 494.777 330.536 495.385 328.904C496.025 327.272 496.889 325.88 497.977 324.728C499.097 323.576 500.409 322.68 501.913 322.04C503.449 321.4 505.113 321.08 506.905 321.08C508.729 321.08 510.393 321.4 511.897 322.04C513.433 322.68 514.745 323.576 515.833 324.728C516.921 325.88 517.769 327.272 518.377 328.904C518.985 330.536 519.289 332.344 519.289 334.328ZM511.993 334.328C511.993 332.12 511.545 330.392 510.649 329.144C509.785 327.864 508.537 327.224 506.905 327.224C505.273 327.224 504.009 327.864 503.113 329.144C502.217 330.392 501.769 332.12 501.769 334.328C501.769 336.536 502.217 338.296 503.113 339.608C504.009 340.888 505.273 341.528 506.905 341.528C508.537 341.528 509.785 340.888 510.649 339.608C511.545 338.296 511.993 336.536 511.993 334.328ZM530.925 334.184C530.925 336.392 531.421 338.168 532.413 339.512C533.405 340.856 534.877 341.528 536.829 341.528C537.469 341.528 538.061 341.512 538.605 341.48C539.149 341.416 539.597 341.352 539.949 341.288V328.28C539.501 327.992 538.909 327.752 538.173 327.56C537.469 327.368 536.749 327.272 536.013 327.272C532.621 327.272 530.925 329.576 530.925 334.184ZM547.101 346.184C546.461 346.376 545.725 346.568 544.893 346.76C544.061 346.92 543.181 347.064 542.253 347.192C541.357 347.32 540.429 347.416 539.469 347.48C538.541 347.576 537.645 347.624 536.781 347.624C534.701 347.624 532.845 347.32 531.213 346.712C529.581 346.104 528.205 345.24 527.085 344.12C525.965 342.968 525.101 341.592 524.493 339.992C523.917 338.36 523.629 336.536 523.629 334.52C523.629 332.472 523.885 330.632 524.397 329C524.909 327.336 525.645 325.928 526.605 324.776C527.565 323.624 528.733 322.744 530.109 322.136C531.517 321.528 533.117 321.224 534.909 321.224C535.901 321.224 536.781 321.32 537.549 321.512C538.349 321.704 539.149 321.976 539.949 322.328V310.904L547.101 309.752V346.184ZM552.598 334.568C552.598 332.328 552.934 330.376 553.605 328.712C554.31 327.016 555.222 325.608 556.342 324.488C557.462 323.368 558.742 322.52 560.182 321.944C561.654 321.368 563.158 321.08 564.694 321.08C568.278 321.08 571.11 322.184 573.19 324.392C575.27 326.568 576.31 329.784 576.31 334.04C576.31 334.456 576.294 334.92 576.262 335.432C576.23 335.912 576.198 336.344 576.166 336.728H559.942C560.102 338.2 560.79 339.368 562.006 340.232C563.222 341.096 564.854 341.528 566.902 341.528C568.214 341.528 569.494 341.416 570.742 341.192C572.022 340.936 573.062 340.632 573.862 340.28L574.822 346.088C574.438 346.28 573.926 346.472 573.286 346.664C572.646 346.856 571.926 347.016 571.126 347.144C570.358 347.304 569.526 347.432 568.63 347.528C567.734 347.624 566.838 347.672 565.942 347.672C563.67 347.672 561.686 347.336 559.99 346.664C558.326 345.992 556.934 345.08 555.814 343.928C554.726 342.744 553.91 341.352 553.366 339.752C552.854 338.152 552.598 336.424 552.598 334.568ZM569.398 331.832C569.366 331.224 569.254 330.632 569.062 330.056C568.902 329.48 568.63 328.968 568.246 328.52C567.894 328.072 567.43 327.704 566.854 327.416C566.31 327.128 565.622 326.984 564.79 326.984C563.99 326.984 563.302 327.128 562.726 327.416C562.15 327.672 561.67 328.024 561.286 328.472C560.902 328.92 560.598 329.448 560.374 330.056C560.182 330.632 560.038 331.224 559.942 331.832H569.398ZM591.909 347.48C589.829 347.448 588.133 347.224 586.821 346.808C585.541 346.392 584.517 345.816 583.749 345.08C583.013 344.312 582.501 343.4 582.213 342.344C581.957 341.256 581.829 340.04 581.829 338.696V310.904L588.981 309.752V337.256C588.981 337.896 589.029 338.472 589.125 338.984C589.221 339.496 589.397 339.928 589.653 340.28C589.941 340.632 590.341 340.92 590.853 341.144C591.365 341.368 592.053 341.512 592.917 341.576L591.909 347.48ZM200.94 402C200.588 400.848 200.188 399.664 199.74 398.448C199.324 397.232 198.908 396.016 198.492 394.8H185.532C185.116 396.016 184.684 397.232 184.236 398.448C183.82 399.664 183.436 400.848 183.084 402H175.308C176.556 398.416 177.74 395.104 178.86 392.064C179.98 389.024 181.068 386.16 182.124 383.472C183.212 380.784 184.268 378.24 185.292 375.84C186.348 373.408 187.436 371.04 188.556 368.736H195.708C196.796 371.04 197.868 373.408 198.924 375.84C199.98 378.24 201.036 380.784 202.092 383.472C203.18 386.16 204.284 389.024 205.404 392.064C206.524 395.104 207.708 398.416 208.956 402H200.94ZM191.964 376.272C191.804 376.752 191.564 377.408 191.244 378.24C190.924 379.072 190.556 380.032 190.14 381.12C189.724 382.208 189.26 383.408 188.748 384.72C188.268 386.032 187.772 387.408 187.26 388.848H196.716C196.204 387.408 195.708 386.032 195.228 384.72C194.748 383.408 194.284 382.208 193.836 381.12C193.42 380.032 193.052 379.072 192.732 378.24C192.412 377.408 192.156 376.752 191.964 376.272ZM227.998 383.088C227.358 382.928 226.606 382.768 225.742 382.608C224.878 382.416 223.95 382.32 222.958 382.32C222.51 382.32 221.966 382.368 221.326 382.464C220.718 382.528 220.254 382.608 219.934 382.704V402H212.782V378.096C214.062 377.648 215.566 377.232 217.294 376.848C219.054 376.432 221.006 376.224 223.15 376.224C223.534 376.224 223.998 376.256 224.542 376.32C225.086 376.352 225.63 376.416 226.174 376.512C226.718 376.576 227.262 376.672 227.806 376.8C228.35 376.896 228.814 377.024 229.198 377.184L227.998 383.088ZM231.363 389.376C231.363 387.552 231.651 385.84 232.227 384.24C232.835 382.608 233.699 381.2 234.819 380.016C235.939 378.8 237.299 377.84 238.899 377.136C240.499 376.432 242.323 376.08 244.371 376.08C245.715 376.08 246.947 376.208 248.067 376.464C249.187 376.688 250.275 377.024 251.331 377.472L249.843 383.184C249.171 382.928 248.435 382.704 247.635 382.512C246.835 382.32 245.939 382.224 244.947 382.224C242.835 382.224 241.251 382.88 240.195 384.192C239.171 385.504 238.659 387.232 238.659 389.376C238.659 391.648 239.139 393.408 240.099 394.656C241.091 395.904 242.803 396.528 245.235 396.528C246.099 396.528 247.027 396.448 248.019 396.288C249.011 396.128 249.923 395.872 250.755 395.52L251.763 401.376C250.931 401.728 249.891 402.032 248.643 402.288C247.395 402.544 246.019 402.672 244.515 402.672C242.211 402.672 240.227 402.336 238.563 401.664C236.899 400.96 235.523 400.016 234.435 398.832C233.379 397.648 232.595 396.256 232.083 394.656C231.603 393.024 231.363 391.264 231.363 389.376ZM256.563 402V365.904L263.715 364.752V376.848C264.195 376.688 264.803 376.544 265.539 376.416C266.307 376.256 267.043 376.176 267.747 376.176C269.795 376.176 271.491 376.464 272.835 377.04C274.211 377.584 275.299 378.368 276.099 379.392C276.931 380.416 277.507 381.632 277.827 383.04C278.179 384.448 278.355 386.016 278.355 387.744V402H271.203V388.608C271.203 386.304 270.899 384.672 270.291 383.712C269.715 382.752 268.627 382.272 267.027 382.272C266.387 382.272 265.779 382.336 265.203 382.464C264.659 382.56 264.163 382.672 263.715 382.8V402H256.563ZM291.981 402H284.829V376.752H291.981V402ZM292.653 369.456C292.653 370.768 292.221 371.808 291.357 372.576C290.525 373.312 289.533 373.68 288.381 373.68C287.229 373.68 286.221 373.312 285.357 372.576C284.525 371.808 284.109 370.768 284.109 369.456C284.109 368.144 284.525 367.12 285.357 366.384C286.221 365.616 287.229 365.232 288.381 365.232C289.533 365.232 290.525 365.616 291.357 366.384C292.221 367.12 292.653 368.144 292.653 369.456ZM298.464 370.464L305.616 369.312V376.752H314.208V382.704H305.616V391.584C305.616 393.088 305.872 394.288 306.384 395.184C306.928 396.08 308 396.528 309.6 396.528C310.368 396.528 311.152 396.464 311.952 396.336C312.784 396.176 313.536 395.968 314.208 395.712L315.216 401.28C314.352 401.632 313.392 401.936 312.336 402.192C311.28 402.448 309.984 402.576 308.448 402.576C306.496 402.576 304.88 402.32 303.6 401.808C302.32 401.264 301.296 400.528 300.528 399.6C299.76 398.64 299.216 397.488 298.896 396.144C298.608 394.8 298.464 393.312 298.464 391.68V370.464ZM317.894 389.568C317.894 387.328 318.23 385.376 318.902 383.712C319.606 382.016 320.518 380.608 321.638 379.488C322.758 378.368 324.038 377.52 325.478 376.944C326.95 376.368 328.454 376.08 329.99 376.08C333.574 376.08 336.406 377.184 338.486 379.392C340.566 381.568 341.606 384.784 341.606 389.04C341.606 389.456 341.59 389.92 341.558 390.432C341.526 390.912 341.494 391.344 341.462 391.728H325.238C325.398 393.2 326.086 394.368 327.302 395.232C328.518 396.096 330.15 396.528 332.198 396.528C333.51 396.528 334.79 396.416 336.038 396.192C337.318 395.936 338.358 395.632 339.158 395.28L340.118 401.088C339.734 401.28 339.222 401.472 338.582 401.664C337.942 401.856 337.222 402.016 336.422 402.144C335.654 402.304 334.822 402.432 333.926 402.528C333.03 402.624 332.134 402.672 331.238 402.672C328.966 402.672 326.982 402.336 325.286 401.664C323.622 400.992 322.23 400.08 321.11 398.928C320.022 397.744 319.206 396.352 318.662 394.752C318.15 393.152 317.894 391.424 317.894 389.568ZM334.694 386.832C334.662 386.224 334.55 385.632 334.358 385.056C334.198 384.48 333.926 383.968 333.542 383.52C333.19 383.072 332.726 382.704 332.15 382.416C331.606 382.128 330.918 381.984 330.086 381.984C329.286 381.984 328.598 382.128 328.022 382.416C327.446 382.672 326.966 383.024 326.582 383.472C326.198 383.92 325.894 384.448 325.67 385.056C325.478 385.632 325.334 386.224 325.238 386.832H334.694ZM345.926 389.376C345.926 387.552 346.214 385.84 346.79 384.24C347.398 382.608 348.262 381.2 349.382 380.016C350.502 378.8 351.862 377.84 353.462 377.136C355.062 376.432 356.886 376.08 358.934 376.08C360.278 376.08 361.51 376.208 362.63 376.464C363.75 376.688 364.838 377.024 365.894 377.472L364.406 383.184C363.734 382.928 362.998 382.704 362.198 382.512C361.398 382.32 360.502 382.224 359.51 382.224C357.398 382.224 355.814 382.88 354.758 384.192C353.734 385.504 353.222 387.232 353.222 389.376C353.222 391.648 353.702 393.408 354.662 394.656C355.654 395.904 357.366 396.528 359.798 396.528C360.662 396.528 361.59 396.448 362.582 396.288C363.574 396.128 364.486 395.872 365.318 395.52L366.326 401.376C365.494 401.728 364.454 402.032 363.206 402.288C361.958 402.544 360.582 402.672 359.078 402.672C356.774 402.672 354.79 402.336 353.126 401.664C351.462 400.96 350.086 400.016 348.998 398.832C347.942 397.648 347.158 396.256 346.646 394.656C346.166 393.024 345.926 391.264 345.926 389.376ZM370.886 370.464L378.038 369.312V376.752H386.63V382.704H378.038V391.584C378.038 393.088 378.294 394.288 378.806 395.184C379.35 396.08 380.422 396.528 382.022 396.528C382.79 396.528 383.574 396.464 384.374 396.336C385.206 396.176 385.958 395.968 386.63 395.712L387.638 401.28C386.774 401.632 385.814 401.936 384.758 402.192C383.702 402.448 382.406 402.576 380.87 402.576C378.918 402.576 377.302 402.32 376.022 401.808C374.742 401.264 373.718 400.528 372.95 399.6C372.182 398.64 371.638 397.488 371.318 396.144C371.03 394.8 370.886 393.312 370.886 391.68V370.464ZM414.006 401.136C412.79 401.488 411.222 401.808 409.302 402.096C407.382 402.416 405.366 402.576 403.254 402.576C401.11 402.576 399.318 402.288 397.878 401.712C396.47 401.136 395.35 400.336 394.518 399.312C393.686 398.256 393.094 397.008 392.742 395.568C392.39 394.128 392.214 392.544 392.214 390.816V376.752H399.366V389.952C399.366 392.256 399.67 393.92 400.278 394.944C400.886 395.968 402.022 396.48 403.686 396.48C404.198 396.48 404.742 396.464 405.318 396.432C405.894 396.368 406.406 396.304 406.854 396.24V376.752H414.006V401.136ZM435.935 383.088C435.295 382.928 434.543 382.768 433.679 382.608C432.815 382.416 431.887 382.32 430.895 382.32C430.447 382.32 429.903 382.368 429.263 382.464C428.655 382.528 428.191 382.608 427.871 382.704V402H420.719V378.096C421.999 377.648 423.503 377.232 425.231 376.848C426.991 376.432 428.943 376.224 431.087 376.224C431.471 376.224 431.935 376.256 432.479 376.32C433.023 376.352 433.567 376.416 434.111 376.512C434.655 376.576 435.199 376.672 435.743 376.8C436.287 376.896 436.751 377.024 437.135 377.184L435.935 383.088ZM439.301 389.568C439.301 387.328 439.637 385.376 440.309 383.712C441.013 382.016 441.925 380.608 443.045 379.488C444.165 378.368 445.445 377.52 446.885 376.944C448.357 376.368 449.861 376.08 451.397 376.08C454.981 376.08 457.813 377.184 459.893 379.392C461.973 381.568 463.013 384.784 463.013 389.04C463.013 389.456 462.997 389.92 462.965 390.432C462.933 390.912 462.901 391.344 462.869 391.728H446.645C446.805 393.2 447.493 394.368 448.709 395.232C449.925 396.096 451.557 396.528 453.605 396.528C454.917 396.528 456.197 396.416 457.445 396.192C458.725 395.936 459.765 395.632 460.565 395.28L461.525 401.088C461.141 401.28 460.629 401.472 459.989 401.664C459.349 401.856 458.629 402.016 457.829 402.144C457.061 402.304 456.229 402.432 455.333 402.528C454.437 402.624 453.541 402.672 452.645 402.672C450.373 402.672 448.389 402.336 446.693 401.664C445.029 400.992 443.637 400.08 442.517 398.928C441.429 397.744 440.613 396.352 440.069 394.752C439.557 393.152 439.301 391.424 439.301 389.568ZM456.101 386.832C456.069 386.224 455.957 385.632 455.765 385.056C455.605 384.48 455.333 383.968 454.949 383.52C454.597 383.072 454.133 382.704 453.557 382.416C453.013 382.128 452.325 381.984 451.493 381.984C450.693 381.984 450.005 382.128 449.429 382.416C448.853 382.672 448.373 383.024 447.989 383.472C447.605 383.92 447.301 384.448 447.077 385.056C446.885 385.632 446.741 386.224 446.645 386.832H456.101Z" fill="white"/>
<path d="M182.606 170C183.818 172.222 185.199 174.983 186.747 178.283C188.364 181.515 190.013 185.051 191.697 188.889C193.448 192.66 195.165 196.532 196.848 200.505C198.532 204.478 200.114 208.215 201.596 211.717C203.077 208.215 204.66 204.478 206.343 200.505C208.027 196.532 209.71 192.66 211.394 188.889C213.145 185.051 214.795 181.515 216.343 178.283C217.96 174.983 219.374 172.222 220.586 170H234.929C235.603 174.646 236.209 179.865 236.747 185.657C237.354 191.38 237.859 197.374 238.263 203.636C238.734 209.832 239.138 216.061 239.475 222.323C239.879 228.586 240.215 234.478 240.485 240H225.131C224.929 233.199 224.66 225.791 224.323 217.778C223.987 209.764 223.481 201.684 222.808 193.535C221.596 196.364 220.249 199.495 218.768 202.929C217.286 206.364 215.805 209.798 214.323 213.232C212.909 216.667 211.529 219.966 210.182 223.131C208.835 226.229 207.69 228.889 206.747 231.111H195.737C194.795 228.889 193.65 226.229 192.303 223.131C190.956 219.966 189.542 216.667 188.061 213.232C186.646 209.798 185.199 206.364 183.717 202.929C182.236 199.495 180.889 196.364 179.677 193.535C179.003 201.684 178.498 209.764 178.162 217.778C177.825 225.791 177.556 233.199 177.354 240H162C162.269 234.478 162.572 228.586 162.909 222.323C163.313 216.061 163.717 209.832 164.121 203.636C164.593 197.374 165.098 191.38 165.636 185.657C166.242 179.865 166.882 174.646 167.556 170H182.606Z" fill="white"/>
<path d="M274.494 240C271.734 234.141 269.006 228.047 266.313 221.717C263.619 215.387 261.06 209.125 258.636 202.929C256.212 196.734 253.956 190.808 251.868 185.152C249.848 179.495 248.097 174.444 246.616 170H263.989C265.336 174.04 266.784 178.418 268.333 183.131C269.949 187.778 271.565 192.424 273.181 197.071C274.865 201.717 276.481 206.162 278.03 210.404C279.579 214.646 281.026 218.316 282.373 221.414C283.653 218.316 285.067 214.646 286.616 210.404C288.232 206.162 289.848 201.717 291.464 197.071C293.148 192.424 294.764 187.778 296.313 183.131C297.929 178.418 299.41 174.04 300.757 170H317.525C315.976 174.444 314.191 179.495 312.171 185.152C310.151 190.808 307.929 196.734 305.505 202.929C303.08 209.125 300.521 215.387 297.828 221.717C295.134 228.047 292.407 234.141 289.646 240H274.494Z" fill="white"/>
<path d="M351.14 240C348.379 234.141 345.652 228.047 342.958 221.717C340.264 215.387 337.705 209.125 335.281 202.929C332.857 196.734 330.601 190.808 328.514 185.152C326.493 179.495 324.743 174.444 323.261 170H340.635C341.982 174.04 343.429 178.418 344.978 183.131C346.594 187.778 348.211 192.424 349.827 197.071C351.51 201.717 353.126 206.162 354.675 210.404C356.224 214.646 357.672 218.316 359.019 221.414C360.298 218.316 361.712 214.646 363.261 210.404C364.877 206.162 366.493 201.717 368.11 197.071C369.793 192.424 371.409 187.778 372.958 183.131C374.574 178.418 376.056 174.04 377.402 170H394.17C392.621 174.444 390.837 179.495 388.817 185.152C386.796 190.808 384.574 196.734 382.15 202.929C379.726 209.125 377.167 215.387 374.473 221.717C371.78 228.047 369.052 234.141 366.291 240H351.14Z" fill="white"/>
<path d="M420.828 170C422.04 172.222 423.421 174.983 424.97 178.283C426.586 181.515 428.236 185.051 429.919 188.889C431.67 192.66 433.387 196.532 435.071 200.505C436.754 204.478 438.337 208.215 439.818 211.717C441.299 208.215 442.882 204.478 444.565 200.505C446.249 196.532 447.932 192.66 449.616 188.889C451.367 185.051 453.017 181.515 454.565 178.283C456.182 174.983 457.596 172.222 458.808 170H473.151C473.825 174.646 474.431 179.865 474.97 185.657C475.576 191.38 476.081 197.374 476.485 203.636C476.956 209.832 477.36 216.061 477.697 222.323C478.101 228.586 478.438 234.478 478.707 240H463.353C463.151 233.199 462.882 225.791 462.545 217.778C462.209 209.764 461.704 201.684 461.03 193.535C459.818 196.364 458.471 199.495 456.99 202.929C455.508 206.364 454.027 209.798 452.545 213.232C451.131 216.667 449.751 219.966 448.404 223.131C447.057 226.229 445.912 228.889 444.97 231.111H433.959C433.017 228.889 431.872 226.229 430.525 223.131C429.178 219.966 427.764 216.667 426.283 213.232C424.869 209.798 423.421 206.364 421.939 202.929C420.458 199.495 419.111 196.364 417.899 193.535C417.225 201.684 416.72 209.764 416.384 217.778C416.047 225.791 415.778 233.199 415.576 240H400.222C400.491 234.478 400.794 228.586 401.131 222.323C401.535 216.061 401.939 209.832 402.343 203.636C402.815 197.374 403.32 191.38 403.858 185.657C404.464 179.865 405.104 174.646 405.778 170H420.828Z" fill="white"/>
</g>
<defs>
<clipPath id="clip0_2_161">
<rect width="640" height="470" fill="white"/>
</clipPath>
</defs>
</svg>
