<svg width="640" height="470" viewBox="0 0 640 470" fill="none" xmlns="http://www.w3.org/2000/svg">
<path d="M640 0H0V470H640V0Z" fill="#B84E91"/>
<path d="M61.1549 347C60.2269 345.144 59.2029 343.272 58.0829 341.384C56.9949 339.464 55.7309 337.512 54.2909 335.528C53.8429 336.104 53.2669 336.904 52.5629 337.928C51.8909 338.952 51.2029 340.04 50.4989 341.192C49.8269 342.344 49.1869 343.448 48.5789 344.504C47.9709 345.56 47.5229 346.392 47.2349 347H38.6909C40.0989 344.408 41.7309 341.688 43.5869 338.84C45.4749 335.992 47.5709 332.968 49.8749 329.768L39.1709 313.736H48.2429L54.7229 324.104L61.0589 313.736H69.6029L59.0429 329.864C61.7309 333.352 63.9869 336.584 65.8109 339.56C67.6349 342.504 69.0749 344.984 70.1309 347H61.1549ZM83.2736 313.736C83.8496 314.792 84.5056 316.104 85.2416 317.672C86.0096 319.208 86.7936 320.888 87.5936 322.712C88.4256 324.504 89.2416 326.344 90.0416 328.232C90.8416 330.12 91.5936 331.896 92.2976 333.56C93.0016 331.896 93.7536 330.12 94.5536 328.232C95.3536 326.344 96.1536 324.504 96.9536 322.712C97.7856 320.888 98.5696 319.208 99.3056 317.672C100.074 316.104 100.746 314.792 101.322 313.736H108.138C108.458 315.944 108.746 318.424 109.002 321.176C109.29 323.896 109.53 326.744 109.722 329.72C109.946 332.664 110.138 335.624 110.298 338.6C110.49 341.576 110.65 344.376 110.778 347H103.482C103.386 343.768 103.258 340.248 103.098 336.44C102.938 332.632 102.698 328.792 102.378 324.92C101.802 326.264 101.162 327.752 100.458 329.384C99.7536 331.016 99.0496 332.648 98.3456 334.28C97.6736 335.912 97.0176 337.48 96.3776 338.984C95.7376 340.456 95.1936 341.72 94.7456 342.776H89.5136C89.0656 341.72 88.5216 340.456 87.8816 338.984C87.2416 337.48 86.5696 335.912 85.8656 334.28C85.1936 332.648 84.5056 331.016 83.8016 329.384C83.0976 327.752 82.4576 326.264 81.8816 324.92C81.5616 328.792 81.3216 332.632 81.1616 336.44C81.0016 340.248 80.8736 343.768 80.7776 347H73.4816C73.6096 344.376 73.7536 341.576 73.9136 338.6C74.1056 335.624 74.2976 332.664 74.4896 329.72C74.7136 326.744 74.9536 323.896 75.2096 321.176C75.4976 318.424 75.8016 315.944 76.1216 313.736H83.2736ZM139.744 340.568V347H117.52V313.736H125.008V340.568H139.744ZM153.938 338.168C153.938 336.952 154.114 335.848 154.466 334.856C154.818 333.832 155.282 332.92 155.858 332.12C156.466 331.288 157.154 330.568 157.922 329.96C158.722 329.32 159.554 328.76 160.418 328.28C159.65 327.352 158.962 326.36 158.354 325.304C157.746 324.216 157.442 323.032 157.442 321.752C157.442 318.936 158.29 316.776 159.986 315.272C161.682 313.736 164.018 312.968 166.994 312.968C168.498 312.968 169.81 313.176 170.93 313.592C172.05 313.976 172.978 314.52 173.714 315.224C174.482 315.896 175.058 316.696 175.442 317.624C175.826 318.52 176.018 319.496 176.018 320.552C176.018 322.504 175.458 324.248 174.338 325.784C173.25 327.288 171.858 328.552 170.162 329.576L175.538 334.952C175.826 334.312 176.098 333.512 176.354 332.552C176.642 331.56 176.818 330.696 176.882 329.96L182.834 330.728C182.77 331.336 182.658 332.008 182.498 332.744C182.338 333.448 182.13 334.168 181.874 334.904C181.65 335.64 181.378 336.376 181.058 337.112C180.77 337.848 180.45 338.52 180.098 339.128C181.122 340.28 182.114 341.544 183.074 342.92C184.066 344.264 184.914 345.624 185.618 347H178.274C178.018 346.584 177.666 346.072 177.218 345.464C176.77 344.824 176.322 344.28 175.874 343.832C174.594 344.856 173.106 345.72 171.41 346.424C169.714 347.096 167.81 347.432 165.698 347.432C163.458 347.432 161.586 347.16 160.082 346.616C158.578 346.04 157.362 345.32 156.434 344.456C155.538 343.56 154.898 342.568 154.514 341.48C154.13 340.36 153.938 339.256 153.938 338.168ZM160.61 337.448C160.61 337.928 160.706 338.424 160.898 338.936C161.09 339.448 161.394 339.928 161.81 340.376C162.258 340.792 162.818 341.144 163.49 341.432C164.162 341.688 164.978 341.816 165.938 341.816C167.282 341.816 168.45 341.64 169.442 341.288C170.466 340.936 171.314 340.472 171.986 339.896L164.306 332.168C163.858 332.392 163.41 332.664 162.962 332.984C162.546 333.304 162.162 333.688 161.81 334.136C161.458 334.552 161.17 335.032 160.946 335.576C160.722 336.12 160.61 336.744 160.61 337.448ZM169.922 320.888C169.922 320.152 169.682 319.496 169.202 318.92C168.722 318.344 167.922 318.056 166.802 318.056C165.778 318.056 164.978 318.376 164.402 319.016C163.858 319.624 163.586 320.424 163.586 321.416C163.586 322.248 163.826 323.064 164.306 323.864C164.786 324.632 165.41 325.368 166.178 326.072C167.202 325.496 168.082 324.808 168.818 324.008C169.554 323.208 169.922 322.168 169.922 320.888ZM219.665 335.816C219.665 337.448 219.473 338.984 219.089 340.424C218.737 341.864 218.097 343.128 217.169 344.216C216.273 345.272 215.041 346.12 213.473 346.76C211.937 347.368 209.985 347.672 207.617 347.672C205.441 347.672 203.569 347.416 202.001 346.904C200.433 346.36 199.137 345.736 198.113 345.032L200.609 339.224C201.537 339.768 202.529 340.248 203.585 340.664C204.641 341.08 205.793 341.288 207.041 341.288C208.865 341.288 210.177 340.84 210.977 339.944C211.777 339.048 212.177 337.544 212.177 335.432V313.736H219.665V335.816ZM225.199 334.568C225.199 332.328 225.535 330.376 226.207 328.712C226.911 327.016 227.823 325.608 228.943 324.488C230.063 323.368 231.343 322.52 232.783 321.944C234.255 321.368 235.759 321.08 237.295 321.08C240.879 321.08 243.711 322.184 245.791 324.392C247.871 326.568 248.911 329.784 248.911 334.04C248.911 334.456 248.895 334.92 248.863 335.432C248.831 335.912 248.799 336.344 248.767 336.728H232.543C232.703 338.2 233.391 339.368 234.607 340.232C235.823 341.096 237.455 341.528 239.503 341.528C240.815 341.528 242.095 341.416 243.343 341.192C244.623 340.936 245.663 340.632 246.463 340.28L247.423 346.088C247.039 346.28 246.527 346.472 245.887 346.664C245.247 346.856 244.527 347.016 243.727 347.144C242.959 347.304 242.127 347.432 241.231 347.528C240.335 347.624 239.439 347.672 238.543 347.672C236.271 347.672 234.287 347.336 232.591 346.664C230.927 345.992 229.535 345.08 228.415 343.928C227.327 342.744 226.511 341.352 225.967 339.752C225.455 338.152 225.199 336.424 225.199 334.568ZM241.999 331.832C241.967 331.224 241.855 330.632 241.663 330.056C241.503 329.48 241.231 328.968 240.847 328.52C240.495 328.072 240.031 327.704 239.455 327.416C238.911 327.128 238.223 326.984 237.391 326.984C236.591 326.984 235.903 327.128 235.327 327.416C234.751 327.672 234.271 328.024 233.887 328.472C233.503 328.92 233.199 329.448 232.975 330.056C232.783 330.632 232.639 331.224 232.543 331.832H241.999ZM254.19 315.464L261.342 314.312V321.752H269.934V327.704H261.342V336.584C261.342 338.088 261.598 339.288 262.11 340.184C262.654 341.08 263.726 341.528 265.326 341.528C266.094 341.528 266.878 341.464 267.678 341.336C268.51 341.176 269.262 340.968 269.934 340.712L270.942 346.28C270.078 346.632 269.118 346.936 268.062 347.192C267.006 347.448 265.71 347.576 264.174 347.576C262.222 347.576 260.606 347.32 259.326 346.808C258.046 346.264 257.022 345.528 256.254 344.6C255.486 343.64 254.942 342.488 254.622 341.144C254.334 339.8 254.19 338.312 254.19 336.68V315.464ZM291.934 334.568C291.934 332.36 291.438 330.6 290.446 329.288C289.454 327.944 287.982 327.272 286.03 327.272C285.39 327.272 284.798 327.304 284.254 327.368C283.71 327.4 283.262 327.448 282.91 327.512V340.424C283.358 340.712 283.934 340.952 284.638 341.144C285.374 341.336 286.11 341.432 286.846 341.432C290.238 341.432 291.934 339.144 291.934 334.568ZM299.23 334.376C299.23 336.328 298.99 338.104 298.51 339.704C298.03 341.304 297.326 342.68 296.398 343.832C295.47 344.984 294.318 345.88 292.942 346.52C291.566 347.16 289.982 347.48 288.19 347.48C287.198 347.48 286.27 347.384 285.406 347.192C284.542 347 283.71 346.728 282.91 346.376V355.88H275.758V322.616C276.398 322.424 277.134 322.248 277.966 322.088C278.798 321.896 279.662 321.736 280.558 321.608C281.486 321.48 282.414 321.384 283.342 321.32C284.302 321.224 285.214 321.176 286.078 321.176C288.158 321.176 290.014 321.496 291.646 322.136C293.278 322.744 294.654 323.624 295.774 324.776C296.894 325.896 297.742 327.272 298.318 328.904C298.926 330.536 299.23 332.36 299.23 334.376ZM314.375 342.008C315.079 342.008 315.751 341.992 316.391 341.96C317.031 341.928 317.543 341.88 317.927 341.816V336.392C317.639 336.328 317.207 336.264 316.631 336.2C316.055 336.136 315.527 336.104 315.047 336.104C314.375 336.104 313.735 336.152 313.127 336.248C312.551 336.312 312.039 336.456 311.591 336.68C311.143 336.904 310.791 337.208 310.535 337.592C310.279 337.976 310.151 338.456 310.151 339.032C310.151 340.152 310.519 340.936 311.255 341.384C312.023 341.8 313.063 342.008 314.375 342.008ZM313.799 321.08C315.911 321.08 317.671 321.32 319.079 321.8C320.487 322.28 321.607 322.968 322.439 323.864C323.303 324.76 323.911 325.848 324.263 327.128C324.615 328.408 324.791 329.832 324.791 331.4V346.28C323.767 346.504 322.343 346.76 320.519 347.048C318.695 347.368 316.487 347.528 313.895 347.528C312.263 347.528 310.775 347.384 309.431 347.096C308.119 346.808 306.983 346.344 306.023 345.704C305.063 345.032 304.327 344.168 303.815 343.112C303.303 342.056 303.047 340.76 303.047 339.224C303.047 337.752 303.335 336.504 303.911 335.48C304.519 334.456 305.319 333.64 306.311 333.032C307.303 332.424 308.439 331.992 309.719 331.736C310.999 331.448 312.327 331.304 313.703 331.304C314.631 331.304 315.447 331.352 316.151 331.448C316.887 331.512 317.479 331.608 317.927 331.736V331.064C317.927 329.848 317.559 328.872 316.823 328.136C316.087 327.4 314.807 327.032 312.983 327.032C311.767 327.032 310.567 327.128 309.383 327.32C308.199 327.48 307.175 327.72 306.311 328.04L305.399 322.28C305.815 322.152 306.327 322.024 306.935 321.896C307.575 321.736 308.263 321.608 308.999 321.512C309.735 321.384 310.503 321.288 311.303 321.224C312.135 321.128 312.967 321.08 313.799 321.08ZM330.058 334.376C330.058 332.552 330.346 330.84 330.922 329.24C331.53 327.608 332.394 326.2 333.514 325.016C334.634 323.8 335.994 322.84 337.594 322.136C339.194 321.432 341.018 321.08 343.066 321.08C344.41 321.08 345.642 321.208 346.762 321.464C347.882 321.688 348.97 322.024 350.026 322.472L348.538 328.184C347.866 327.928 347.13 327.704 346.33 327.512C345.53 327.32 344.634 327.224 343.642 327.224C341.53 327.224 339.946 327.88 338.89 329.192C337.866 330.504 337.354 332.232 337.354 334.376C337.354 336.648 337.834 338.408 338.794 339.656C339.786 340.904 341.498 341.528 343.93 341.528C344.794 341.528 345.722 341.448 346.714 341.288C347.706 341.128 348.618 340.872 349.45 340.52L350.458 346.376C349.626 346.728 348.586 347.032 347.338 347.288C346.09 347.544 344.714 347.672 343.21 347.672C340.906 347.672 338.922 347.336 337.258 346.664C335.594 345.96 334.218 345.016 333.13 343.832C332.074 342.648 331.29 341.256 330.778 339.656C330.298 338.024 330.058 336.264 330.058 334.376ZM362.41 330.872C363.114 330.104 363.834 329.304 364.57 328.472C365.338 327.64 366.074 326.824 366.778 326.024C367.482 325.192 368.138 324.408 368.746 323.672C369.386 322.936 369.93 322.296 370.378 321.752H378.874C377.178 323.704 375.514 325.576 373.882 327.368C372.282 329.128 370.522 330.952 368.602 332.84C369.562 333.704 370.554 334.744 371.578 335.96C372.602 337.144 373.594 338.376 374.554 339.656C375.514 340.936 376.394 342.216 377.194 343.496C377.994 344.776 378.666 345.944 379.21 347H371.002C370.49 346.168 369.898 345.256 369.226 344.264C368.586 343.24 367.898 342.232 367.162 341.24C366.426 340.216 365.642 339.24 364.81 338.312C364.01 337.384 363.21 336.6 362.41 335.96V347H355.258V310.904L362.41 309.752V330.872ZM410.235 347.672C404.827 347.672 400.699 346.168 397.851 343.16C395.035 340.152 393.627 335.88 393.627 330.344C393.627 327.592 394.059 325.144 394.923 323C395.787 320.824 396.971 319 398.475 317.528C399.979 316.024 401.771 314.888 403.851 314.12C405.931 313.352 408.187 312.968 410.619 312.968C412.027 312.968 413.307 313.08 414.459 313.304C415.611 313.496 416.619 313.736 417.483 314.024C418.347 314.28 419.067 314.552 419.643 314.84C420.219 315.128 420.635 315.352 420.891 315.512L418.731 321.56C417.707 321.016 416.507 320.552 415.131 320.168C413.787 319.784 412.251 319.592 410.523 319.592C409.371 319.592 408.235 319.784 407.115 320.168C406.027 320.552 405.051 321.176 404.187 322.04C403.355 322.872 402.683 323.96 402.171 325.304C401.659 326.648 401.403 328.28 401.403 330.2C401.403 331.736 401.563 333.176 401.883 334.52C402.235 335.832 402.779 336.968 403.515 337.928C404.283 338.888 405.275 339.656 406.491 340.232C407.707 340.776 409.179 341.048 410.907 341.048C411.995 341.048 412.971 340.984 413.835 340.856C414.699 340.728 415.467 340.584 416.139 340.424C416.811 340.232 417.403 340.024 417.915 339.8C418.427 339.576 418.891 339.368 419.307 339.176L421.371 345.176C420.315 345.816 418.827 346.392 416.907 346.904C414.987 347.416 412.763 347.672 410.235 347.672ZM448.765 334.328C448.765 336.312 448.477 338.136 447.901 339.8C447.325 341.432 446.493 342.84 445.405 344.024C444.317 345.176 443.005 346.072 441.469 346.712C439.965 347.352 438.269 347.672 436.381 347.672C434.525 347.672 432.829 347.352 431.293 346.712C429.789 346.072 428.493 345.176 427.405 344.024C426.317 342.84 425.469 341.432 424.861 339.8C424.253 338.136 423.949 336.312 423.949 334.328C423.949 332.344 424.253 330.536 424.861 328.904C425.501 327.272 426.365 325.88 427.453 324.728C428.573 323.576 429.885 322.68 431.389 322.04C432.925 321.4 434.589 321.08 436.381 321.08C438.205 321.08 439.869 321.4 441.373 322.04C442.909 322.68 444.221 323.576 445.309 324.728C446.397 325.88 447.245 327.272 447.853 328.904C448.461 330.536 448.765 332.344 448.765 334.328ZM441.469 334.328C441.469 332.12 441.021 330.392 440.125 329.144C439.261 327.864 438.013 327.224 436.381 327.224C434.749 327.224 433.485 327.864 432.589 329.144C431.693 330.392 431.245 332.12 431.245 334.328C431.245 336.536 431.693 338.296 432.589 339.608C433.485 340.888 434.749 341.528 436.381 341.528C438.013 341.528 439.261 340.888 440.125 339.608C441.021 338.296 441.469 336.536 441.469 334.328ZM468.177 333.608C468.177 331.304 467.873 329.672 467.265 328.712C466.689 327.752 465.681 327.272 464.241 327.272C463.793 327.272 463.329 327.304 462.849 327.368C462.369 327.4 461.905 327.448 461.457 327.512V347H454.305V322.616C454.913 322.456 455.617 322.296 456.417 322.136C457.249 321.944 458.113 321.784 459.009 321.656C459.937 321.496 460.881 321.384 461.841 321.32C462.801 321.224 463.745 321.176 464.673 321.176C466.497 321.176 467.969 321.416 469.089 321.896C470.241 322.344 471.185 322.888 471.921 323.528C472.945 322.792 474.113 322.216 475.425 321.8C476.769 321.384 478.001 321.176 479.121 321.176C481.137 321.176 482.785 321.464 484.065 322.04C485.377 322.584 486.417 323.368 487.185 324.392C487.953 325.416 488.481 326.632 488.769 328.04C489.057 329.448 489.201 331.016 489.201 332.744V347H482.049V333.608C482.049 331.304 481.745 329.672 481.137 328.712C480.561 327.752 479.553 327.272 478.113 327.272C477.729 327.272 477.185 327.368 476.481 327.56C475.809 327.752 475.249 327.992 474.801 328.28C475.025 329.016 475.169 329.8 475.233 330.632C475.297 331.432 475.329 332.296 475.329 333.224V347H468.177V333.608ZM511.872 334.568C511.872 332.36 511.376 330.6 510.384 329.288C509.392 327.944 507.92 327.272 505.968 327.272C505.328 327.272 504.736 327.304 504.192 327.368C503.648 327.4 503.2 327.448 502.848 327.512V340.424C503.296 340.712 503.872 340.952 504.576 341.144C505.312 341.336 506.048 341.432 506.784 341.432C510.176 341.432 511.872 339.144 511.872 334.568ZM519.168 334.376C519.168 336.328 518.928 338.104 518.448 339.704C517.968 341.304 517.264 342.68 516.336 343.832C515.408 344.984 514.256 345.88 512.88 346.52C511.504 347.16 509.92 347.48 508.128 347.48C507.136 347.48 506.208 347.384 505.344 347.192C504.48 347 503.648 346.728 502.848 346.376V355.88H495.696V322.616C496.336 322.424 497.072 322.248 497.904 322.088C498.736 321.896 499.6 321.736 500.496 321.608C501.424 321.48 502.352 321.384 503.28 321.32C504.24 321.224 505.152 321.176 506.016 321.176C508.096 321.176 509.952 321.496 511.584 322.136C513.216 322.744 514.592 323.624 515.712 324.776C516.832 325.896 517.68 327.272 518.256 328.904C518.864 330.536 519.168 332.36 519.168 334.376ZM548.281 334.328C548.281 336.312 547.993 338.136 547.417 339.8C546.841 341.432 546.009 342.84 544.921 344.024C543.833 345.176 542.521 346.072 540.985 346.712C539.481 347.352 537.785 347.672 535.897 347.672C534.041 347.672 532.345 347.352 530.809 346.712C529.305 346.072 528.009 345.176 526.921 344.024C525.833 342.84 524.985 341.432 524.377 339.8C523.769 338.136 523.465 336.312 523.465 334.328C523.465 332.344 523.769 330.536 524.377 328.904C525.017 327.272 525.881 325.88 526.969 324.728C528.089 323.576 529.401 322.68 530.905 322.04C532.441 321.4 534.105 321.08 535.897 321.08C537.721 321.08 539.385 321.4 540.889 322.04C542.425 322.68 543.737 323.576 544.825 324.728C545.913 325.88 546.761 327.272 547.369 328.904C547.977 330.536 548.281 332.344 548.281 334.328ZM540.985 334.328C540.985 332.12 540.537 330.392 539.641 329.144C538.777 327.864 537.529 327.224 535.897 327.224C534.265 327.224 533.001 327.864 532.105 329.144C531.209 330.392 530.761 332.12 530.761 334.328C530.761 336.536 531.209 338.296 532.105 339.608C533.001 340.888 534.265 341.528 535.897 341.528C537.529 341.528 538.777 340.888 539.641 339.608C540.537 338.296 540.985 336.536 540.985 334.328ZM561.069 341.864C562.381 341.864 563.309 341.736 563.853 341.48C564.397 341.224 564.669 340.728 564.669 339.992C564.669 339.416 564.317 338.92 563.613 338.504C562.909 338.056 561.837 337.56 560.397 337.016C559.277 336.6 558.253 336.168 557.325 335.72C556.429 335.272 555.661 334.744 555.021 334.136C554.381 333.496 553.885 332.744 553.533 331.88C553.181 331.016 553.005 329.976 553.005 328.76C553.005 326.392 553.885 324.52 555.645 323.144C557.405 321.768 559.821 321.08 562.893 321.08C564.429 321.08 565.901 321.224 567.309 321.512C568.717 321.768 569.837 322.056 570.669 322.376L569.421 327.944C568.589 327.656 567.677 327.4 566.685 327.176C565.725 326.952 564.637 326.84 563.421 326.84C561.181 326.84 560.061 327.464 560.061 328.712C560.061 329 560.109 329.256 560.205 329.48C560.301 329.704 560.493 329.928 560.781 330.152C561.069 330.344 561.453 330.568 561.933 330.824C562.445 331.048 563.085 331.304 563.853 331.592C565.421 332.168 566.717 332.744 567.741 333.32C568.765 333.864 569.565 334.472 570.141 335.144C570.749 335.784 571.165 336.504 571.389 337.304C571.645 338.104 571.773 339.032 571.773 340.088C571.773 342.584 570.829 344.472 568.941 345.752C567.085 347.032 564.445 347.672 561.021 347.672C558.781 347.672 556.909 347.48 555.405 347.096C553.933 346.712 552.909 346.392 552.333 346.136L553.533 340.328C554.749 340.808 555.997 341.192 557.277 341.48C558.557 341.736 559.821 341.864 561.069 341.864ZM575.918 334.568C575.918 332.328 576.254 330.376 576.926 328.712C577.63 327.016 578.542 325.608 579.662 324.488C580.782 323.368 582.062 322.52 583.502 321.944C584.974 321.368 586.478 321.08 588.014 321.08C591.598 321.08 594.43 322.184 596.51 324.392C598.59 326.568 599.63 329.784 599.63 334.04C599.63 334.456 599.614 334.92 599.582 335.432C599.55 335.912 599.518 336.344 599.486 336.728H583.262C583.422 338.2 584.11 339.368 585.326 340.232C586.542 341.096 588.174 341.528 590.222 341.528C591.534 341.528 592.814 341.416 594.062 341.192C595.342 340.936 596.382 340.632 597.182 340.28L598.142 346.088C597.758 346.28 597.246 346.472 596.606 346.664C595.966 346.856 595.246 347.016 594.446 347.144C593.678 347.304 592.846 347.432 591.95 347.528C591.054 347.624 590.158 347.672 589.262 347.672C586.99 347.672 585.006 347.336 583.31 346.664C581.646 345.992 580.254 345.08 579.134 343.928C578.046 342.744 577.23 341.352 576.686 339.752C576.174 338.152 575.918 336.424 575.918 334.568ZM592.718 331.832C592.686 331.224 592.574 330.632 592.382 330.056C592.222 329.48 591.95 328.968 591.566 328.52C591.214 328.072 590.75 327.704 590.174 327.416C589.63 327.128 588.942 326.984 588.11 326.984C587.31 326.984 586.622 327.128 586.046 327.416C585.47 327.672 584.99 328.024 584.606 328.472C584.222 328.92 583.918 329.448 583.694 330.056C583.502 330.632 583.358 331.224 583.262 331.832H592.718Z" fill="white"/>
<path d="M195 157L207.5 165.333V207L195 198.666V157Z" fill="white"/>
<path d="M290.834 188.25L278.334 196.583V223.666L290.834 215.333V188.25Z" fill="white"/>
<path d="M290.834 159.083L278.334 167.416V182L290.834 173.666V159.083Z" fill="white"/>
<path d="M265.834 157L253.334 165.333V207L265.834 198.666V157Z" fill="white"/>
<path d="M195 171.583L230.417 194.5V179.916L195 157V171.583Z" fill="white"/>
<path d="M265.834 171.583L230.417 194.5V179.916L265.834 157V171.583Z" fill="white"/>
<path d="M265.834 200.75L230.417 223.666V209.083L265.834 186.166V200.75Z" fill="white"/>
<path d="M290.834 217.416L255.417 240.333V225.75L290.834 202.833V217.416Z" fill="white"/>
<path d="M255.417 225.26L230.417 209.083V223.666L255.417 239.843V225.26Z" fill="white"/>
<mask id="mask0_2_33" style="mask-type:luminance" maskUnits="userSpaceOnUse" x="346" y="140" width="100" height="100">
<path d="M446 140H346V240H446V140Z" fill="white"/>
</mask>
<g mask="url(#mask0_2_33)">
<path d="M396.563 140.012C394.493 139.909 392.439 140.407 390.646 141.446L356.625 161.083C354.965 162.047 353.594 163.439 352.654 165.112L369.142 174.154C369.769 173.147 370.631 172.306 371.654 171.704L392.283 159.787C393.398 159.144 394.663 158.806 395.95 158.806C397.237 158.806 398.502 159.144 399.617 159.787L420.246 171.704C421.098 172.189 421.843 172.841 422.438 173.621L438.775 164.183C437.879 162.916 436.719 161.859 435.375 161.083L401.379 141.446C399.913 140.602 398.268 140.117 396.579 140.029L396.563 140.012ZM395.958 160.479C394.964 160.479 393.987 160.74 393.125 161.237L372.5 173.137C371.735 173.584 371.087 174.205 370.608 174.95L378.608 179.346C378.959 178.882 379.398 178.492 379.9 178.2L393.817 170.167C394.483 169.784 395.238 169.582 396.006 169.582C396.775 169.582 397.53 169.784 398.196 170.167L412.096 178.2C412.465 178.427 412.799 178.706 413.088 179.029L413.163 178.987L413.154 178.979L420.975 174.479C420.543 173.941 420.017 173.486 419.421 173.137L398.796 161.221C397.933 160.729 396.956 160.473 395.963 160.479H395.958ZM439.425 165.267L423.092 174.683C423.638 175.728 423.924 176.888 423.925 178.067V201.879C423.925 204.492 422.542 206.921 420.258 208.246L399.633 220.162C398.81 220.629 397.905 220.932 396.967 221.054V239.904C398.514 239.793 400.02 239.348 401.379 238.6L435.388 218.962C437.019 218.021 438.374 216.667 439.317 215.036C440.26 213.405 440.757 211.555 440.758 209.671V170.404C440.75 168.615 440.294 166.856 439.433 165.287L439.425 165.267ZM352.188 166.258C351.602 167.557 351.28 168.959 351.242 170.383V209.675C351.242 213.5 353.288 217.037 356.629 218.962L390.638 238.6C392.195 239.486 393.95 239.968 395.742 240V221.121C394.521 221.088 393.328 220.752 392.271 220.142L371.65 208.25C370.537 207.602 369.613 206.673 368.972 205.555C368.33 204.438 367.994 203.172 367.996 201.883V178.067C367.992 177.101 368.178 176.144 368.542 175.25L352.188 166.258ZM421.646 175.521L413.771 180.071C414.087 180.662 414.263 181.318 414.288 181.987V198.054C414.288 199.629 413.454 201.054 412.096 201.833L398.196 209.875C397.811 210.085 397.397 210.235 396.967 210.321V219.362C397.6 219.25 398.233 219.037 398.8 218.708L419.421 206.796C420.284 206.298 421 205.581 421.497 204.718C421.995 203.855 422.256 202.875 422.254 201.879V178.067C422.249 177.188 422.039 176.322 421.642 175.537L421.646 175.521ZM370.033 176.062C369.791 176.703 369.667 177.382 369.667 178.067V201.879C369.665 202.875 369.926 203.855 370.424 204.718C370.921 205.581 371.637 206.298 372.5 206.796L393.125 218.712C393.933 219.179 394.842 219.404 395.738 219.45V210.392C395.068 210.369 394.412 210.194 393.821 209.879L379.917 201.846C379.248 201.465 378.691 200.915 378.302 200.251C377.913 199.587 377.706 198.832 377.7 198.062V182.008C377.702 181.465 377.811 180.926 378.021 180.425L377.879 180.371L370.033 176.062Z" fill="white"/>
</g>
<path d="M154.792 368.984C155.368 370.04 156.024 371.352 156.76 372.92C157.528 374.456 158.312 376.136 159.112 377.96C159.944 379.752 160.76 381.592 161.56 383.48C162.36 385.368 163.112 387.144 163.816 388.808C164.52 387.144 165.272 385.368 166.072 383.48C166.872 381.592 167.672 379.752 168.472 377.96C169.304 376.136 170.088 374.456 170.824 372.92C171.592 371.352 172.264 370.04 172.84 368.984H179.656C179.976 371.192 180.264 373.672 180.52 376.424C180.808 379.144 181.048 381.992 181.24 384.968C181.464 387.912 181.656 390.872 181.816 393.848C182.008 396.824 182.168 399.624 182.296 402.248H175C174.904 399.016 174.776 395.496 174.616 391.688C174.456 387.88 174.216 384.04 173.896 380.168C173.32 381.512 172.68 383 171.976 384.632C171.272 386.264 170.568 387.896 169.864 389.528C169.192 391.16 168.536 392.728 167.896 394.232C167.256 395.704 166.712 396.968 166.264 398.024H161.032C160.584 396.968 160.04 395.704 159.4 394.232C158.76 392.728 158.088 391.16 157.384 389.528C156.712 387.896 156.024 386.264 155.32 384.632C154.616 383 153.976 381.512 153.4 380.168C153.08 384.04 152.84 387.88 152.68 391.688C152.52 395.496 152.392 399.016 152.296 402.248H145C145.128 399.624 145.272 396.824 145.432 393.848C145.624 390.872 145.816 387.912 146.008 384.968C146.232 381.992 146.472 379.144 146.728 376.424C147.016 373.672 147.32 371.192 147.64 368.984H154.792ZM198.206 397.256C198.91 397.256 199.582 397.24 200.222 397.208C200.862 397.176 201.374 397.128 201.758 397.064V391.64C201.47 391.576 201.038 391.512 200.462 391.448C199.886 391.384 199.358 391.352 198.878 391.352C198.206 391.352 197.566 391.4 196.958 391.496C196.382 391.56 195.87 391.704 195.422 391.928C194.974 392.152 194.622 392.456 194.366 392.84C194.11 393.224 193.982 393.704 193.982 394.28C193.982 395.4 194.35 396.184 195.086 396.632C195.854 397.048 196.894 397.256 198.206 397.256ZM197.63 376.328C199.742 376.328 201.502 376.568 202.91 377.048C204.318 377.528 205.438 378.216 206.27 379.112C207.134 380.008 207.742 381.096 208.094 382.376C208.446 383.656 208.622 385.08 208.622 386.648V401.528C207.598 401.752 206.174 402.008 204.35 402.296C202.526 402.616 200.318 402.776 197.726 402.776C196.094 402.776 194.606 402.632 193.262 402.344C191.95 402.056 190.814 401.592 189.854 400.952C188.894 400.28 188.158 399.416 187.646 398.36C187.134 397.304 186.878 396.008 186.878 394.472C186.878 393 187.166 391.752 187.742 390.728C188.35 389.704 189.15 388.888 190.142 388.28C191.134 387.672 192.27 387.24 193.55 386.984C194.83 386.696 196.158 386.552 197.534 386.552C198.462 386.552 199.278 386.6 199.982 386.696C200.718 386.76 201.31 386.856 201.758 386.984V386.312C201.758 385.096 201.39 384.12 200.654 383.384C199.918 382.648 198.638 382.28 196.814 382.28C195.598 382.28 194.398 382.376 193.214 382.568C192.03 382.728 191.006 382.968 190.142 383.288L189.23 377.528C189.646 377.4 190.158 377.272 190.766 377.144C191.406 376.984 192.094 376.856 192.83 376.76C193.566 376.632 194.334 376.536 195.134 376.472C195.966 376.376 196.798 376.328 197.63 376.328ZM214.85 370.712L222.002 369.56V377H230.594V382.952H222.002V391.832C222.002 393.336 222.258 394.536 222.77 395.432C223.314 396.328 224.386 396.776 225.986 396.776C226.754 396.776 227.538 396.712 228.338 396.584C229.17 396.424 229.922 396.216 230.594 395.96L231.602 401.528C230.738 401.88 229.778 402.184 228.722 402.44C227.666 402.696 226.37 402.824 224.834 402.824C222.882 402.824 221.266 402.568 219.986 402.056C218.706 401.512 217.682 400.776 216.914 399.848C216.146 398.888 215.602 397.736 215.282 396.392C214.994 395.048 214.85 393.56 214.85 391.928V370.712ZM234.28 389.816C234.28 387.576 234.616 385.624 235.288 383.96C235.992 382.264 236.904 380.856 238.024 379.736C239.144 378.616 240.424 377.768 241.864 377.192C243.336 376.616 244.84 376.328 246.376 376.328C249.96 376.328 252.792 377.432 254.872 379.64C256.952 381.816 257.992 385.032 257.992 389.288C257.992 389.704 257.976 390.168 257.944 390.68C257.912 391.16 257.88 391.592 257.848 391.976H241.624C241.784 393.448 242.472 394.616 243.688 395.48C244.904 396.344 246.536 396.776 248.584 396.776C249.896 396.776 251.176 396.664 252.424 396.44C253.704 396.184 254.744 395.88 255.544 395.528L256.504 401.336C256.12 401.528 255.608 401.72 254.968 401.912C254.328 402.104 253.608 402.264 252.808 402.392C252.04 402.552 251.208 402.68 250.312 402.776C249.416 402.872 248.52 402.92 247.624 402.92C245.352 402.92 243.368 402.584 241.672 401.912C240.008 401.24 238.616 400.328 237.496 399.176C236.408 397.992 235.592 396.6 235.048 395C234.536 393.4 234.28 391.672 234.28 389.816ZM251.08 387.08C251.048 386.472 250.936 385.88 250.744 385.304C250.584 384.728 250.312 384.216 249.928 383.768C249.576 383.32 249.112 382.952 248.536 382.664C247.992 382.376 247.304 382.232 246.472 382.232C245.672 382.232 244.984 382.376 244.408 382.664C243.832 382.92 243.352 383.272 242.968 383.72C242.584 384.168 242.28 384.696 242.056 385.304C241.864 385.88 241.72 386.472 241.624 387.08H251.08ZM278.727 383.336C278.087 383.176 277.335 383.016 276.471 382.856C275.607 382.664 274.679 382.568 273.687 382.568C273.239 382.568 272.695 382.616 272.055 382.712C271.447 382.776 270.983 382.856 270.663 382.952V402.248H263.511V378.344C264.791 377.896 266.295 377.48 268.023 377.096C269.783 376.68 271.735 376.472 273.879 376.472C274.263 376.472 274.727 376.504 275.271 376.568C275.815 376.6 276.359 376.664 276.903 376.76C277.447 376.824 277.991 376.92 278.535 377.048C279.079 377.144 279.543 377.272 279.927 377.432L278.727 383.336ZM290.913 402.248H283.761V377H290.913V402.248ZM291.585 369.704C291.585 371.016 291.153 372.056 290.289 372.824C289.457 373.56 288.465 373.928 287.313 373.928C286.161 373.928 285.153 373.56 284.289 372.824C283.457 372.056 283.041 371.016 283.041 369.704C283.041 368.392 283.457 367.368 284.289 366.632C285.153 365.864 286.161 365.48 287.313 365.48C288.465 365.48 289.457 365.864 290.289 366.632C291.153 367.368 291.585 368.392 291.585 369.704ZM307.284 397.256C307.988 397.256 308.66 397.24 309.3 397.208C309.94 397.176 310.452 397.128 310.836 397.064V391.64C310.548 391.576 310.116 391.512 309.54 391.448C308.964 391.384 308.436 391.352 307.956 391.352C307.284 391.352 306.644 391.4 306.036 391.496C305.46 391.56 304.948 391.704 304.5 391.928C304.052 392.152 303.7 392.456 303.444 392.84C303.188 393.224 303.06 393.704 303.06 394.28C303.06 395.4 303.428 396.184 304.164 396.632C304.932 397.048 305.972 397.256 307.284 397.256ZM306.708 376.328C308.82 376.328 310.58 376.568 311.988 377.048C313.396 377.528 314.516 378.216 315.348 379.112C316.212 380.008 316.82 381.096 317.172 382.376C317.524 383.656 317.7 385.08 317.7 386.648V401.528C316.676 401.752 315.252 402.008 313.428 402.296C311.604 402.616 309.396 402.776 306.804 402.776C305.172 402.776 303.684 402.632 302.34 402.344C301.028 402.056 299.892 401.592 298.932 400.952C297.972 400.28 297.236 399.416 296.724 398.36C296.212 397.304 295.956 396.008 295.956 394.472C295.956 393 296.244 391.752 296.82 390.728C297.428 389.704 298.228 388.888 299.22 388.28C300.212 387.672 301.348 387.24 302.628 386.984C303.908 386.696 305.236 386.552 306.612 386.552C307.54 386.552 308.356 386.6 309.06 386.696C309.796 386.76 310.388 386.856 310.836 386.984V386.312C310.836 385.096 310.468 384.12 309.732 383.384C308.996 382.648 307.716 382.28 305.892 382.28C304.676 382.28 303.476 382.376 302.292 382.568C301.108 382.728 300.084 382.968 299.22 383.288L298.308 377.528C298.724 377.4 299.236 377.272 299.844 377.144C300.484 376.984 301.172 376.856 301.908 376.76C302.644 376.632 303.412 376.536 304.212 376.472C305.044 376.376 305.876 376.328 306.708 376.328ZM334.248 402.728C332.168 402.696 330.472 402.472 329.16 402.056C327.88 401.64 326.856 401.064 326.088 400.328C325.352 399.56 324.84 398.648 324.552 397.592C324.296 396.504 324.168 395.288 324.168 393.944V366.152L331.32 365V392.504C331.32 393.144 331.368 393.72 331.464 394.232C331.56 394.744 331.736 395.176 331.992 395.528C332.28 395.88 332.68 396.168 333.192 396.392C333.704 396.616 334.392 396.76 335.256 396.824L334.248 402.728ZM356.982 389.432C356.982 391.64 357.478 393.416 358.47 394.76C359.462 396.104 360.934 396.776 362.886 396.776C363.526 396.776 364.118 396.76 364.662 396.728C365.206 396.664 365.654 396.6 366.006 396.536V383.528C365.558 383.24 364.966 383 364.23 382.808C363.526 382.616 362.806 382.52 362.07 382.52C358.678 382.52 356.982 384.824 356.982 389.432ZM373.158 401.432C372.518 401.624 371.782 401.816 370.95 402.008C370.118 402.168 369.238 402.312 368.31 402.44C367.414 402.568 366.486 402.664 365.526 402.728C364.598 402.824 363.702 402.872 362.838 402.872C360.758 402.872 358.902 402.568 357.27 401.96C355.638 401.352 354.262 400.488 353.142 399.368C352.022 398.216 351.158 396.84 350.55 395.24C349.974 393.608 349.686 391.784 349.686 389.768C349.686 387.72 349.942 385.88 350.454 384.248C350.966 382.584 351.702 381.176 352.662 380.024C353.622 378.872 354.79 377.992 356.166 377.384C357.574 376.776 359.174 376.472 360.966 376.472C361.958 376.472 362.838 376.568 363.606 376.76C364.406 376.952 365.206 377.224 366.006 377.576V366.152L373.158 365V401.432ZM378.655 389.816C378.655 387.576 378.991 385.624 379.663 383.96C380.367 382.264 381.279 380.856 382.399 379.736C383.519 378.616 384.799 377.768 386.239 377.192C387.711 376.616 389.215 376.328 390.751 376.328C394.335 376.328 397.167 377.432 399.247 379.64C401.327 381.816 402.367 385.032 402.367 389.288C402.367 389.704 402.351 390.168 402.319 390.68C402.287 391.16 402.255 391.592 402.223 391.976H385.999C386.159 393.448 386.847 394.616 388.063 395.48C389.279 396.344 390.911 396.776 392.959 396.776C394.271 396.776 395.551 396.664 396.799 396.44C398.079 396.184 399.119 395.88 399.919 395.528L400.879 401.336C400.495 401.528 399.983 401.72 399.343 401.912C398.703 402.104 397.983 402.264 397.183 402.392C396.415 402.552 395.583 402.68 394.687 402.776C393.791 402.872 392.895 402.92 391.999 402.92C389.727 402.92 387.743 402.584 386.047 401.912C384.383 401.24 382.991 400.328 381.871 399.176C380.783 397.992 379.967 396.6 379.423 395C378.911 393.4 378.655 391.672 378.655 389.816ZM395.455 387.08C395.423 386.472 395.311 385.88 395.119 385.304C394.959 384.728 394.687 384.216 394.303 383.768C393.951 383.32 393.487 382.952 392.911 382.664C392.367 382.376 391.679 382.232 390.847 382.232C390.047 382.232 389.359 382.376 388.783 382.664C388.207 382.92 387.727 383.272 387.343 383.72C386.959 384.168 386.655 384.696 386.431 385.304C386.239 385.88 386.095 386.472 385.999 387.08H395.455ZM415.134 397.112C416.446 397.112 417.374 396.984 417.918 396.728C418.462 396.472 418.734 395.976 418.734 395.24C418.734 394.664 418.382 394.168 417.678 393.752C416.974 393.304 415.902 392.808 414.462 392.264C413.342 391.848 412.318 391.416 411.39 390.968C410.494 390.52 409.726 389.992 409.086 389.384C408.446 388.744 407.95 387.992 407.598 387.128C407.246 386.264 407.07 385.224 407.07 384.008C407.07 381.64 407.95 379.768 409.71 378.392C411.47 377.016 413.886 376.328 416.958 376.328C418.494 376.328 419.966 376.472 421.374 376.76C422.782 377.016 423.902 377.304 424.734 377.624L423.486 383.192C422.654 382.904 421.742 382.648 420.75 382.424C419.79 382.2 418.702 382.088 417.486 382.088C415.246 382.088 414.126 382.712 414.126 383.96C414.126 384.248 414.174 384.504 414.27 384.728C414.366 384.952 414.558 385.176 414.846 385.4C415.134 385.592 415.518 385.816 415.998 386.072C416.51 386.296 417.15 386.552 417.918 386.84C419.486 387.416 420.782 387.992 421.806 388.568C422.83 389.112 423.63 389.72 424.206 390.392C424.814 391.032 425.23 391.752 425.454 392.552C425.71 393.352 425.838 394.28 425.838 395.336C425.838 397.832 424.894 399.72 423.006 401C421.15 402.28 418.51 402.92 415.086 402.92C412.846 402.92 410.974 402.728 409.47 402.344C407.998 401.96 406.974 401.64 406.398 401.384L407.598 395.576C408.814 396.056 410.062 396.44 411.342 396.728C412.622 396.984 413.886 397.112 415.134 397.112ZM438.335 402.248H431.183V377H438.335V402.248ZM439.007 369.704C439.007 371.016 438.575 372.056 437.711 372.824C436.879 373.56 435.887 373.928 434.735 373.928C433.583 373.928 432.575 373.56 431.711 372.824C430.879 372.056 430.463 371.016 430.463 369.704C430.463 368.392 430.879 367.368 431.711 366.632C432.575 365.864 433.583 365.48 434.735 365.48C435.887 365.48 436.879 365.864 437.711 366.632C438.575 367.368 439.007 368.392 439.007 369.704ZM451.154 388.808C451.154 392.808 452.77 394.808 456.002 394.808C456.738 394.808 457.426 394.712 458.066 394.52C458.706 394.328 459.25 394.104 459.698 393.848V382.424C459.346 382.36 458.93 382.312 458.45 382.28C457.97 382.216 457.41 382.184 456.77 382.184C454.882 382.184 453.474 382.808 452.546 384.056C451.618 385.304 451.154 386.888 451.154 388.808ZM466.85 399.08C466.85 403.208 465.794 406.264 463.682 408.248C461.602 410.264 458.37 411.272 453.986 411.272C452.45 411.272 450.914 411.128 449.378 410.84C447.842 410.584 446.418 410.232 445.106 409.784L446.354 403.784C447.474 404.232 448.642 404.584 449.858 404.84C451.106 405.096 452.514 405.224 454.082 405.224C456.13 405.224 457.57 404.776 458.402 403.88C459.266 402.984 459.698 401.832 459.698 400.424V399.512C458.93 399.864 458.13 400.136 457.298 400.328C456.498 400.488 455.618 400.568 454.658 400.568C451.17 400.568 448.498 399.544 446.642 397.496C444.786 395.416 443.858 392.52 443.858 388.808C443.858 386.952 444.146 385.272 444.722 383.768C445.298 382.232 446.13 380.92 447.218 379.832C448.338 378.744 449.698 377.912 451.298 377.336C452.898 376.728 454.706 376.424 456.722 376.424C457.586 376.424 458.466 376.472 459.362 376.568C460.29 376.632 461.202 376.728 462.098 376.856C462.994 376.984 463.842 377.144 464.642 377.336C465.474 377.496 466.21 377.672 466.85 377.864V399.08ZM473.558 377.864C474.774 377.512 476.342 377.192 478.262 376.904C480.182 376.584 482.198 376.424 484.31 376.424C486.454 376.424 488.23 376.712 489.638 377.288C491.078 377.832 492.214 378.616 493.046 379.64C493.878 380.664 494.47 381.88 494.822 383.288C495.174 384.696 495.35 386.264 495.35 387.992V402.248H488.198V388.856C488.198 386.552 487.894 384.92 487.286 383.96C486.678 383 485.542 382.52 483.878 382.52C483.366 382.52 482.822 382.552 482.246 382.616C481.67 382.648 481.158 382.696 480.71 382.76V402.248H473.558V377.864Z" fill="white"/>
</svg>
