<?xml version="1.0" encoding="utf-8"?>
<!-- Generator: Adobe Illustrator 24.0.2, SVG Export Plug-In . SVG Version: 6.00 Build 0)  -->
<svg version="1.1" xmlns="http://www.w3.org/2000/svg" xmlns:xlink="http://www.w3.org/1999/xlink" x="0px" y="0px" width="640px"
	 height="470px" viewBox="0 0 640 470" style="enable-background:new 0 0 640 470;" xml:space="preserve">
<style type="text/css">
	.st0{fill:#B84E91;}
	.st1{fill:#FFFFFF;}
	.st2{fill-rule:evenodd;clip-rule:evenodd;fill:#FFFFFF;}
	.st3{fill:#E6E7E8;}
	.st4{fill:url(#SVGID_1_);stroke:#FFFFFF;stroke-width:5;stroke-miterlimit:10;}
</style>
<g id="Layer_1">
	<rect y="-85" class="st0" width="640" height="640"/>
	<path class="st1" d="M151.9,120.9l8,89.9l35.9,10.1l36.1-10.1l8-89.9H151.9z M222.6,150.2h-42.1l0.9,11.3h40.3l-3.1,34l-22.4,6.2
		v0.1h-0.2l-22.6-6.3l-1.4-17.4h10.9l0.8,8.8l12.3,3.3l12.3-3.3l1.4-14.2h-38.3l-2.9-33.4h55.2L222.6,150.2z"/>
	<g id="CSS3">
		<path class="st1" d="M358.1,120.9l-8,90l-36.1,10l-36.1-10l-8-90H358.1z M289.8,178l1.5,17.4l22.7,6.4l0,0l22.6-6.3l5-56.3h-55.3
			l1,11h42.2l-1,11.3h-40.2l1,11h38.3l-1.3,14.3l-12.3,3.4l0,0l-12.3-3.3l-0.8-9H289.8z"/>
	</g>
	<g>
		<path class="st1" d="M437.6,220.9c-27.5,0-49.6-22.4-49.5-50.4c0.1-27.5,22.3-49.9,50.1-49.6c27.1,0.3,49.2,22.6,49,50.5
			C486.9,198.7,464.9,220.8,437.6,220.9z M437.5,216.9c24.8,0.1,45.4-20,45.7-45.5c0.3-26.1-20.5-46.4-45.2-46.6
			c-25.1-0.2-45.9,20.1-46.1,45.6C391.8,196.3,412.2,216.9,437.5,216.9z"/>
		<path class="st1" d="M458.1,186.8c0.6-1.9,1.2-3.7,1.8-5.6c1-3.5,2.2-7,3.3-10.4c2.3-6.8,1.4-13.2-2.7-19.1
			c-1.1-1.6-2-3.3-2.4-5.3c-0.6-3.1,1-6.2,3.7-7.4c2.9-1.2,6.4-0.2,8.1,2.4c1.4,2,1.9,4.3,2,6.7c0.4,6.1-1,11.9-3.1,17.6
			c-1.9,4.9-3.5,10-5.2,15c-1.7,4.9-3.4,9.9-5.1,14.8c-0.6,1.7-1.2,3.4-1.8,5.1c-0.3,0.8-0.7,1.1-1.6,1.2c-1.5,0.1-2.2-0.4-2.8-1.8
			c-1.7-4.2-3.1-8.5-4.7-12.7c-2.2-6-4.3-12-6.5-17.9c-0.1-0.2-0.1-0.6-0.5-0.5c-0.3,0-0.3,0.4-0.4,0.6c-1.5,4.4-3,8.8-4.5,13.2
			c-2.1,6.2-4.3,12.3-6.4,18.5c-0.2,0.4-0.4,0.7-0.9,0.6c-0.1,0-0.1,0-0.2,0c-2.6,0.1-2.6,0.1-3.4-2.4c-3.2-8.9-6.5-17.9-9.7-26.8
			c-2.6-7.2-5.2-14.5-7.9-21.7c-0.6-1.5-0.6-1.5-2.2-1.5c-0.5,0-1,0-1.5,0c-1.2-0.1-2-0.9-2-2c0-1.1,0.9-1.8,2.1-1.8
			c2.1,0,4.1-0.1,6.2-0.1c3.7,0,7.4-0.1,11-0.4c0.3,0,0.6,0,0.9,0c0.9,0,1.4,0.4,1.5,1.2c0.1,0.9-0.3,1.4-1.2,1.6
			c-1.1,0.2-2.2,0.3-3.3,0.3c-0.8,0-0.9,0.2-0.6,1c2.8,8.3,5.6,16.6,8.4,24.9c1.3,3.9,2.6,7.8,3.9,11.7c0.2,0.5,0.2,1.3,0.7,1.3
			c0.6,0,0.5-0.8,0.7-1.3c2.4-7.1,4.7-14.2,7.1-21.2c0.2-0.5,0.2-1,0-1.5c-1.7-4.7-3.4-9.3-5.1-14c-0.2-0.7-0.5-0.9-1.2-0.9
			c-0.9,0-1.7-0.1-2.6-0.2c-1.1-0.1-1.8-0.8-1.7-1.6c0.1-0.9,0.8-1.4,1.9-1.3c4.3,0.3,8.7,0.5,13,0.3c1.6-0.1,3.2-0.2,4.9-0.3
			c0.2,0,0.5,0,0.7,0c1,0,1.6,0.4,1.7,1.3c0.1,0.8-0.4,1.5-1.4,1.6c-1,0.1-2.1,0.2-3.1,0.2c-0.8,0-1,0.1-0.7,1
			c1.5,4.4,3,8.9,4.5,13.4c2.6,7.7,5.2,15.5,7.8,23.2c0.1,0.4,0.3,0.8,0.5,1.2C457.9,186.8,458,186.8,458.1,186.8z"/>
	</g>
	<g>
		<path class="st1" d="M188.8,323.9v-35.8h7.2v14.1h14.2v-14.1h7.2v35.8h-7.2v-15.6H196v15.6H188.8z"/>
		<path class="st1" d="M232.9,323.9v-29.7h-10.6v-6.1h28.4v6.1h-10.6v29.7H232.9z"/>
		<path class="st1" d="M255.3,323.9v-35.8h10.8l6.5,24.4l6.4-24.4h10.8v35.8h-6.7v-28.2l-7.1,28.2h-7l-7.1-28.2v28.2H255.3z"/>
		<path class="st1" d="M297.3,323.9v-35.5h7.2v29.5h18v6H297.3z"/>
		<path class="st1" d="M327.4,317h6.9v4.9c0,2-0.2,3.6-0.5,4.7c-0.3,1.1-1,2.2-1.9,3.1c-1,0.9-2.2,1.6-3.6,2.1l-1.3-2.8
			c1.4-0.5,2.4-1.1,3-1.9c0.6-0.8,0.9-1.9,0.9-3.3h-3.3V317z"/>
		<path class="st1" d="M378.3,310.7l7,2.2c-1.1,3.9-2.9,6.8-5.4,8.7c-2.5,1.9-5.7,2.8-9.5,2.8c-4.8,0-8.7-1.6-11.7-4.9
			c-3.1-3.2-4.6-7.7-4.6-13.3c0-6,1.5-10.6,4.6-13.9c3.1-3.3,7.1-4.9,12.1-4.9c4.4,0,7.9,1.3,10.7,3.9c1.6,1.5,2.8,3.7,3.7,6.6
			l-7.2,1.7c-0.4-1.9-1.3-3.3-2.6-4.4c-1.3-1.1-3-1.6-4.9-1.6c-2.7,0-4.8,1-6.5,2.9c-1.7,1.9-2.5,5-2.5,9.3c0,4.5,0.8,7.7,2.4,9.7
			c1.6,1.9,3.7,2.9,6.3,2.9c1.9,0,3.6-0.6,5-1.8S377.7,313.3,378.3,310.7z"/>
		<path class="st1" d="M389.7,312.2l7-0.7c0.4,2.4,1.3,4.1,2.6,5.2c1.3,1.1,3,1.7,5.2,1.7c2.3,0,4.1-0.5,5.3-1.5s1.8-2.1,1.8-3.5
			c0-0.8-0.2-1.6-0.7-2.2s-1.4-1.1-2.6-1.6c-0.8-0.3-2.8-0.8-5.8-1.6c-3.9-1-6.6-2.1-8.2-3.5c-2.2-2-3.3-4.4-3.3-7.2
			c0-1.8,0.5-3.5,1.6-5.1c1-1.6,2.5-2.8,4.5-3.6s4.3-1.2,7-1.2c4.5,0,7.9,1,10.1,3c2.3,2,3.5,4.6,3.6,7.9l-7.2,0.3
			c-0.3-1.8-1-3.2-2-4c-1-0.8-2.5-1.2-4.6-1.2c-2.1,0-3.7,0.4-4.9,1.3c-0.8,0.6-1.1,1.3-1.1,2.2c0,0.8,0.4,1.6,1.1,2.2
			c0.9,0.8,3.1,1.6,6.6,2.4s6.1,1.7,7.8,2.6c1.7,0.9,3,2.1,4,3.6c1,1.5,1.4,3.4,1.4,5.7c0,2.1-0.6,4-1.7,5.8s-2.8,3.1-4.8,4
			c-2.1,0.9-4.7,1.3-7.8,1.3c-4.5,0-8-1-10.4-3.1S390.1,316.2,389.7,312.2z"/>
		<path class="st1" d="M423,312.2l7-0.7c0.4,2.4,1.3,4.1,2.6,5.2c1.3,1.1,3,1.7,5.2,1.7c2.3,0,4.1-0.5,5.3-1.5s1.8-2.1,1.8-3.5
			c0-0.8-0.2-1.6-0.7-2.2s-1.4-1.1-2.6-1.6c-0.8-0.3-2.8-0.8-5.8-1.6c-3.9-1-6.6-2.1-8.2-3.5c-2.2-2-3.3-4.4-3.3-7.2
			c0-1.8,0.5-3.5,1.6-5.1c1-1.6,2.5-2.8,4.5-3.6s4.3-1.2,7-1.2c4.5,0,7.9,1,10.1,3c2.3,2,3.5,4.6,3.6,7.9l-7.2,0.3
			c-0.3-1.8-1-3.2-2-4c-1-0.8-2.5-1.2-4.6-1.2c-2.1,0-3.7,0.4-4.9,1.3c-0.8,0.6-1.1,1.3-1.1,2.2c0,0.8,0.4,1.6,1.1,2.2
			c0.9,0.8,3.1,1.6,6.6,2.4s6.1,1.7,7.8,2.6c1.7,0.9,3,2.1,4,3.6c1,1.5,1.4,3.4,1.4,5.7c0,2.1-0.6,4-1.7,5.8s-2.8,3.1-4.8,4
			c-2.1,0.9-4.7,1.3-7.8,1.3c-4.5,0-8-1-10.4-3.1S423.5,316.2,423,312.2z"/>
		<path class="st1" d="M198.6,379.5l-4.2,5.3c-2-1-4-2.4-5.9-4.1c-1.4,1.3-3,2.3-4.6,2.9c-1.6,0.6-3.6,0.9-5.8,0.9
			c-4.5,0-7.8-1.3-10.1-3.8c-1.7-1.9-2.6-4.2-2.6-6.7c0-2.3,0.7-4.4,2.1-6.2c1.4-1.8,3.4-3.4,6.1-4.8c-1.2-1.4-2.1-2.8-2.8-4.1
			c-0.6-1.3-0.9-2.6-0.9-3.7c0-2.2,0.9-4,2.6-5.5s4.2-2.3,7.4-2.3c3.1,0,5.5,0.8,7.3,2.4c1.7,1.6,2.6,3.5,2.6,5.8
			c0,1.4-0.4,2.8-1.3,4.1c-0.9,1.3-2.6,2.8-5.2,4.4l5,6.6c0.6-1,1.1-2.4,1.5-4.1l6.2,1.4c-0.6,2.2-1.2,3.8-1.6,4.8
			c-0.5,1-0.9,1.9-1.5,2.6c0.8,0.7,1.8,1.5,3,2.4C197.1,378.6,198,379.2,198.6,379.5z M177.2,367.5c-1.6,0.8-2.8,1.8-3.5,2.9
			s-1.2,2.3-1.2,3.4c0,1.5,0.5,2.7,1.5,3.6c1,0.9,2.3,1.4,3.9,1.4c1.1,0,2.1-0.2,3.1-0.6c1-0.4,2.1-1.1,3.2-2.1L177.2,367.5z
			 M179.9,360l1.9-1.4c1.4-1.1,2.1-2.1,2.1-3.1c0-0.9-0.3-1.6-1-2.2s-1.6-0.9-2.7-0.9c-1.1,0-1.9,0.3-2.6,0.8
			c-0.6,0.5-0.9,1.2-0.9,1.9c0,0.8,0.5,1.9,1.6,3.1L179.9,360z"/>
		<path class="st1" d="M222,383.9l-8.5-35.8h7.4l5.4,24.6l6.5-24.6h8.6l6.3,25l5.5-25h7.3l-8.7,35.8h-7.7l-7.1-26.8l-7.1,26.8H222z"
			/>
		<path class="st1" d="M261.6,370.5c0-2.3,0.6-4.5,1.7-6.6s2.7-3.8,4.8-4.9c2.1-1.1,4.4-1.7,6.9-1.7c3.9,0,7.1,1.3,9.6,3.8
			c2.5,2.5,3.8,5.8,3.8,9.7c0,3.9-1.3,7.2-3.8,9.8c-2.5,2.6-5.7,3.9-9.6,3.9c-2.4,0-4.6-0.5-6.8-1.6c-2.2-1.1-3.8-2.6-4.9-4.7
			C262.2,376,261.6,373.5,261.6,370.5z M268.6,370.9c0,2.6,0.6,4.5,1.8,5.9s2.7,2.1,4.5,2.1c1.8,0,3.3-0.7,4.5-2.1
			c1.2-1.4,1.8-3.4,1.8-6c0-2.5-0.6-4.5-1.8-5.9c-1.2-1.4-2.7-2.1-4.5-2.1c-1.8,0-3.3,0.7-4.5,2.1S268.6,368.3,268.6,370.9z"/>
		<path class="st1" d="M300.3,383.9h-6.9v-25.9h6.4v3.7c1.1-1.7,2.1-2.9,2.9-3.4c0.9-0.6,1.9-0.8,3-0.8c1.6,0,3.1,0.4,4.5,1.3
			l-2.1,6c-1.2-0.7-2.2-1.1-3.2-1.1c-1,0-1.8,0.3-2.4,0.8c-0.7,0.5-1.2,1.5-1.6,2.9c-0.4,1.4-0.6,4.3-0.6,8.7V383.9z"/>
		<path class="st1" d="M337,383.9h-6.4V380c-1.1,1.5-2.3,2.6-3.7,3.3c-1.4,0.7-2.9,1.1-4.4,1.1c-3,0-5.5-1.2-7.7-3.6
			c-2.1-2.4-3.2-5.7-3.2-10c0-4.4,1-7.7,3.1-10c2.1-2.3,4.7-3.4,7.8-3.4c2.9,0,5.4,1.2,7.5,3.6v-12.9h6.9V383.9z M318.7,370.3
			c0,2.8,0.4,4.8,1.1,6c1.1,1.8,2.7,2.7,4.6,2.7c1.6,0,2.9-0.7,4-2c1.1-1.3,1.7-3.3,1.7-6c0-3-0.5-5.1-1.6-6.4s-2.4-2-4.1-2
			c-1.6,0-3,0.6-4.1,1.9C319.2,365.8,318.7,367.8,318.7,370.3z"/>
		<path class="st1" d="M343.8,383.9v-35.8h11.6c4.4,0,7.3,0.2,8.6,0.5c2.1,0.5,3.8,1.7,5.2,3.5c1.4,1.8,2.1,4.1,2.1,7
			c0,2.2-0.4,4-1.2,5.5c-0.8,1.5-1.8,2.7-3,3.5c-1.2,0.9-2.5,1.4-3.7,1.7c-1.7,0.3-4.2,0.5-7.5,0.5H351v13.5H343.8z M351,354.1v10.2
			h4c2.8,0,4.8-0.2,5.7-0.6c1-0.4,1.7-1,2.3-1.8s0.8-1.7,0.8-2.8c0-1.3-0.4-2.4-1.1-3.2c-0.8-0.8-1.7-1.4-2.9-1.6
			c-0.9-0.2-2.6-0.2-5.2-0.2H351z"/>
		<path class="st1" d="M383.6,383.9h-6.9v-25.9h6.4v3.7c1.1-1.7,2.1-2.9,2.9-3.4c0.9-0.6,1.9-0.8,3-0.8c1.6,0,3.1,0.4,4.5,1.3
			l-2.1,6c-1.2-0.7-2.2-1.1-3.2-1.1c-1,0-1.8,0.3-2.4,0.8c-0.7,0.5-1.2,1.5-1.6,2.9c-0.4,1.4-0.6,4.3-0.6,8.7V383.9z"/>
		<path class="st1" d="M411.5,375.6l6.8,1.1c-0.9,2.5-2.3,4.4-4.2,5.7c-1.9,1.3-4.3,2-7.1,2c-4.5,0-7.8-1.5-10-4.4
			c-1.7-2.4-2.6-5.3-2.6-8.9c0-4.3,1.1-7.7,3.4-10.1s5.1-3.7,8.5-3.7c3.9,0,6.9,1.3,9.1,3.8c2.2,2.5,3.3,6.5,3.2,11.7h-17.2
			c0,2,0.6,3.6,1.7,4.7c1.1,1.1,2.4,1.7,4,1.7c1.1,0,2-0.3,2.7-0.9S411.2,376.9,411.5,375.6z M411.9,368.7c0-2-0.6-3.5-1.5-4.5
			c-1-1-2.2-1.5-3.6-1.5c-1.5,0-2.7,0.5-3.7,1.6c-1,1.1-1.5,2.6-1.4,4.4H411.9z"/>
		<path class="st1" d="M421.9,376.5l6.9-1c0.3,1.3,0.9,2.3,1.8,3c0.9,0.7,2.1,1,3.8,1c1.8,0,3.1-0.3,4-1c0.6-0.5,0.9-1.1,0.9-1.8
			c0-0.5-0.2-1-0.5-1.3c-0.3-0.3-1.1-0.6-2.3-0.9c-5.5-1.2-9-2.3-10.5-3.3c-2.1-1.4-3.1-3.3-3.1-5.8c0-2.2,0.9-4.1,2.7-5.7
			c1.8-1.5,4.5-2.3,8.3-2.3c3.5,0,6.2,0.6,7.9,1.7c1.7,1.2,2.9,2.9,3.6,5.1l-6.5,1.2c-0.3-1-0.8-1.8-1.6-2.3
			c-0.8-0.5-1.9-0.8-3.3-0.8c-1.8,0-3.1,0.3-3.9,0.8c-0.5,0.4-0.8,0.8-0.8,1.4c0,0.5,0.2,0.9,0.7,1.2c0.6,0.5,2.8,1.1,6.4,1.9
			c3.7,0.8,6.2,1.8,7.7,3.1c1.4,1.2,2.1,2.9,2.1,5.1c0,2.4-1,4.4-3,6.1c-2,1.7-4.9,2.6-8.8,2.6c-3.5,0-6.3-0.7-8.4-2.1
			C423.9,380.9,422.6,378.9,421.9,376.5z"/>
		<path class="st1" d="M449.7,376.5l6.9-1c0.3,1.3,0.9,2.3,1.8,3c0.9,0.7,2.1,1,3.8,1c1.8,0,3.1-0.3,4-1c0.6-0.5,0.9-1.1,0.9-1.8
			c0-0.5-0.2-1-0.5-1.3c-0.3-0.3-1.1-0.6-2.3-0.9c-5.5-1.2-9-2.3-10.5-3.3c-2.1-1.4-3.1-3.3-3.1-5.8c0-2.2,0.9-4.1,2.7-5.7
			c1.8-1.5,4.5-2.3,8.3-2.3c3.5,0,6.2,0.6,7.9,1.7c1.7,1.2,2.9,2.9,3.6,5.1l-6.5,1.2c-0.3-1-0.8-1.8-1.6-2.3s-1.9-0.8-3.3-0.8
			c-1.8,0-3.1,0.3-3.9,0.8c-0.5,0.4-0.8,0.8-0.8,1.4c0,0.5,0.2,0.9,0.7,1.2c0.6,0.5,2.8,1.1,6.4,1.9s6.2,1.8,7.7,3.1
			c1.4,1.2,2.1,2.9,2.1,5.1c0,2.4-1,4.4-3,6.1c-2,1.7-4.9,2.6-8.8,2.6c-3.5,0-6.3-0.7-8.4-2.1C451.7,380.9,450.4,378.9,449.7,376.5z
			"/>
	</g>
</g>
<g id="Guides">
</g>
</svg>
