<svg width="640" height="470" viewBox="0 0 640 470" fill="none" xmlns="http://www.w3.org/2000/svg">
<g clip-path="url(#clip0_2_112)">
<path d="M640 0H0V470H640V0Z" fill="#B84E91"/>
<path d="M155 313.736C155.576 314.792 156.232 316.104 156.968 317.672C157.736 319.208 158.52 320.888 159.32 322.712C160.152 324.504 160.968 326.344 161.768 328.232C162.568 330.12 163.32 331.896 164.024 333.56C164.728 331.896 165.48 330.12 166.28 328.232C167.08 326.344 167.88 324.504 168.68 322.712C169.512 320.888 170.296 319.208 171.032 317.672C171.8 316.104 172.472 314.792 173.048 313.736H179.864C180.184 315.944 180.472 318.424 180.728 321.176C181.016 323.896 181.256 326.744 181.448 329.72C181.672 332.664 181.864 335.624 182.024 338.6C182.216 341.576 182.376 344.376 182.504 347H175.208C175.112 343.768 174.984 340.248 174.824 336.44C174.664 332.632 174.424 328.792 174.104 324.92C173.528 326.264 172.888 327.752 172.184 329.384C171.48 331.016 170.776 332.648 170.072 334.28C169.4 335.912 168.744 337.48 168.104 338.984C167.464 340.456 166.92 341.72 166.472 342.776H161.24C160.792 341.72 160.248 340.456 159.608 338.984C158.968 337.48 158.296 335.912 157.592 334.28C156.92 332.648 156.232 331.016 155.528 329.384C154.824 327.752 154.184 326.264 153.608 324.92C153.288 328.792 153.048 332.632 152.888 336.44C152.728 340.248 152.6 343.768 152.504 347H145.208C145.336 344.376 145.48 341.576 145.64 338.6C145.832 335.624 146.024 332.664 146.216 329.72C146.44 326.744 146.68 323.896 146.936 321.176C147.224 318.424 147.528 315.944 147.848 313.736H155ZM198.414 342.008C199.118 342.008 199.79 341.992 200.43 341.96C201.07 341.928 201.582 341.88 201.966 341.816V336.392C201.678 336.328 201.246 336.264 200.67 336.2C200.094 336.136 199.566 336.104 199.086 336.104C198.414 336.104 197.774 336.152 197.166 336.248C196.59 336.312 196.078 336.456 195.63 336.68C195.182 336.904 194.83 337.208 194.574 337.592C194.318 337.976 194.19 338.456 194.19 339.032C194.19 340.152 194.558 340.936 195.294 341.384C196.062 341.8 197.102 342.008 198.414 342.008ZM197.838 321.08C199.95 321.08 201.71 321.32 203.118 321.8C204.526 322.28 205.646 322.968 206.478 323.864C207.342 324.76 207.95 325.848 208.302 327.128C208.654 328.408 208.83 329.832 208.83 331.4V346.28C207.806 346.504 206.382 346.76 204.558 347.048C202.734 347.368 200.526 347.528 197.934 347.528C196.302 347.528 194.814 347.384 193.47 347.096C192.158 346.808 191.022 346.344 190.062 345.704C189.102 345.032 188.366 344.168 187.854 343.112C187.342 342.056 187.086 340.76 187.086 339.224C187.086 337.752 187.374 336.504 187.95 335.48C188.558 334.456 189.358 333.64 190.35 333.032C191.342 332.424 192.478 331.992 193.758 331.736C195.038 331.448 196.366 331.304 197.742 331.304C198.67 331.304 199.486 331.352 200.19 331.448C200.926 331.512 201.518 331.608 201.966 331.736V331.064C201.966 329.848 201.598 328.872 200.862 328.136C200.126 327.4 198.846 327.032 197.022 327.032C195.806 327.032 194.606 327.128 193.422 327.32C192.238 327.48 191.214 327.72 190.35 328.04L189.438 322.28C189.854 322.152 190.366 322.024 190.974 321.896C191.614 321.736 192.302 321.608 193.038 321.512C193.774 321.384 194.542 321.288 195.342 321.224C196.174 321.128 197.006 321.08 197.838 321.08ZM215.058 315.464L222.21 314.312V321.752H230.802V327.704H222.21V336.584C222.21 338.088 222.466 339.288 222.978 340.184C223.522 341.08 224.594 341.528 226.194 341.528C226.962 341.528 227.746 341.464 228.546 341.336C229.378 341.176 230.13 340.968 230.802 340.712L231.81 346.28C230.946 346.632 229.986 346.936 228.93 347.192C227.874 347.448 226.578 347.576 225.042 347.576C223.09 347.576 221.474 347.32 220.194 346.808C218.914 346.264 217.89 345.528 217.122 344.6C216.354 343.64 215.81 342.488 215.49 341.144C215.202 339.8 215.058 338.312 215.058 336.68V315.464ZM234.488 334.568C234.488 332.328 234.824 330.376 235.496 328.712C236.2 327.016 237.112 325.608 238.232 324.488C239.352 323.368 240.632 322.52 242.072 321.944C243.544 321.368 245.048 321.08 246.584 321.08C250.168 321.08 253 322.184 255.08 324.392C257.16 326.568 258.2 329.784 258.2 334.04C258.2 334.456 258.184 334.92 258.152 335.432C258.12 335.912 258.088 336.344 258.056 336.728H241.832C241.992 338.2 242.68 339.368 243.896 340.232C245.112 341.096 246.744 341.528 248.792 341.528C250.104 341.528 251.384 341.416 252.632 341.192C253.912 340.936 254.952 340.632 255.752 340.28L256.712 346.088C256.328 346.28 255.816 346.472 255.176 346.664C254.536 346.856 253.816 347.016 253.016 347.144C252.248 347.304 251.416 347.432 250.52 347.528C249.624 347.624 248.728 347.672 247.832 347.672C245.56 347.672 243.576 347.336 241.88 346.664C240.216 345.992 238.824 345.08 237.704 343.928C236.616 342.744 235.8 341.352 235.256 339.752C234.744 338.152 234.488 336.424 234.488 334.568ZM251.288 331.832C251.256 331.224 251.144 330.632 250.952 330.056C250.792 329.48 250.52 328.968 250.136 328.52C249.784 328.072 249.32 327.704 248.744 327.416C248.2 327.128 247.512 326.984 246.68 326.984C245.88 326.984 245.192 327.128 244.616 327.416C244.04 327.672 243.56 328.024 243.176 328.472C242.792 328.92 242.488 329.448 242.264 330.056C242.072 330.632 241.928 331.224 241.832 331.832H251.288ZM278.935 328.088C278.295 327.928 277.543 327.768 276.679 327.608C275.815 327.416 274.887 327.32 273.895 327.32C273.447 327.32 272.903 327.368 272.263 327.464C271.655 327.528 271.191 327.608 270.871 327.704V347H263.719V323.096C264.999 322.648 266.503 322.232 268.231 321.848C269.991 321.432 271.943 321.224 274.087 321.224C274.471 321.224 274.935 321.256 275.479 321.32C276.023 321.352 276.567 321.416 277.111 321.512C277.655 321.576 278.199 321.672 278.743 321.8C279.287 321.896 279.751 322.024 280.135 322.184L278.935 328.088ZM291.121 347H283.969V321.752H291.121V347ZM291.793 314.456C291.793 315.768 291.361 316.808 290.497 317.576C289.665 318.312 288.673 318.68 287.521 318.68C286.369 318.68 285.361 318.312 284.497 317.576C283.665 316.808 283.249 315.768 283.249 314.456C283.249 313.144 283.665 312.12 284.497 311.384C285.361 310.616 286.369 310.232 287.521 310.232C288.673 310.232 289.665 310.616 290.497 311.384C291.361 312.12 291.793 313.144 291.793 314.456ZM307.492 342.008C308.196 342.008 308.868 341.992 309.508 341.96C310.148 341.928 310.66 341.88 311.044 341.816V336.392C310.756 336.328 310.324 336.264 309.748 336.2C309.172 336.136 308.644 336.104 308.164 336.104C307.492 336.104 306.852 336.152 306.244 336.248C305.668 336.312 305.156 336.456 304.708 336.68C304.26 336.904 303.908 337.208 303.652 337.592C303.396 337.976 303.268 338.456 303.268 339.032C303.268 340.152 303.636 340.936 304.372 341.384C305.14 341.8 306.18 342.008 307.492 342.008ZM306.916 321.08C309.028 321.08 310.788 321.32 312.196 321.8C313.604 322.28 314.724 322.968 315.556 323.864C316.42 324.76 317.028 325.848 317.38 327.128C317.732 328.408 317.908 329.832 317.908 331.4V346.28C316.884 346.504 315.46 346.76 313.636 347.048C311.812 347.368 309.604 347.528 307.012 347.528C305.38 347.528 303.892 347.384 302.548 347.096C301.236 346.808 300.1 346.344 299.14 345.704C298.18 345.032 297.444 344.168 296.932 343.112C296.42 342.056 296.164 340.76 296.164 339.224C296.164 337.752 296.452 336.504 297.028 335.48C297.636 334.456 298.436 333.64 299.428 333.032C300.42 332.424 301.556 331.992 302.836 331.736C304.116 331.448 305.444 331.304 306.82 331.304C307.748 331.304 308.564 331.352 309.268 331.448C310.004 331.512 310.596 331.608 311.044 331.736V331.064C311.044 329.848 310.676 328.872 309.94 328.136C309.204 327.4 307.924 327.032 306.1 327.032C304.884 327.032 303.684 327.128 302.5 327.32C301.316 327.48 300.292 327.72 299.428 328.04L298.516 322.28C298.932 322.152 299.444 322.024 300.052 321.896C300.692 321.736 301.38 321.608 302.116 321.512C302.852 321.384 303.62 321.288 304.42 321.224C305.252 321.128 306.084 321.08 306.916 321.08ZM334.456 347.48C332.376 347.448 330.68 347.224 329.368 346.808C328.088 346.392 327.064 345.816 326.296 345.08C325.56 344.312 325.048 343.4 324.76 342.344C324.504 341.256 324.376 340.04 324.376 338.696V310.904L331.528 309.752V337.256C331.528 337.896 331.576 338.472 331.672 338.984C331.768 339.496 331.944 339.928 332.2 340.28C332.488 340.632 332.888 340.92 333.4 341.144C333.912 341.368 334.6 341.512 335.464 341.576L334.456 347.48ZM357.19 334.184C357.19 336.392 357.686 338.168 358.678 339.512C359.67 340.856 361.142 341.528 363.094 341.528C363.734 341.528 364.326 341.512 364.87 341.48C365.414 341.416 365.862 341.352 366.214 341.288V328.28C365.766 327.992 365.174 327.752 364.438 327.56C363.734 327.368 363.014 327.272 362.278 327.272C358.886 327.272 357.19 329.576 357.19 334.184ZM373.366 346.184C372.726 346.376 371.99 346.568 371.158 346.76C370.326 346.92 369.446 347.064 368.518 347.192C367.622 347.32 366.694 347.416 365.734 347.48C364.806 347.576 363.91 347.624 363.046 347.624C360.966 347.624 359.11 347.32 357.478 346.712C355.846 346.104 354.47 345.24 353.35 344.12C352.23 342.968 351.366 341.592 350.758 339.992C350.182 338.36 349.894 336.536 349.894 334.52C349.894 332.472 350.15 330.632 350.662 329C351.174 327.336 351.91 325.928 352.87 324.776C353.83 323.624 354.998 322.744 356.374 322.136C357.782 321.528 359.382 321.224 361.174 321.224C362.166 321.224 363.046 321.32 363.814 321.512C364.614 321.704 365.414 321.976 366.214 322.328V310.904L373.366 309.752V346.184ZM378.863 334.568C378.863 332.328 379.199 330.376 379.871 328.712C380.575 327.016 381.487 325.608 382.607 324.488C383.727 323.368 385.007 322.52 386.447 321.944C387.919 321.368 389.423 321.08 390.959 321.08C394.543 321.08 397.375 322.184 399.455 324.392C401.535 326.568 402.575 329.784 402.575 334.04C402.575 334.456 402.559 334.92 402.527 335.432C402.495 335.912 402.463 336.344 402.431 336.728H386.207C386.367 338.2 387.055 339.368 388.271 340.232C389.487 341.096 391.119 341.528 393.167 341.528C394.479 341.528 395.759 341.416 397.007 341.192C398.287 340.936 399.327 340.632 400.127 340.28L401.087 346.088C400.703 346.28 400.191 346.472 399.551 346.664C398.911 346.856 398.191 347.016 397.391 347.144C396.623 347.304 395.791 347.432 394.895 347.528C393.999 347.624 393.103 347.672 392.207 347.672C389.935 347.672 387.951 347.336 386.255 346.664C384.591 345.992 383.199 345.08 382.079 343.928C380.991 342.744 380.175 341.352 379.631 339.752C379.119 338.152 378.863 336.424 378.863 334.568ZM395.663 331.832C395.631 331.224 395.519 330.632 395.327 330.056C395.167 329.48 394.895 328.968 394.511 328.52C394.159 328.072 393.695 327.704 393.119 327.416C392.575 327.128 391.887 326.984 391.055 326.984C390.255 326.984 389.567 327.128 388.991 327.416C388.415 327.672 387.935 328.024 387.551 328.472C387.167 328.92 386.863 329.448 386.639 330.056C386.447 330.632 386.303 331.224 386.207 331.832H395.663ZM415.342 341.864C416.654 341.864 417.582 341.736 418.126 341.48C418.67 341.224 418.942 340.728 418.942 339.992C418.942 339.416 418.59 338.92 417.886 338.504C417.182 338.056 416.11 337.56 414.67 337.016C413.55 336.6 412.526 336.168 411.598 335.72C410.702 335.272 409.934 334.744 409.294 334.136C408.654 333.496 408.158 332.744 407.806 331.88C407.454 331.016 407.278 329.976 407.278 328.76C407.278 326.392 408.158 324.52 409.918 323.144C411.678 321.768 414.094 321.08 417.166 321.08C418.702 321.08 420.174 321.224 421.582 321.512C422.99 321.768 424.11 322.056 424.942 322.376L423.694 327.944C422.862 327.656 421.95 327.4 420.958 327.176C419.998 326.952 418.91 326.84 417.694 326.84C415.454 326.84 414.334 327.464 414.334 328.712C414.334 329 414.382 329.256 414.478 329.48C414.574 329.704 414.766 329.928 415.054 330.152C415.342 330.344 415.726 330.568 416.206 330.824C416.718 331.048 417.358 331.304 418.126 331.592C419.694 332.168 420.99 332.744 422.014 333.32C423.038 333.864 423.838 334.472 424.414 335.144C425.022 335.784 425.438 336.504 425.662 337.304C425.918 338.104 426.046 339.032 426.046 340.088C426.046 342.584 425.102 344.472 423.214 345.752C421.358 347.032 418.718 347.672 415.294 347.672C413.054 347.672 411.182 347.48 409.678 347.096C408.206 346.712 407.182 346.392 406.606 346.136L407.806 340.328C409.022 340.808 410.27 341.192 411.55 341.48C412.83 341.736 414.094 341.864 415.342 341.864ZM438.543 347H431.391V321.752H438.543V347ZM439.215 314.456C439.215 315.768 438.783 316.808 437.919 317.576C437.087 318.312 436.095 318.68 434.943 318.68C433.791 318.68 432.783 318.312 431.919 317.576C431.087 316.808 430.671 315.768 430.671 314.456C430.671 313.144 431.087 312.12 431.919 311.384C432.783 310.616 433.791 310.232 434.943 310.232C436.095 310.232 437.087 310.616 437.919 311.384C438.783 312.12 439.215 313.144 439.215 314.456ZM451.362 333.56C451.362 337.56 452.978 339.56 456.21 339.56C456.946 339.56 457.634 339.464 458.274 339.272C458.914 339.08 459.458 338.856 459.906 338.6V327.176C459.554 327.112 459.138 327.064 458.658 327.032C458.178 326.968 457.618 326.936 456.978 326.936C455.09 326.936 453.682 327.56 452.754 328.808C451.826 330.056 451.362 331.64 451.362 333.56ZM467.058 343.832C467.058 347.96 466.002 351.016 463.89 353C461.81 355.016 458.578 356.024 454.194 356.024C452.658 356.024 451.122 355.88 449.586 355.592C448.05 355.336 446.626 354.984 445.314 354.536L446.562 348.536C447.682 348.984 448.85 349.336 450.066 349.592C451.314 349.848 452.722 349.976 454.29 349.976C456.338 349.976 457.778 349.528 458.61 348.632C459.474 347.736 459.906 346.584 459.906 345.176V344.264C459.138 344.616 458.338 344.888 457.506 345.08C456.706 345.24 455.826 345.32 454.866 345.32C451.378 345.32 448.706 344.296 446.85 342.248C444.994 340.168 444.066 337.272 444.066 333.56C444.066 331.704 444.354 330.024 444.93 328.52C445.506 326.984 446.338 325.672 447.426 324.584C448.546 323.496 449.906 322.664 451.506 322.088C453.106 321.48 454.914 321.176 456.93 321.176C457.794 321.176 458.674 321.224 459.57 321.32C460.498 321.384 461.41 321.48 462.306 321.608C463.202 321.736 464.05 321.896 464.85 322.088C465.682 322.248 466.418 322.424 467.058 322.616V343.832ZM473.766 322.616C474.982 322.264 476.55 321.944 478.47 321.656C480.39 321.336 482.406 321.176 484.518 321.176C486.662 321.176 488.438 321.464 489.846 322.04C491.286 322.584 492.422 323.368 493.254 324.392C494.086 325.416 494.678 326.632 495.03 328.04C495.382 329.448 495.558 331.016 495.558 332.744V347H488.406V333.608C488.406 331.304 488.102 329.672 487.494 328.712C486.886 327.752 485.75 327.272 484.086 327.272C483.574 327.272 483.03 327.304 482.454 327.368C481.878 327.4 481.366 327.448 480.918 327.512V347H473.766V322.616Z" fill="white"/>
<path d="M272.083 150.417L284.583 158.75V200.417L272.083 192.083V150.417Z" fill="white"/>
<path d="M367.917 181.667L355.417 190V217.083L367.917 208.75V181.667Z" fill="white"/>
<path d="M367.917 152.5L355.417 160.833V175.417L367.917 167.083V152.5Z" fill="white"/>
<path d="M342.917 150.417L330.417 158.75V200.417L342.917 192.083V150.417Z" fill="white"/>
<path d="M272.083 165L307.5 187.917V173.333L272.083 150.417V165Z" fill="white"/>
<path d="M342.917 165L307.5 187.917V173.333L342.917 150.417V165Z" fill="white"/>
<path d="M342.917 194.167L307.5 217.083V202.5L342.917 179.583V194.167Z" fill="white"/>
<path d="M367.917 210.833L332.5 233.75V219.167L367.917 196.25V210.833Z" fill="white"/>
<path d="M332.5 218.677L307.5 202.5V217.083L332.5 233.26V218.677Z" fill="white"/>
</g>
<defs>
<clipPath id="clip0_2_112">
<rect width="640" height="470" fill="white"/>
</clipPath>
</defs>
</svg>
