<?xml version="1.0" encoding="utf-8"?>
<!-- Generator: Adobe Illustrator 24.0.2, SVG Export Plug-In . SVG Version: 6.00 Build 0)  -->
<svg version="1.1" xmlns="http://www.w3.org/2000/svg" xmlns:xlink="http://www.w3.org/1999/xlink" x="0px" y="0px" width="640px"
	 height="470px" viewBox="0 0 640 470" style="enable-background:new 0 0 640 470;" xml:space="preserve">
<style type="text/css">
	.st0{fill:#B84E91;}
	.st1{fill:#FFFFFF;}
	.st2{fill-rule:evenodd;clip-rule:evenodd;fill:#FFFFFF;}
	.st3{fill:#E6E7E8;}
	.st4{fill:url(#SVGID_1_);stroke:#FFFFFF;stroke-width:5;stroke-miterlimit:10;}
</style>
<g id="Layer_1">
	<rect y="-85" class="st0" width="640" height="640"/>
	<path class="st2" d="M238.7,125.3c-28.3,0-51.3,23-51.3,51.3c0,22.6,14.7,41.9,35.1,48.6c2.6,0.5,3.4-1.1,3.4-2.4
		c0-1.2,0-4.6,0-8.9c-14.3,3.1-17.2-6.8-17.2-6.8c-2.3-5.9-5.7-7.5-5.7-7.5c-4.7-3.2,0.3-3.1,0.3-3.1c5.1,0.4,7.9,5.3,7.9,5.3
		c4.6,7.8,12,5.6,14.9,4.3c0.5-3.3,1.8-5.6,3.3-6.9C218,198,206,193.6,206,173.9c0-5.6,2-10.2,5.3-13.8c-0.5-1.3-2.3-6.5,0.5-13.6
		c0,0,4.3-1.4,14.1,5.3c4.1-1.1,8.5-1.7,12.8-1.7c4.4,0,8.7,0.6,12.8,1.7c9.8-6.6,14.1-5.3,14.1-5.3c2.8,7.1,1,12.3,0.5,13.6
		c3.3,3.6,5.3,8.2,5.3,13.8c0,19.7-12,24-23.4,25.3c1.8,1.6,3.5,4.7,3.5,9.4c0,6.4,0,12.5,0,14.2c0,1.4,0.8,2.9,3.4,2.4
		c20.4-6.8,35-26,35-48.6C290,148.3,267,125.3,238.7,125.3z"/>
	<path class="st1" d="M448.1,170.9l-43.7-43.7c-2.5-2.5-6.6-2.5-9.1,0l-9.1,9.1l11.5,11.5c6-2,11.8,3.7,9.7,9.8l11.1,11.1
		c7.6-2.6,13.7,6.9,7.9,12.7c-5.9,5.9-15.7-0.6-12.5-8.3l-10.3-10.3v27.2c5.6,2.8,5,9.3,2,12.3c-3,3-7.8,3-10.8,0
		c-3.9-3.9-2.5-10.5,2.5-12.5v-27.5c-4.6-1.9-5.5-6.9-4.2-10l-11.3-11.4l-29.9,29.9c-2.5,2.5-2.5,6.6,0,9.1l43.7,43.7
		c2.5,2.5,6.6,2.5,9.1,0l43.5-43.5C450.6,177.5,450.6,173.4,448.1,170.9L448.1,170.9z"/>
	<g>
		<path class="st1" d="M305.6,315.1v-6h15.6v14.3c-1.5,1.5-3.7,2.8-6.6,3.9c-2.9,1.1-5.8,1.7-8.7,1.7c-3.7,0-7-0.8-9.8-2.4
			s-4.9-3.8-6.3-6.7c-1.4-2.9-2.1-6.1-2.1-9.5c0-3.7,0.8-7,2.3-9.9c1.6-2.9,3.8-5.1,6.9-6.7c2.3-1.2,5.2-1.8,8.6-1.8
			c4.4,0,7.9,0.9,10.4,2.8c2.5,1.9,4.1,4.4,4.8,7.7l-7.2,1.3c-0.5-1.8-1.5-3.1-2.8-4.2s-3.1-1.5-5.2-1.5c-3.2,0-5.7,1-7.5,3
			c-1.9,2-2.8,5-2.8,8.9c0,4.2,0.9,7.4,2.8,9.6c1.9,2.1,4.4,3.2,7.4,3.2c1.5,0,3-0.3,4.6-0.9c1.5-0.6,2.8-1.3,3.9-2.2v-4.5H305.6z"
			/>
		<path class="st1" d="M327.8,298.8v-6.3h6.9v6.3H327.8z M327.8,328.2v-25.9h6.9v25.9H327.8z"/>
		<path class="st1" d="M353.5,302.3v5.5h-4.7v10.4c0,2.1,0,3.3,0.1,3.7c0.1,0.3,0.3,0.6,0.6,0.9c0.3,0.2,0.7,0.3,1.2,0.3
			c0.6,0,1.6-0.2,2.8-0.7l0.6,5.3c-1.6,0.7-3.4,1-5.4,1c-1.2,0-2.4-0.2-3.3-0.6c-1-0.4-1.7-1-2.2-1.6s-0.8-1.6-1-2.7
			c-0.1-0.8-0.2-2.4-0.2-4.8v-11.3h-3.1v-5.5h3.1v-5.2l6.9-4v9.2H353.5z"/>
	</g>
</g>
<g id="Guides">
</g>
</svg>
