<?xml version="1.0" encoding="utf-8"?>
<!-- Generator: Adobe Illustrator 24.0.2, SVG Export Plug-In . SVG Version: 6.00 Build 0)  -->
<svg version="1.1" xmlns="http://www.w3.org/2000/svg" xmlns:xlink="http://www.w3.org/1999/xlink" x="0px" y="0px" width="640px"
	 height="470px" viewBox="0 0 640 470" style="enable-background:new 0 0 640 470;" xml:space="preserve">
<style type="text/css">
	.st0{fill:#B84E91;}
	.st1{fill:#FFFFFF;}
	.st2{fill-rule:evenodd;clip-rule:evenodd;fill:#FFFFFF;}
	.st3{fill:#E6E7E8;}
	.st4{fill:url(#SVGID_1_);stroke:#FFFFFF;stroke-width:5;stroke-miterlimit:10;}
</style>
<g id="Layer_1">
	<rect y="-85" class="st0" width="640" height="640"/>
	<path class="st1" d="M220.6,186.4c0,0-5.3,3.1,3.8,4.1c10.9,1.3,16.5,1.1,28.6-1.2c0,0,3.2,2,7.6,3.7
		C233.5,204.5,199.4,192.3,220.6,186.4 M217.3,171.3c0,0-5.9,4.4,3.1,5.3c11.7,1.2,20.9,1.3,36.9-1.8c0,0,2.2,2.2,5.7,3.5
		C230.3,187.8,193.9,179,217.3,171.3 M245.1,145.6c6.7,7.7-1.7,14.6-1.7,14.6s16.9-8.7,9.1-19.6c-7.2-10.2-12.8-15.2,17.3-32.7
		C269.8,107.8,222.6,119.6,245.1,145.6 M280.8,197.5c0,0,3.9,3.2-4.3,5.7c-15.6,4.7-64.9,6.1-78.6,0.2c-4.9-2.1,4.3-5.1,7.2-5.7
		c3-0.7,4.8-0.5,4.8-0.5c-5.5-3.9-35.4,7.6-15.2,10.8C249.8,216.9,295.1,204,280.8,197.5 M223.1,155.6c0,0-25.1,6-8.9,8.1
		c6.8,0.9,20.5,0.7,33.2-0.4c10.4-0.9,20.8-2.7,20.8-2.7s-3.7,1.6-6.3,3.4c-25.5,6.7-74.6,3.6-60.5-3.3
		C213.4,154.9,223.1,155.6,223.1,155.6 M268.1,180.7c25.9-13.5,13.9-26.4,5.6-24.6c-2,0.4-3,0.8-3,0.8s0.8-1.2,2.2-1.7
		c16.5-5.8,29.2,17.1-5.3,26.2C267.6,181.4,268,181.1,268.1,180.7 M252.5,79.7c0,0,14.3,14.3-13.6,36.4c-22.4,17.7-5.1,27.8,0,39.3
		c-13.1-11.8-22.7-22.2-16.2-31.8C232.1,109.3,258.3,102.4,252.5,79.7 M225.7,217.2c24.8,1.6,63-0.9,63.9-12.6c0,0-1.7,4.5-20.5,8
		c-21.2,4-47.4,3.5-62.9,1C206.2,213.5,209.4,216.1,225.7,217.2"/>
	<path class="st1" d="M355.4,217.6l47.1-47.9l47.5,47.9H355.4z M350,117.6h50l-50,52.1V117.6z M405.8,117.6L350,176v41.7l50-50
		l50-50H405.8z"/>
	<g>
		<path class="st1" d="M178.2,283.8h7.2v22.7c0,3-0.3,5.2-0.8,6.8c-0.7,2.1-2,3.8-3.8,5c-1.8,1.3-4.3,1.9-7.3,1.9
			c-3.5,0-6.3-1-8.2-3s-2.9-4.9-2.9-8.7l6.8-0.8c0.1,2.1,0.4,3.5,0.9,4.3c0.8,1.3,2,1.9,3.6,1.9c1.6,0,2.8-0.5,3.4-1.4
			c0.7-0.9,1-2.8,1-5.7V283.8z"/>
		<path class="st1" d="M198.2,301.6l-6.2-1.1c0.7-2.5,1.9-4.4,3.6-5.6c1.7-1.2,4.2-1.8,7.6-1.8c3.1,0,5.3,0.4,6.8,1.1
			c1.5,0.7,2.6,1.6,3.2,2.8c0.6,1.1,0.9,3.2,0.9,6.1l-0.1,8c0,2.3,0.1,4,0.3,5c0.2,1.1,0.6,2.2,1.2,3.5h-6.8c-0.2-0.5-0.4-1.1-0.7-2
			c-0.1-0.4-0.2-0.7-0.2-0.8c-1.2,1.1-2.4,2-3.8,2.6c-1.3,0.6-2.8,0.9-4.3,0.9c-2.7,0-4.8-0.7-6.3-2.2c-1.5-1.4-2.3-3.3-2.3-5.5
			c0-1.5,0.3-2.8,1-3.9c0.7-1.1,1.7-2,2.9-2.6c1.3-0.6,3.1-1.1,5.5-1.6c3.2-0.6,5.4-1.2,6.7-1.7V302c0-1.3-0.3-2.3-1-2.8
			c-0.7-0.6-1.9-0.8-3.7-0.8c-1.2,0-2.2,0.2-2.9,0.7C199.1,299.5,198.6,300.4,198.2,301.6z M207.3,307.1c-0.9,0.3-2.3,0.6-4.2,1
			c-1.9,0.4-3.1,0.8-3.7,1.2c-0.9,0.6-1.3,1.4-1.3,2.4c0,1,0.4,1.8,1.1,2.5c0.7,0.7,1.6,1,2.7,1c1.2,0,2.4-0.4,3.5-1.2
			c0.8-0.6,1.4-1.4,1.6-2.3c0.2-0.6,0.3-1.7,0.3-3.3V307.1z"/>
		<path class="st1" d="M228,319.6l-10.4-25.9h7.2l4.9,13.2l1.4,4.4c0.4-1.1,0.6-1.9,0.7-2.2c0.2-0.7,0.5-1.5,0.7-2.2l4.9-13.2h7.1
			l-10.3,25.9H228z"/>
		<path class="st1" d="M253.8,301.6l-6.2-1.1c0.7-2.5,1.9-4.4,3.6-5.6c1.7-1.2,4.2-1.8,7.6-1.8c3.1,0,5.3,0.4,6.8,1.1
			c1.5,0.7,2.6,1.6,3.2,2.8c0.6,1.1,0.9,3.2,0.9,6.1l-0.1,8c0,2.3,0.1,4,0.3,5c0.2,1.1,0.6,2.2,1.2,3.5h-6.8c-0.2-0.5-0.4-1.1-0.7-2
			c-0.1-0.4-0.2-0.7-0.2-0.8c-1.2,1.1-2.4,2-3.8,2.6c-1.3,0.6-2.8,0.9-4.3,0.9c-2.7,0-4.8-0.7-6.3-2.2c-1.5-1.4-2.3-3.3-2.3-5.5
			c0-1.5,0.3-2.8,1-3.9c0.7-1.1,1.7-2,2.9-2.6c1.3-0.6,3.1-1.1,5.5-1.6c3.2-0.6,5.4-1.2,6.7-1.7V302c0-1.3-0.3-2.3-1-2.8
			c-0.7-0.6-1.9-0.8-3.7-0.8c-1.2,0-2.2,0.2-2.9,0.7C254.7,299.5,254.2,300.4,253.8,301.6z M262.9,307.1c-0.9,0.3-2.3,0.6-4.2,1
			c-1.9,0.4-3.1,0.8-3.7,1.2c-0.9,0.6-1.3,1.4-1.3,2.4c0,1,0.4,1.8,1.1,2.5c0.7,0.7,1.6,1,2.7,1c1.2,0,2.4-0.4,3.5-1.2
			c0.8-0.6,1.4-1.4,1.6-2.3c0.2-0.6,0.3-1.7,0.3-3.3V307.1z"/>
		<path class="st1" d="M322.1,315.2l-4.2,5.3c-2-1-4-2.4-5.9-4.1c-1.4,1.3-3,2.3-4.6,2.9c-1.6,0.6-3.6,0.9-5.8,0.9
			c-4.5,0-7.8-1.3-10.1-3.8c-1.7-1.9-2.6-4.2-2.6-6.7c0-2.3,0.7-4.4,2.1-6.2s3.4-3.4,6.1-4.8c-1.2-1.4-2.1-2.8-2.8-4.1
			c-0.6-1.3-0.9-2.6-0.9-3.7c0-2.2,0.9-4,2.6-5.5c1.7-1.5,4.2-2.3,7.4-2.3c3.1,0,5.5,0.8,7.3,2.4c1.7,1.6,2.6,3.5,2.6,5.8
			c0,1.4-0.4,2.8-1.3,4.1c-0.9,1.3-2.6,2.8-5.2,4.4l5,6.6c0.6-1,1.1-2.4,1.5-4.1l6.2,1.4c-0.6,2.2-1.2,3.8-1.6,4.8
			c-0.5,1-0.9,1.9-1.5,2.6c0.8,0.7,1.8,1.5,3,2.4C320.6,314.4,321.5,314.9,322.1,315.2z M300.7,303.2c-1.6,0.8-2.8,1.8-3.5,2.9
			s-1.2,2.3-1.2,3.4c0,1.5,0.5,2.7,1.5,3.6c1,0.9,2.3,1.4,3.9,1.4c1.1,0,2.1-0.2,3.1-0.6c1-0.4,2.1-1.1,3.2-2.1L300.7,303.2z
			 M303.4,295.8l1.9-1.4c1.4-1.1,2.1-2.1,2.1-3.1c0-0.9-0.3-1.6-1-2.2c-0.7-0.6-1.6-0.9-2.7-0.9c-1.1,0-1.9,0.3-2.6,0.8
			c-0.6,0.5-0.9,1.2-0.9,1.9c0,0.8,0.5,1.9,1.6,3.1L303.4,295.8z"/>
		<path class="st1" d="M340.5,319.6v-35.8h7.2v15.9l14.6-15.9h9.7l-13.5,13.9l14.2,21.9h-9.4l-9.8-16.8l-5.9,6v10.8H340.5z"/>
		<path class="st1" d="M374.9,306.3c0-2.3,0.6-4.5,1.7-6.6c1.1-2.1,2.7-3.8,4.8-4.9c2.1-1.1,4.4-1.7,6.9-1.7c3.9,0,7.1,1.3,9.6,3.8
			c2.5,2.5,3.8,5.8,3.8,9.7c0,3.9-1.3,7.2-3.8,9.8c-2.5,2.6-5.7,3.9-9.6,3.9c-2.4,0-4.6-0.5-6.8-1.6c-2.2-1.1-3.8-2.6-4.9-4.7
			S374.9,309.2,374.9,306.3z M381.9,306.6c0,2.6,0.6,4.5,1.8,5.9s2.7,2.1,4.5,2.1c1.8,0,3.3-0.7,4.5-2.1c1.2-1.4,1.8-3.4,1.8-6
			c0-2.5-0.6-4.5-1.8-5.9c-1.2-1.4-2.7-2.1-4.5-2.1c-1.8,0-3.3,0.7-4.5,2.1S381.9,304.1,381.9,306.6z"/>
		<path class="st1" d="M418.9,293.7v5.5h-4.7v10.4c0,2.1,0,3.3,0.1,3.7c0.1,0.4,0.3,0.6,0.6,0.9c0.3,0.2,0.7,0.3,1.2,0.3
			c0.6,0,1.6-0.2,2.8-0.7l0.6,5.3c-1.6,0.7-3.4,1-5.4,1c-1.2,0-2.4-0.2-3.3-0.6c-1-0.4-1.7-1-2.2-1.6s-0.8-1.6-1-2.7
			c-0.1-0.8-0.2-2.4-0.2-4.8v-11.3h-3.1v-5.5h3.1v-5.2l6.9-4v9.2H418.9z"/>
		<path class="st1" d="M423.6,319.6v-35.8h6.9v35.8H423.6z"/>
		<path class="st1" d="M437.5,290.1v-6.3h6.9v6.3H437.5z M437.5,319.6v-25.9h6.9v25.9H437.5z"/>
		<path class="st1" d="M475,319.6h-6.9v-13.2c0-2.8-0.1-4.6-0.4-5.4c-0.3-0.8-0.8-1.5-1.4-1.9c-0.7-0.5-1.5-0.7-2.4-0.7
			c-1.2,0-2.3,0.3-3.2,1c-0.9,0.7-1.6,1.5-1.9,2.6c-0.4,1.1-0.5,3.1-0.5,6v11.7h-6.9v-25.9h6.4v3.8c2.3-2.9,5.1-4.4,8.5-4.4
			c1.5,0,2.9,0.3,4.2,0.8c1.3,0.5,2.2,1.2,2.8,2.1c0.6,0.8,1.1,1.8,1.3,2.9c0.3,1.1,0.4,2.6,0.4,4.6V319.6z"/>
	</g>
</g>
<g id="Guides">
</g>
</svg>
