<?xml version="1.0" encoding="utf-8"?>
<!-- Generator: Adobe Illustrator 24.0.2, SVG Export Plug-In . SVG Version: 6.00 Build 0)  -->
<svg version="1.1" xmlns="http://www.w3.org/2000/svg" xmlns:xlink="http://www.w3.org/1999/xlink" x="0px" y="0px" width="640px"
	 height="470px" viewBox="0 0 640 470" style="enable-background:new 0 0 640 470;" xml:space="preserve">
<style type="text/css">
	.st0{fill:#B84E91;}
	.st1{fill:#FFFFFF;}
	.st2{fill-rule:evenodd;clip-rule:evenodd;fill:#FFFFFF;}
	.st3{fill:#E6E7E8;}
	.st4{fill:url(#SVGID_1_);stroke:#FFFFFF;stroke-width:5;stroke-miterlimit:10;}
</style>
<g id="Layer_1">
	<rect x="0" y="-85" class="st0" width="640" height="640"/>
	<g>
		<linearGradient id="SVGID_1_" gradientUnits="userSpaceOnUse" x1="307.6496" y1="214.2935" x2="307.6496" y2="129.7303">
			<stop  offset="0.1788" style="stop-color:#FFFFFF"/>
			<stop  offset="1" style="stop-color:#FFFFFF;stop-opacity:0"/>
		</linearGradient>
		<path class="st4" d="M275.1,208.1c0-24,0-48,0-72.1c0.1-0.1,0.2-0.2,0.2-0.4c1-3.7,3.9-5.9,7.7-5.9c18.7,0,37.5,0,56.2,0
			c0.3,0,0.5,0.1,0.9,0.1c-0.4,0.5-0.7,0.8-1,1.1c-0.3,0.3-0.6,0.7-0.9,1c-6.9,8.5-11.9,18.1-15.5,28.5c-2.2,6.4-3.9,12.9-5.8,19.4
			c-1,3.6-1.4,6.9,0.1,10.7c1.9,5.1,2.9,10.5,2.6,16c-0.1,2.5,0,5.1,0,7.7c-0.2,0-0.6,0-1.1,0c-9.7,0-19.3,0-29,0
			c-2.5,0-5,0.1-7.4-0.1c-3.3-0.2-5.5-2-6.8-5C275.4,208.8,275.3,208.5,275.1,208.1z"/>
		<path class="st1" d="M364.9,140.6c-0.4,2.1-0.7,4.1-1.2,6.2c-2,7.5-5.5,14.4-9.4,21c-0.9,1.6-1.9,3.2-2.9,4.7
			c-0.3,0.4-0.8,0.8-1.3,1c-3.8,1.8-7.6,3.5-11.4,5.3c-0.2,0.1-0.3,0.2-0.4,0.3c3.4-0.9,6.9-1.8,10.5-2.8c-0.2,0.4-0.3,0.7-0.5,0.9
			c-2.8,3.9-5.7,7.8-8.5,11.7c-0.2,0.3-0.5,0.6-0.8,0.7c-5,2.5-9,5.9-11.3,11.1c4.8-24,14.3-46,28.2-66.1c-0.4,0.3-0.8,0.7-1.2,1.1
			c-5.6,5.7-9.9,12.2-13.8,19.1c-7,12.4-11.7,25.6-14.1,39.6c-1.3,7.4-2.1,14.8-1.3,22.4c0.2,2.4,0.9,4.9,1.3,7.3c0.1,0.3,0,0.7,0,1
			c-0.2,0-0.4,0-0.6,0.1c-0.5-2-1-3.9-1.4-5.9c-0.9-5.1-0.8-10.2-0.9-15.3c-0.1-5.9-1.5-11.6-3.6-17.1c-0.1-0.3-0.3-0.7-0.3-1
			c0.3-1.7,0.6-3.5,0.9-5.2c0.1,0,0.2,0,0.3,0c1,1.8,2,3.7,3,5.5c0,0,0.1,0,0.1,0c-0.1-0.5-0.2-1.1-0.4-1.6
			c-0.5-1.4-0.8-2.9-1.5-4.2c-0.8-1.5-0.7-2.8-0.1-4.2c0.3-0.8,0.5-1.6,0.9-2.6c1,1.8,1.9,3.3,2.9,5.1c0-0.5,0-0.7-0.1-0.9
			c-0.2-0.8-0.3-1.6-0.7-2.3c-1.7-2.9-1.2-5.9-0.3-8.9c3.2-10.9,7.9-21.2,14.7-30.3c1.6-2.1,3.4-4.1,5.3-6c2.3-2.4,5.1-4.2,8.4-5.1
			c0.9,0,1.9,0,2.8,0c4.4,1.3,6.8,4.4,8,8.6c0.2,0.8,0.4,1.7,0.6,2.5C364.9,137.9,364.9,139.2,364.9,140.6z"/>
	</g>
	<g>
		<path class="st1" d="M123,316.6l7-0.7c0.4,2.4,1.3,4.1,2.6,5.2c1.3,1.1,3,1.7,5.2,1.7c2.3,0,4.1-0.5,5.3-1.5
			c1.2-1,1.8-2.1,1.8-3.5c0-0.8-0.2-1.6-0.7-2.2c-0.5-0.6-1.4-1.1-2.6-1.6c-0.8-0.3-2.8-0.8-5.8-1.6c-3.9-1-6.6-2.1-8.2-3.5
			c-2.2-2-3.3-4.4-3.3-7.2c0-1.8,0.5-3.5,1.6-5.1c1-1.6,2.5-2.8,4.5-3.6c1.9-0.8,4.3-1.2,7-1.2c4.5,0,7.9,1,10.1,3
			c2.3,2,3.5,4.6,3.6,7.9l-7.2,0.3c-0.3-1.8-1-3.2-2-4c-1-0.8-2.5-1.2-4.6-1.2c-2.1,0-3.7,0.4-4.9,1.3c-0.8,0.6-1.1,1.3-1.1,2.2
			c0,0.8,0.4,1.6,1.1,2.2c0.9,0.8,3.1,1.6,6.6,2.4s6.1,1.7,7.8,2.6s3,2.1,4,3.6s1.4,3.4,1.4,5.7c0,2.1-0.6,4-1.7,5.8
			c-1.1,1.8-2.8,3.1-4.8,4c-2.1,0.9-4.7,1.3-7.8,1.3c-4.5,0-8-1-10.4-3.1C124.9,323.6,123.4,320.6,123,316.6z"/>
		<path class="st1" d="M186.9,323.7c1.8,1.3,3.7,2.3,5.8,3l-2.7,5.1c-1.1-0.3-2.2-0.8-3.2-1.3c-0.2-0.1-1.8-1.2-4.8-3.2
			c-2.3,1-4.9,1.5-7.8,1.5c-5.5,0-9.8-1.6-12.9-4.9c-3.1-3.2-4.7-7.8-4.7-13.6c0-5.8,1.6-10.4,4.7-13.6s7.4-4.9,12.7-4.9
			c5.3,0,9.5,1.6,12.6,4.9c3.1,3.2,4.7,7.8,4.7,13.6c0,3.1-0.4,5.8-1.3,8.2C189.4,320.3,188.4,322,186.9,323.7z M181.1,319.6
			c0.9-1.1,1.6-2.4,2.1-4c0.5-1.5,0.7-3.3,0.7-5.3c0-4.1-0.9-7.2-2.7-9.3c-1.8-2-4.2-3.1-7.2-3.1c-2.9,0-5.3,1-7.2,3.1
			s-2.7,5.1-2.7,9.3c0,4.2,0.9,7.3,2.7,9.4s4.1,3.1,6.9,3.1c1,0,2-0.2,3-0.5c-1.5-1-3-1.7-4.5-2.2l2-4.1
			C176.7,316.8,179,318,181.1,319.6z"/>
		<path class="st1" d="M197.2,328.2v-35.5h7.2v29.5h18v6H197.2z"/>
		<path class="st1" d="M227.5,298.8v-6.3h6.9v6.3H227.5z M227.5,328.2v-25.9h6.9v25.9H227.5z"/>
		<path class="st1" d="M253.3,302.3v5.5h-4.7v10.4c0,2.1,0,3.3,0.1,3.7c0.1,0.3,0.3,0.6,0.6,0.9c0.3,0.2,0.7,0.3,1.2,0.3
			c0.6,0,1.6-0.2,2.8-0.7l0.6,5.3c-1.6,0.7-3.4,1-5.4,1c-1.2,0-2.4-0.2-3.3-0.6c-1-0.4-1.7-1-2.2-1.6s-0.8-1.6-1-2.7
			c-0.1-0.8-0.2-2.4-0.2-4.8v-11.3h-3.1v-5.5h3.1v-5.2l6.9-4v9.2H253.3z"/>
		<path class="st1" d="M273.1,320l6.8,1.1c-0.9,2.5-2.3,4.4-4.2,5.7c-1.9,1.3-4.3,2-7.1,2c-4.5,0-7.8-1.5-10-4.4
			c-1.7-2.4-2.6-5.3-2.6-8.9c0-4.3,1.1-7.7,3.4-10.1s5.1-3.7,8.5-3.7c3.9,0,6.9,1.3,9.1,3.8c2.2,2.5,3.3,6.4,3.2,11.7h-17.2
			c0,2,0.6,3.6,1.7,4.7c1.1,1.1,2.4,1.7,4,1.7c1.1,0,2-0.3,2.7-0.9S272.7,321.3,273.1,320z M273.5,313c0-2-0.6-3.5-1.5-4.5
			s-2.2-1.6-3.6-1.6c-1.5,0-2.7,0.5-3.7,1.6c-1,1.1-1.5,2.6-1.4,4.4H273.5z"/>
		<path class="st1" d="M299.8,292.4H313c3,0,5.2,0.2,6.8,0.7c2.1,0.6,3.9,1.7,5.4,3.3c1.5,1.6,2.6,3.5,3.4,5.8s1.2,5.1,1.2,8.5
			c0,2.9-0.4,5.5-1.1,7.6c-0.9,2.6-2.2,4.7-3.8,6.3c-1.3,1.2-2.9,2.2-5.1,2.9c-1.6,0.5-3.7,0.8-6.4,0.8h-13.6V292.4z M307,298.5
			v23.7h5.4c2,0,3.5-0.1,4.4-0.3c1.2-0.3,2.1-0.8,2.9-1.5c0.8-0.7,1.4-1.9,1.9-3.5s0.7-3.8,0.7-6.6c0-2.8-0.2-4.9-0.7-6.4
			c-0.5-1.5-1.2-2.6-2.1-3.5s-2-1.4-3.3-1.7c-1-0.2-3-0.3-5.9-0.3H307z"/>
		<path class="st1" d="M341,310.2l-6.2-1.1c0.7-2.5,1.9-4.4,3.6-5.6c1.7-1.2,4.2-1.8,7.6-1.8c3.1,0,5.3,0.4,6.8,1.1s2.6,1.6,3.2,2.8
			c0.6,1.1,0.9,3.2,0.9,6.1l-0.1,8c0,2.3,0.1,4,0.3,5c0.2,1.1,0.6,2.2,1.2,3.5h-6.8c-0.2-0.5-0.4-1.1-0.7-2
			c-0.1-0.4-0.2-0.7-0.2-0.8c-1.2,1.1-2.4,2-3.8,2.6c-1.3,0.6-2.8,0.9-4.3,0.9c-2.7,0-4.8-0.7-6.3-2.2c-1.5-1.4-2.3-3.3-2.3-5.5
			c0-1.5,0.3-2.8,1-3.9s1.7-2,2.9-2.6c1.3-0.6,3.1-1.1,5.5-1.6c3.2-0.6,5.4-1.2,6.7-1.7v-0.7c0-1.3-0.3-2.3-1-2.8
			c-0.7-0.6-1.9-0.8-3.7-0.8c-1.2,0-2.2,0.2-2.9,0.7S341.4,309,341,310.2z M350.2,315.8c-0.9,0.3-2.3,0.6-4.2,1
			c-1.9,0.4-3.1,0.8-3.7,1.2c-0.9,0.6-1.3,1.4-1.3,2.4c0,1,0.4,1.8,1.1,2.5c0.7,0.7,1.6,1,2.7,1c1.2,0,2.4-0.4,3.5-1.2
			c0.8-0.6,1.4-1.4,1.6-2.3c0.2-0.6,0.3-1.7,0.3-3.3V315.8z"/>
		<path class="st1" d="M375.6,302.3v5.5h-4.7v10.4c0,2.1,0,3.3,0.1,3.7c0.1,0.3,0.3,0.6,0.6,0.9c0.3,0.2,0.7,0.3,1.2,0.3
			c0.6,0,1.6-0.2,2.8-0.7l0.6,5.3c-1.6,0.7-3.4,1-5.4,1c-1.2,0-2.4-0.2-3.3-0.6c-1-0.4-1.7-1-2.2-1.6c-0.5-0.7-0.8-1.6-1-2.7
			c-0.1-0.8-0.2-2.4-0.2-4.8v-11.3h-3.1v-5.5h3.1v-5.2l6.9-4v9.2H375.6z"/>
		<path class="st1" d="M385.5,310.2l-6.2-1.1c0.7-2.5,1.9-4.4,3.6-5.6c1.7-1.2,4.2-1.8,7.6-1.8c3.1,0,5.3,0.4,6.8,1.1
			c1.5,0.7,2.6,1.6,3.2,2.8c0.6,1.1,0.9,3.2,0.9,6.1l-0.1,8c0,2.3,0.1,4,0.3,5c0.2,1.1,0.6,2.2,1.2,3.5h-6.8c-0.2-0.5-0.4-1.1-0.7-2
			c-0.1-0.4-0.2-0.7-0.2-0.8c-1.2,1.1-2.4,2-3.8,2.6s-2.8,0.9-4.3,0.9c-2.7,0-4.8-0.7-6.3-2.2c-1.5-1.4-2.3-3.3-2.3-5.5
			c0-1.5,0.3-2.8,1-3.9c0.7-1.1,1.7-2,2.9-2.6s3.1-1.1,5.5-1.6c3.2-0.6,5.4-1.2,6.7-1.7v-0.7c0-1.3-0.3-2.3-1-2.8s-1.9-0.8-3.7-0.8
			c-1.2,0-2.2,0.2-2.9,0.7S385.9,309,385.5,310.2z M394.6,315.8c-0.9,0.3-2.3,0.6-4.2,1c-1.9,0.4-3.1,0.8-3.7,1.2
			c-0.9,0.6-1.3,1.4-1.3,2.4c0,1,0.4,1.8,1.1,2.5c0.7,0.7,1.6,1,2.7,1c1.2,0,2.4-0.4,3.5-1.2c0.8-0.6,1.4-1.4,1.6-2.3
			c0.2-0.6,0.3-1.7,0.3-3.3V315.8z"/>
		<path class="st1" d="M407.8,328.2v-35.8h6.9v12.9c2.1-2.4,4.6-3.6,7.5-3.6c3.2,0,5.8,1.1,7.8,3.4c2.1,2.3,3.1,5.6,3.1,9.9
			c0,4.4-1.1,7.8-3.2,10.2c-2.1,2.4-4.7,3.6-7.7,3.6c-1.5,0-2.9-0.4-4.4-1.1c-1.4-0.7-2.7-1.8-3.7-3.3v3.8H407.8z M414.7,314.7
			c0,2.7,0.4,4.7,1.3,6c1.2,1.8,2.8,2.7,4.7,2.7c1.5,0,2.8-0.6,3.9-1.9c1.1-1.3,1.6-3.3,1.6-6.1c0-3-0.5-5.1-1.6-6.4s-2.5-2-4.1-2
			c-1.6,0-3,0.6-4.1,1.9C415.2,310.1,414.7,312.1,414.7,314.7z"/>
		<path class="st1" d="M443.8,310.2l-6.2-1.1c0.7-2.5,1.9-4.4,3.6-5.6c1.7-1.2,4.2-1.8,7.6-1.8c3.1,0,5.3,0.4,6.8,1.1
			c1.5,0.7,2.6,1.6,3.2,2.8c0.6,1.1,0.9,3.2,0.9,6.1l-0.1,8c0,2.3,0.1,4,0.3,5c0.2,1.1,0.6,2.2,1.2,3.5h-6.8c-0.2-0.5-0.4-1.1-0.7-2
			c-0.1-0.4-0.2-0.7-0.2-0.8c-1.2,1.1-2.4,2-3.8,2.6s-2.8,0.9-4.3,0.9c-2.7,0-4.8-0.7-6.3-2.2c-1.5-1.4-2.3-3.3-2.3-5.5
			c0-1.5,0.3-2.8,1-3.9c0.7-1.1,1.7-2,2.9-2.6s3.1-1.1,5.5-1.6c3.2-0.6,5.4-1.2,6.7-1.7v-0.7c0-1.3-0.3-2.3-1-2.8s-1.9-0.8-3.7-0.8
			c-1.2,0-2.2,0.2-2.9,0.7S444.2,309,443.8,310.2z M453,315.8c-0.9,0.3-2.3,0.6-4.2,1c-1.9,0.4-3.1,0.8-3.7,1.2
			c-0.9,0.6-1.3,1.4-1.3,2.4c0,1,0.4,1.8,1.1,2.5c0.7,0.7,1.6,1,2.7,1c1.2,0,2.4-0.4,3.5-1.2c0.8-0.6,1.4-1.4,1.6-2.3
			c0.2-0.6,0.3-1.7,0.3-3.3V315.8z"/>
		<path class="st1" d="M464.1,320.8l6.9-1c0.3,1.3,0.9,2.3,1.8,3c0.9,0.7,2.1,1,3.8,1c1.8,0,3.1-0.3,4-1c0.6-0.5,0.9-1.1,0.9-1.8
			c0-0.5-0.2-1-0.5-1.3c-0.3-0.3-1.1-0.6-2.3-0.9c-5.5-1.2-9-2.3-10.5-3.3c-2.1-1.4-3.1-3.3-3.1-5.8c0-2.2,0.9-4.1,2.7-5.7
			c1.8-1.5,4.5-2.3,8.3-2.3c3.5,0,6.2,0.6,7.9,1.7c1.7,1.2,2.9,2.9,3.6,5.1l-6.5,1.2c-0.3-1-0.8-1.8-1.6-2.3
			c-0.8-0.5-1.9-0.8-3.3-0.8c-1.8,0-3.1,0.3-3.9,0.8c-0.5,0.4-0.8,0.8-0.8,1.4c0,0.5,0.2,0.9,0.7,1.2c0.6,0.5,2.8,1.1,6.4,1.9
			c3.7,0.8,6.2,1.8,7.7,3.1c1.4,1.2,2.1,2.9,2.1,5.1c0,2.4-1,4.4-3,6.1s-4.9,2.6-8.8,2.6c-3.5,0-6.3-0.7-8.4-2.1
			C466.1,325.2,464.7,323.3,464.1,320.8z"/>
		<path class="st1" d="M509.3,320l6.8,1.1c-0.9,2.5-2.3,4.4-4.2,5.7c-1.9,1.3-4.3,2-7.1,2c-4.5,0-7.8-1.5-10-4.4
			c-1.7-2.4-2.6-5.3-2.6-8.9c0-4.3,1.1-7.7,3.4-10.1s5.1-3.7,8.5-3.7c3.9,0,6.9,1.3,9.1,3.8c2.2,2.5,3.3,6.4,3.2,11.7h-17.2
			c0,2,0.6,3.6,1.7,4.7s2.4,1.7,4,1.7c1.1,0,2-0.3,2.7-0.9S508.9,321.3,509.3,320z M509.7,313c0-2-0.6-3.5-1.5-4.5s-2.2-1.6-3.6-1.6
			c-1.5,0-2.7,0.5-3.7,1.6c-1,1.1-1.5,2.6-1.4,4.4H509.7z"/>
		<path class="st1" d="M259.3,383.8l-4.2,5.3c-2-1-4-2.4-5.9-4.1c-1.4,1.3-3,2.3-4.6,2.9c-1.6,0.6-3.6,0.9-5.8,0.9
			c-4.5,0-7.8-1.3-10.1-3.8c-1.7-1.9-2.6-4.2-2.6-6.7c0-2.3,0.7-4.4,2.1-6.2s3.4-3.4,6.1-4.8c-1.2-1.4-2.1-2.8-2.8-4.1
			c-0.6-1.3-0.9-2.6-0.9-3.7c0-2.2,0.9-4,2.6-5.5s4.2-2.3,7.4-2.3c3.1,0,5.5,0.8,7.3,2.4c1.7,1.6,2.6,3.5,2.6,5.8
			c0,1.4-0.4,2.8-1.3,4.1c-0.9,1.3-2.6,2.8-5.2,4.4l5,6.6c0.6-1,1.1-2.4,1.5-4.1l6.2,1.4c-0.6,2.2-1.2,3.8-1.6,4.8
			c-0.5,1-0.9,1.9-1.5,2.6c0.8,0.7,1.8,1.5,3,2.4C257.9,383,258.7,383.6,259.3,383.8z M238,371.8c-1.6,0.8-2.8,1.8-3.5,2.9
			s-1.2,2.3-1.2,3.4c0,1.5,0.5,2.7,1.5,3.6c1,0.9,2.3,1.4,3.9,1.4c1.1,0,2.1-0.2,3.1-0.6c1-0.4,2.1-1.1,3.2-2.1L238,371.8z
			 M240.6,364.4l1.9-1.4c1.4-1.1,2.1-2.1,2.1-3.1c0-0.9-0.3-1.6-1-2.2c-0.7-0.6-1.6-0.9-2.7-0.9c-1.1,0-1.9,0.3-2.6,0.8
			c-0.6,0.5-0.9,1.2-0.9,1.9c0,0.8,0.5,1.9,1.6,3.1L240.6,364.4z"/>
		<path class="st1" d="M277.7,388.2v-35.8h15.2c3.8,0,6.6,0.3,8.3,1s3.1,1.8,4.2,3.4c1,1.6,1.6,3.5,1.6,5.6c0,2.7-0.8,4.9-2.4,6.7
			c-1.6,1.8-3.9,2.9-7.1,3.3c1.6,0.9,2.9,1.9,3.9,3c1,1.1,2.4,3,4.1,5.8l4.4,7h-8.6l-5.2-7.8c-1.9-2.8-3.1-4.5-3.8-5.3
			s-1.4-1.2-2.2-1.5c-0.8-0.3-2-0.4-3.6-0.4h-1.5v14.9H277.7z M284.9,367.6h5.3c3.5,0,5.6-0.1,6.5-0.4c0.9-0.3,1.5-0.8,2-1.5
			c0.5-0.7,0.7-1.6,0.7-2.7c0-1.2-0.3-2.2-1-2.9c-0.6-0.7-1.6-1.2-2.7-1.4c-0.6-0.1-2.3-0.1-5.3-0.1h-5.6V367.6z"/>
		<path class="st1" d="M312.1,374.9c0-2.3,0.6-4.5,1.7-6.6c1.1-2.1,2.7-3.8,4.8-4.9c2.1-1.1,4.4-1.7,6.9-1.7c3.9,0,7.1,1.3,9.6,3.8
			s3.8,5.8,3.8,9.7c0,3.9-1.3,7.2-3.8,9.8c-2.5,2.6-5.7,3.9-9.6,3.9c-2.4,0-4.6-0.5-6.8-1.6c-2.2-1.1-3.8-2.6-4.9-4.7
			S312.1,377.9,312.1,374.9z M319.2,375.3c0,2.6,0.6,4.5,1.8,5.9s2.7,2.1,4.5,2.1s3.3-0.7,4.5-2.1c1.2-1.4,1.8-3.4,1.8-6
			c0-2.5-0.6-4.5-1.8-5.9c-1.2-1.4-2.7-2.1-4.5-2.1s-3.3,0.7-4.5,2.1S319.2,372.7,319.2,375.3z"/>
		<path class="st1" d="M342.7,374.9c0-2.3,0.6-4.5,1.7-6.6c1.1-2.1,2.7-3.8,4.8-4.9s4.4-1.7,6.9-1.7c3.9,0,7.1,1.3,9.6,3.8
			c2.5,2.5,3.8,5.8,3.8,9.7c0,3.9-1.3,7.2-3.8,9.8s-5.7,3.9-9.6,3.9c-2.4,0-4.6-0.5-6.8-1.6s-3.8-2.6-4.9-4.7
			S342.7,377.9,342.7,374.9z M349.7,375.3c0,2.6,0.6,4.5,1.8,5.9s2.7,2.1,4.5,2.1c1.8,0,3.3-0.7,4.5-2.1s1.8-3.4,1.8-6
			c0-2.5-0.6-4.5-1.8-5.9s-2.7-2.1-4.5-2.1c-1.8,0-3.3,0.7-4.5,2.1S349.7,372.7,349.7,375.3z"/>
		<path class="st1" d="M374.3,362.3h6.3v3.5c2.3-2.8,5-4.1,8.1-4.1c1.7,0,3.1,0.3,4.3,1s2.2,1.7,3,3.1c1.1-1.4,2.4-2.4,3.7-3.1
			s2.7-1,4.2-1c1.9,0,3.5,0.4,4.8,1.2s2.3,1.9,3,3.4c0.5,1.1,0.7,2.9,0.7,5.4v16.6h-6.9v-14.8c0-2.6-0.2-4.2-0.7-5
			c-0.6-1-1.6-1.5-2.9-1.5c-1,0-1.9,0.3-2.7,0.9c-0.8,0.6-1.5,1.4-1.8,2.6s-0.6,2.9-0.6,5.4v12.5H390V374c0-2.5-0.1-4.2-0.4-4.9
			s-0.6-1.3-1.1-1.6c-0.5-0.4-1.2-0.5-2.1-0.5c-1.1,0-2,0.3-2.9,0.9c-0.8,0.6-1.5,1.4-1.8,2.5c-0.4,1.1-0.5,2.9-0.5,5.3v12.6h-6.9
			V362.3z"/>
	</g>
</g>
<g id="Guides">
</g>
</svg>
