<svg width="640" height="470" viewBox="0 0 640 470" fill="none" xmlns="http://www.w3.org/2000/svg">
<g clip-path="url(#clip0_2_45)">
<path d="M640 0H0V470H640V0Z" fill="#B84E91"/>
<path d="M146.278 347V313.736H168.55V320.024H153.766V326.984H166.918V333.272H153.766V347H146.278ZM180.512 347H173.36V321.752H180.512V347ZM181.184 314.456C181.184 315.768 180.752 316.808 179.888 317.576C179.056 318.312 178.064 318.68 176.912 318.68C175.76 318.68 174.752 318.312 173.888 317.576C173.056 316.808 172.64 315.768 172.64 314.456C172.64 313.144 173.056 312.12 173.888 311.384C174.752 310.616 175.76 310.232 176.912 310.232C178.064 310.232 179.056 310.616 179.888 311.384C180.752 312.12 181.184 313.144 181.184 314.456ZM202.451 328.088C201.811 327.928 201.059 327.768 200.195 327.608C199.331 327.416 198.403 327.32 197.411 327.32C196.963 327.32 196.419 327.368 195.779 327.464C195.171 327.528 194.707 327.608 194.387 327.704V347H187.235V323.096C188.515 322.648 190.019 322.232 191.747 321.848C193.507 321.432 195.459 321.224 197.603 321.224C197.987 321.224 198.451 321.256 198.995 321.32C199.539 321.352 200.083 321.416 200.627 321.512C201.171 321.576 201.715 321.672 202.259 321.8C202.803 321.896 203.267 322.024 203.651 322.184L202.451 328.088ZM205.816 334.568C205.816 332.328 206.152 330.376 206.824 328.712C207.528 327.016 208.44 325.608 209.56 324.488C210.68 323.368 211.96 322.52 213.4 321.944C214.872 321.368 216.376 321.08 217.912 321.08C221.496 321.08 224.328 322.184 226.408 324.392C228.488 326.568 229.528 329.784 229.528 334.04C229.528 334.456 229.512 334.92 229.48 335.432C229.448 335.912 229.416 336.344 229.384 336.728H213.16C213.32 338.2 214.008 339.368 215.224 340.232C216.44 341.096 218.072 341.528 220.12 341.528C221.432 341.528 222.712 341.416 223.96 341.192C225.24 340.936 226.28 340.632 227.08 340.28L228.04 346.088C227.656 346.28 227.144 346.472 226.504 346.664C225.864 346.856 225.144 347.016 224.344 347.144C223.576 347.304 222.744 347.432 221.848 347.528C220.952 347.624 220.056 347.672 219.16 347.672C216.888 347.672 214.904 347.336 213.208 346.664C211.544 345.992 210.152 345.08 209.032 343.928C207.944 342.744 207.128 341.352 206.584 339.752C206.072 338.152 205.816 336.424 205.816 334.568ZM222.616 331.832C222.584 331.224 222.472 330.632 222.28 330.056C222.12 329.48 221.848 328.968 221.464 328.52C221.112 328.072 220.648 327.704 220.072 327.416C219.528 327.128 218.84 326.984 218.008 326.984C217.208 326.984 216.52 327.128 215.944 327.416C215.368 327.672 214.888 328.024 214.504 328.472C214.12 328.92 213.816 329.448 213.592 330.056C213.4 330.632 213.256 331.224 213.16 331.832H222.616ZM251.224 334.184C251.224 329.576 249.528 327.272 246.136 327.272C245.4 327.272 244.664 327.368 243.928 327.56C243.224 327.752 242.648 327.992 242.2 328.28V341.288C242.552 341.352 243 341.416 243.544 341.48C244.088 341.512 244.68 341.528 245.32 341.528C247.272 341.528 248.744 340.856 249.736 339.512C250.728 338.168 251.224 336.392 251.224 334.184ZM258.52 334.376C258.52 336.392 258.216 338.216 257.608 339.848C257.032 341.48 256.184 342.872 255.064 344.024C253.944 345.176 252.568 346.072 250.936 346.712C249.304 347.32 247.448 347.624 245.368 347.624C244.504 347.624 243.592 347.576 242.632 347.48C241.704 347.416 240.776 347.32 239.848 347.192C238.952 347.064 238.088 346.92 237.256 346.76C236.424 346.568 235.688 346.376 235.048 346.184V310.904L242.2 309.752V322.328C243 321.976 243.832 321.704 244.696 321.512C245.56 321.32 246.488 321.224 247.48 321.224C249.272 321.224 250.856 321.544 252.232 322.184C253.608 322.792 254.76 323.672 255.688 324.824C256.616 325.976 257.32 327.368 257.8 329C258.28 330.6 258.52 332.392 258.52 334.376ZM273.664 342.008C274.368 342.008 275.04 341.992 275.68 341.96C276.32 341.928 276.832 341.88 277.216 341.816V336.392C276.928 336.328 276.496 336.264 275.92 336.2C275.344 336.136 274.816 336.104 274.336 336.104C273.664 336.104 273.024 336.152 272.416 336.248C271.84 336.312 271.328 336.456 270.88 336.68C270.432 336.904 270.08 337.208 269.824 337.592C269.568 337.976 269.44 338.456 269.44 339.032C269.44 340.152 269.808 340.936 270.544 341.384C271.312 341.8 272.352 342.008 273.664 342.008ZM273.088 321.08C275.2 321.08 276.96 321.32 278.368 321.8C279.776 322.28 280.896 322.968 281.728 323.864C282.592 324.76 283.2 325.848 283.552 327.128C283.904 328.408 284.08 329.832 284.08 331.4V346.28C283.056 346.504 281.632 346.76 279.808 347.048C277.984 347.368 275.776 347.528 273.184 347.528C271.552 347.528 270.064 347.384 268.72 347.096C267.408 346.808 266.272 346.344 265.312 345.704C264.352 345.032 263.616 344.168 263.104 343.112C262.592 342.056 262.336 340.76 262.336 339.224C262.336 337.752 262.624 336.504 263.2 335.48C263.808 334.456 264.608 333.64 265.6 333.032C266.592 332.424 267.728 331.992 269.008 331.736C270.288 331.448 271.616 331.304 272.992 331.304C273.92 331.304 274.736 331.352 275.44 331.448C276.176 331.512 276.768 331.608 277.216 331.736V331.064C277.216 329.848 276.848 328.872 276.112 328.136C275.376 327.4 274.096 327.032 272.272 327.032C271.056 327.032 269.856 327.128 268.672 327.32C267.488 327.48 266.464 327.72 265.6 328.04L264.688 322.28C265.104 322.152 265.616 322.024 266.224 321.896C266.864 321.736 267.552 321.608 268.288 321.512C269.024 321.384 269.792 321.288 270.592 321.224C271.424 321.128 272.256 321.08 273.088 321.08ZM297.796 341.864C299.108 341.864 300.036 341.736 300.58 341.48C301.124 341.224 301.396 340.728 301.396 339.992C301.396 339.416 301.044 338.92 300.34 338.504C299.636 338.056 298.564 337.56 297.124 337.016C296.004 336.6 294.98 336.168 294.052 335.72C293.156 335.272 292.388 334.744 291.748 334.136C291.108 333.496 290.612 332.744 290.26 331.88C289.908 331.016 289.732 329.976 289.732 328.76C289.732 326.392 290.612 324.52 292.372 323.144C294.132 321.768 296.548 321.08 299.62 321.08C301.156 321.08 302.628 321.224 304.036 321.512C305.444 321.768 306.564 322.056 307.396 322.376L306.148 327.944C305.316 327.656 304.404 327.4 303.412 327.176C302.452 326.952 301.364 326.84 300.148 326.84C297.908 326.84 296.788 327.464 296.788 328.712C296.788 329 296.836 329.256 296.932 329.48C297.028 329.704 297.22 329.928 297.508 330.152C297.796 330.344 298.18 330.568 298.66 330.824C299.172 331.048 299.812 331.304 300.58 331.592C302.148 332.168 303.444 332.744 304.468 333.32C305.492 333.864 306.292 334.472 306.868 335.144C307.476 335.784 307.892 336.504 308.116 337.304C308.372 338.104 308.5 339.032 308.5 340.088C308.5 342.584 307.556 344.472 305.668 345.752C303.812 347.032 301.172 347.672 297.748 347.672C295.508 347.672 293.636 347.48 292.132 347.096C290.66 346.712 289.636 346.392 289.06 346.136L290.26 340.328C291.476 340.808 292.724 341.192 294.004 341.48C295.284 341.736 296.548 341.864 297.796 341.864ZM312.644 334.568C312.644 332.328 312.98 330.376 313.652 328.712C314.356 327.016 315.268 325.608 316.388 324.488C317.508 323.368 318.788 322.52 320.228 321.944C321.7 321.368 323.204 321.08 324.74 321.08C328.324 321.08 331.156 322.184 333.236 324.392C335.316 326.568 336.356 329.784 336.356 334.04C336.356 334.456 336.34 334.92 336.308 335.432C336.276 335.912 336.244 336.344 336.212 336.728H319.988C320.148 338.2 320.836 339.368 322.052 340.232C323.268 341.096 324.9 341.528 326.948 341.528C328.26 341.528 329.54 341.416 330.788 341.192C332.068 340.936 333.108 340.632 333.908 340.28L334.868 346.088C334.484 346.28 333.972 346.472 333.332 346.664C332.692 346.856 331.972 347.016 331.172 347.144C330.404 347.304 329.572 347.432 328.676 347.528C327.78 347.624 326.884 347.672 325.988 347.672C323.716 347.672 321.732 347.336 320.036 346.664C318.372 345.992 316.98 345.08 315.86 343.928C314.772 342.744 313.956 341.352 313.412 339.752C312.9 338.152 312.644 336.424 312.644 334.568ZM329.444 331.832C329.412 331.224 329.3 330.632 329.108 330.056C328.948 329.48 328.676 328.968 328.292 328.52C327.94 328.072 327.476 327.704 326.9 327.416C326.356 327.128 325.668 326.984 324.836 326.984C324.036 326.984 323.348 327.128 322.772 327.416C322.196 327.672 321.716 328.024 321.332 328.472C320.948 328.92 320.644 329.448 320.42 330.056C320.228 330.632 320.084 331.224 319.988 331.832H329.444ZM351.727 338.168C351.727 336.952 351.903 335.848 352.255 334.856C352.607 333.832 353.071 332.92 353.647 332.12C354.255 331.288 354.943 330.568 355.711 329.96C356.511 329.32 357.343 328.76 358.207 328.28C357.439 327.352 356.751 326.36 356.143 325.304C355.535 324.216 355.231 323.032 355.231 321.752C355.231 318.936 356.079 316.776 357.775 315.272C359.471 313.736 361.807 312.968 364.783 312.968C366.287 312.968 367.599 313.176 368.719 313.592C369.839 313.976 370.767 314.52 371.503 315.224C372.271 315.896 372.847 316.696 373.231 317.624C373.615 318.52 373.807 319.496 373.807 320.552C373.807 322.504 373.247 324.248 372.127 325.784C371.039 327.288 369.647 328.552 367.951 329.576L373.327 334.952C373.615 334.312 373.887 333.512 374.143 332.552C374.431 331.56 374.607 330.696 374.671 329.96L380.623 330.728C380.559 331.336 380.447 332.008 380.287 332.744C380.127 333.448 379.919 334.168 379.663 334.904C379.439 335.64 379.167 336.376 378.847 337.112C378.559 337.848 378.239 338.52 377.887 339.128C378.911 340.28 379.903 341.544 380.863 342.92C381.855 344.264 382.703 345.624 383.407 347H376.063C375.807 346.584 375.455 346.072 375.007 345.464C374.559 344.824 374.111 344.28 373.663 343.832C372.383 344.856 370.895 345.72 369.199 346.424C367.503 347.096 365.599 347.432 363.487 347.432C361.247 347.432 359.375 347.16 357.871 346.616C356.367 346.04 355.151 345.32 354.223 344.456C353.327 343.56 352.687 342.568 352.303 341.48C351.919 340.36 351.727 339.256 351.727 338.168ZM358.399 337.448C358.399 337.928 358.495 338.424 358.687 338.936C358.879 339.448 359.183 339.928 359.599 340.376C360.047 340.792 360.607 341.144 361.279 341.432C361.951 341.688 362.767 341.816 363.727 341.816C365.071 341.816 366.239 341.64 367.231 341.288C368.255 340.936 369.103 340.472 369.775 339.896L362.095 332.168C361.647 332.392 361.199 332.664 360.751 332.984C360.335 333.304 359.951 333.688 359.599 334.136C359.247 334.552 358.959 335.032 358.735 335.576C358.511 336.12 358.399 336.744 358.399 337.448ZM367.711 320.888C367.711 320.152 367.471 319.496 366.991 318.92C366.511 318.344 365.711 318.056 364.591 318.056C363.567 318.056 362.767 318.376 362.191 319.016C361.647 319.624 361.375 320.424 361.375 321.416C361.375 322.248 361.615 323.064 362.095 323.864C362.575 324.632 363.199 325.368 363.967 326.072C364.991 325.496 365.871 324.808 366.607 324.008C367.343 323.208 367.711 322.168 367.711 320.888ZM418.894 347C418.222 345.912 417.422 344.744 416.494 343.496C415.598 342.216 414.606 340.952 413.518 339.704C412.462 338.424 411.358 337.208 410.206 336.056C409.054 334.872 407.902 333.832 406.75 332.936V347H399.262V313.736H406.75V326.312C408.702 324.264 410.654 322.136 412.606 319.928C414.59 317.688 416.43 315.624 418.126 313.736H427.006C424.734 316.424 422.446 319.016 420.142 321.512C417.87 324.008 415.47 326.52 412.942 329.048C415.598 331.256 418.158 333.88 420.622 336.92C423.118 339.96 425.502 343.32 427.774 347H418.894ZM430.886 315.464L438.038 314.312V321.752H446.63V327.704H438.038V336.584C438.038 338.088 438.294 339.288 438.806 340.184C439.35 341.08 440.422 341.528 442.022 341.528C442.79 341.528 443.574 341.464 444.374 341.336C445.206 341.176 445.958 340.968 446.63 340.712L447.638 346.28C446.774 346.632 445.814 346.936 444.758 347.192C443.702 347.448 442.406 347.576 440.87 347.576C438.918 347.576 437.302 347.32 436.022 346.808C434.742 346.264 433.718 345.528 432.95 344.6C432.182 343.64 431.638 342.488 431.318 341.144C431.03 339.8 430.886 338.312 430.886 336.68V315.464ZM475.132 334.328C475.132 336.312 474.844 338.136 474.268 339.8C473.692 341.432 472.86 342.84 471.772 344.024C470.684 345.176 469.372 346.072 467.836 346.712C466.332 347.352 464.636 347.672 462.748 347.672C460.892 347.672 459.196 347.352 457.66 346.712C456.156 346.072 454.86 345.176 453.772 344.024C452.684 342.84 451.836 341.432 451.228 339.8C450.62 338.136 450.316 336.312 450.316 334.328C450.316 332.344 450.62 330.536 451.228 328.904C451.868 327.272 452.732 325.88 453.82 324.728C454.94 323.576 456.252 322.68 457.756 322.04C459.292 321.4 460.956 321.08 462.748 321.08C464.572 321.08 466.236 321.4 467.74 322.04C469.276 322.68 470.588 323.576 471.676 324.728C472.764 325.88 473.612 327.272 474.22 328.904C474.828 330.536 475.132 332.344 475.132 334.328ZM467.836 334.328C467.836 332.12 467.388 330.392 466.492 329.144C465.628 327.864 464.38 327.224 462.748 327.224C461.116 327.224 459.852 327.864 458.956 329.144C458.06 330.392 457.612 332.12 457.612 334.328C457.612 336.536 458.06 338.296 458.956 339.608C459.852 340.888 461.116 341.528 462.748 341.528C464.38 341.528 465.628 340.888 466.492 339.608C467.388 338.296 467.836 336.536 467.836 334.328ZM495.889 328.088C495.249 327.928 494.497 327.768 493.633 327.608C492.769 327.416 491.841 327.32 490.849 327.32C490.401 327.32 489.857 327.368 489.217 327.464C488.609 327.528 488.145 327.608 487.825 327.704V347H480.673V323.096C481.953 322.648 483.457 322.232 485.185 321.848C486.945 321.432 488.897 321.224 491.041 321.224C491.425 321.224 491.889 321.256 492.433 321.32C492.977 321.352 493.521 321.416 494.065 321.512C494.609 321.576 495.153 321.672 495.697 321.8C496.241 321.896 496.705 322.024 497.089 322.184L495.889 328.088Z" fill="white"/>
<path d="M203.4 205.328L213.3 141.928C213.5 140.728 214.6 139.828 215.9 140.028C216.6 140.128 217.2 140.528 217.6 141.228L228.2 161.128L203.4 205.328ZM273.4 220.728L264 162.428C263.8 161.228 262.6 160.328 261.4 160.528C260.9 160.628 260.5 160.828 260.2 161.128L201 220.728L233.7 239.228C235.8 240.428 238.3 240.428 240.3 239.228C240.4 239.228 273.4 220.728 273.4 220.728ZM246.8 169.828L239.2 155.328C238.6 154.228 237.3 153.828 236.2 154.328C235.8 154.528 235.5 154.828 235.2 155.328L201.9 215.028L246.8 169.828Z" fill="white"/>
<g clip-path="url(#clip1_2_45)">
<rect x="339.167" y="173.167" width="46.9056" height="94.5158" transform="rotate(-45 339.167 173.167)" fill="url(#paint0_linear_2_45)"/>
<path d="M405.667 173.333H372.333V206.667H405.667V173.333Z" fill="#B84E91"/>
</g>
</g>
<defs>
<linearGradient id="paint0_linear_2_45" x1="362.62" y1="173.167" x2="362.62" y2="267.683" gradientUnits="userSpaceOnUse">
<stop offset="0.500224" stop-color="white"/>
<stop offset="1" stop-color="white" stop-opacity="0"/>
</linearGradient>
<clipPath id="clip0_2_45">
<rect width="640" height="470" fill="white"/>
</clipPath>
<clipPath id="clip1_2_45">
<rect width="100" height="100" fill="white" transform="translate(339 140)"/>
</clipPath>
</defs>
</svg>
