<svg width="640" height="470" viewBox="0 0 640 470" fill="none" xmlns="http://www.w3.org/2000/svg">
<g clip-path="url(#clip0_2_28)">
<path d="M640 0H0V470H640V0Z" fill="#B84E91"/>
<path d="M91.5104 347C91.1584 345.848 90.7584 344.664 90.3104 343.448C89.8944 342.232 89.4784 341.016 89.0624 339.8H76.1024C75.6864 341.016 75.2544 342.232 74.8064 343.448C74.3904 344.664 74.0064 345.848 73.6544 347H65.8784C67.1264 343.416 68.3104 340.104 69.4304 337.064C70.5504 334.024 71.6384 331.16 72.6944 328.472C73.7824 325.784 74.8384 323.24 75.8624 320.84C76.9184 318.408 78.0064 316.04 79.1264 313.736H86.2784C87.3664 316.04 88.4384 318.408 89.4944 320.84C90.5504 323.24 91.6064 325.784 92.6624 328.472C93.7504 331.16 94.8544 334.024 95.9744 337.064C97.0944 340.104 98.2784 343.416 99.5264 347H91.5104ZM82.5344 321.272C82.3744 321.752 82.1344 322.408 81.8144 323.24C81.4944 324.072 81.1264 325.032 80.7104 326.12C80.2944 327.208 79.8304 328.408 79.3184 329.72C78.8384 331.032 78.3424 332.408 77.8304 333.848H87.2864C86.7744 332.408 86.2784 331.032 85.7984 329.72C85.3184 328.408 84.8544 327.208 84.4064 326.12C83.9904 325.032 83.6224 324.072 83.3024 323.24C82.9824 322.408 82.7264 321.752 82.5344 321.272ZM103.352 322.616C104.568 322.264 106.136 321.944 108.056 321.656C109.976 321.336 111.992 321.176 114.104 321.176C116.248 321.176 118.024 321.464 119.432 322.04C120.872 322.584 122.008 323.368 122.84 324.392C123.672 325.416 124.264 326.632 124.616 328.04C124.968 329.448 125.144 331.016 125.144 332.744V347H117.992V333.608C117.992 331.304 117.688 329.672 117.08 328.712C116.472 327.752 115.336 327.272 113.672 327.272C113.16 327.272 112.616 327.304 112.04 327.368C111.464 327.4 110.952 327.448 110.504 327.512V347H103.352V322.616ZM137.714 334.184C137.714 336.392 138.21 338.168 139.202 339.512C140.194 340.856 141.666 341.528 143.618 341.528C144.258 341.528 144.85 341.512 145.394 341.48C145.938 341.416 146.386 341.352 146.738 341.288V328.28C146.29 327.992 145.698 327.752 144.962 327.56C144.258 327.368 143.538 327.272 142.802 327.272C139.41 327.272 137.714 329.576 137.714 334.184ZM153.89 346.184C153.25 346.376 152.514 346.568 151.682 346.76C150.85 346.92 149.97 347.064 149.042 347.192C148.146 347.32 147.218 347.416 146.258 347.48C145.33 347.576 144.434 347.624 143.57 347.624C141.49 347.624 139.634 347.32 138.002 346.712C136.37 346.104 134.994 345.24 133.874 344.12C132.754 342.968 131.89 341.592 131.282 339.992C130.706 338.36 130.418 336.536 130.418 334.52C130.418 332.472 130.674 330.632 131.186 329C131.698 327.336 132.434 325.928 133.394 324.776C134.354 323.624 135.522 322.744 136.898 322.136C138.306 321.528 139.906 321.224 141.698 321.224C142.69 321.224 143.57 321.32 144.338 321.512C145.138 321.704 145.938 321.976 146.738 322.328V310.904L153.89 309.752V346.184ZM175.803 328.088C175.163 327.928 174.411 327.768 173.547 327.608C172.683 327.416 171.755 327.32 170.763 327.32C170.315 327.32 169.771 327.368 169.131 327.464C168.523 327.528 168.059 327.608 167.739 327.704V347H160.587V323.096C161.867 322.648 163.371 322.232 165.099 321.848C166.859 321.432 168.811 321.224 170.955 321.224C171.339 321.224 171.803 321.256 172.347 321.32C172.891 321.352 173.435 321.416 173.979 321.512C174.523 321.576 175.067 321.672 175.611 321.8C176.155 321.896 176.619 322.024 177.003 322.184L175.803 328.088ZM203.984 334.328C203.984 336.312 203.696 338.136 203.12 339.8C202.544 341.432 201.712 342.84 200.624 344.024C199.536 345.176 198.224 346.072 196.688 346.712C195.184 347.352 193.488 347.672 191.6 347.672C189.744 347.672 188.048 347.352 186.512 346.712C185.008 346.072 183.712 345.176 182.624 344.024C181.536 342.84 180.688 341.432 180.08 339.8C179.472 338.136 179.168 336.312 179.168 334.328C179.168 332.344 179.472 330.536 180.08 328.904C180.72 327.272 181.584 325.88 182.672 324.728C183.792 323.576 185.104 322.68 186.608 322.04C188.144 321.4 189.808 321.08 191.6 321.08C193.424 321.08 195.088 321.4 196.592 322.04C198.128 322.68 199.44 323.576 200.528 324.728C201.616 325.88 202.464 327.272 203.072 328.904C203.68 330.536 203.984 332.344 203.984 334.328ZM196.688 334.328C196.688 332.12 196.24 330.392 195.344 329.144C194.48 327.864 193.232 327.224 191.6 327.224C189.968 327.224 188.704 327.864 187.808 329.144C186.912 330.392 186.464 332.12 186.464 334.328C186.464 336.536 186.912 338.296 187.808 339.608C188.704 340.888 189.968 341.528 191.6 341.528C193.232 341.528 194.48 340.888 195.344 339.608C196.24 338.296 196.688 336.536 196.688 334.328ZM216.676 347H209.524V321.752H216.676V347ZM217.348 314.456C217.348 315.768 216.916 316.808 216.052 317.576C215.22 318.312 214.228 318.68 213.076 318.68C211.924 318.68 210.916 318.312 210.052 317.576C209.22 316.808 208.804 315.768 208.804 314.456C208.804 313.144 209.22 312.12 210.052 311.384C210.916 310.616 211.924 310.232 213.076 310.232C214.228 310.232 215.22 310.616 216.052 311.384C216.916 312.12 217.348 313.144 217.348 314.456ZM229.495 334.184C229.495 336.392 229.991 338.168 230.983 339.512C231.975 340.856 233.447 341.528 235.399 341.528C236.039 341.528 236.631 341.512 237.175 341.48C237.719 341.416 238.167 341.352 238.519 341.288V328.28C238.071 327.992 237.479 327.752 236.743 327.56C236.039 327.368 235.319 327.272 234.583 327.272C231.191 327.272 229.495 329.576 229.495 334.184ZM245.671 346.184C245.031 346.376 244.295 346.568 243.463 346.76C242.631 346.92 241.751 347.064 240.823 347.192C239.927 347.32 238.999 347.416 238.039 347.48C237.111 347.576 236.215 347.624 235.351 347.624C233.271 347.624 231.415 347.32 229.783 346.712C228.151 346.104 226.775 345.24 225.655 344.12C224.535 342.968 223.671 341.592 223.063 339.992C222.487 338.36 222.199 336.536 222.199 334.52C222.199 332.472 222.455 330.632 222.967 329C223.479 327.336 224.215 325.928 225.175 324.776C226.135 323.624 227.303 322.744 228.679 322.136C230.087 321.528 231.687 321.224 233.479 321.224C234.471 321.224 235.351 321.32 236.119 321.512C236.919 321.704 237.719 321.976 238.519 322.328V310.904L245.671 309.752V346.184ZM273.451 341.288C274.507 341.288 275.371 341.208 276.043 341.048C276.747 340.856 277.307 340.616 277.723 340.328C278.139 340.008 278.427 339.64 278.587 339.224C278.747 338.808 278.827 338.344 278.827 337.832C278.827 336.744 278.315 335.848 277.291 335.144C276.267 334.408 274.507 333.624 272.011 332.792C270.923 332.408 269.835 331.976 268.747 331.496C267.659 330.984 266.683 330.36 265.819 329.624C264.955 328.856 264.251 327.944 263.707 326.888C263.163 325.8 262.891 324.488 262.891 322.952C262.891 321.416 263.179 320.04 263.755 318.824C264.331 317.576 265.147 316.52 266.203 315.656C267.259 314.792 268.539 314.136 270.043 313.688C271.547 313.208 273.243 312.968 275.131 312.968C277.371 312.968 279.307 313.208 280.939 313.688C282.571 314.168 283.915 314.696 284.971 315.272L282.811 321.176C281.883 320.696 280.843 320.28 279.691 319.928C278.571 319.544 277.211 319.352 275.611 319.352C273.819 319.352 272.523 319.608 271.723 320.12C270.955 320.6 270.571 321.352 270.571 322.376C270.571 322.984 270.715 323.496 271.003 323.912C271.291 324.328 271.691 324.712 272.203 325.064C272.747 325.384 273.355 325.688 274.027 325.976C274.731 326.232 275.499 326.504 276.331 326.792C278.059 327.432 279.563 328.072 280.843 328.712C282.123 329.32 283.179 330.04 284.011 330.872C284.875 331.704 285.515 332.68 285.931 333.8C286.347 334.92 286.555 336.28 286.555 337.88C286.555 340.984 285.467 343.4 283.291 345.128C281.115 346.824 277.835 347.672 273.451 347.672C271.979 347.672 270.651 347.576 269.467 347.384C268.283 347.224 267.227 347.016 266.299 346.76C265.403 346.504 264.619 346.232 263.947 345.944C263.307 345.656 262.763 345.384 262.315 345.128L264.427 339.176C265.419 339.72 266.635 340.216 268.075 340.664C269.547 341.08 271.339 341.288 273.451 341.288ZM299.805 340.904C300.157 340.936 300.557 340.968 301.005 341C301.485 341 302.045 341 302.685 341C306.429 341 309.197 340.056 310.989 338.168C312.813 336.28 313.725 333.672 313.725 330.344C313.725 326.856 312.861 324.216 311.133 322.424C309.405 320.632 306.669 319.736 302.925 319.736C302.413 319.736 301.885 319.752 301.341 319.784C300.797 319.784 300.285 319.816 299.805 319.88V340.904ZM321.453 330.344C321.453 333.224 321.005 335.736 320.109 337.88C319.213 340.024 317.933 341.8 316.269 343.208C314.637 344.616 312.637 345.672 310.269 346.376C307.901 347.08 305.245 347.432 302.301 347.432C300.957 347.432 299.389 347.368 297.597 347.24C295.805 347.144 294.045 346.92 292.317 346.568V314.168C294.045 313.848 295.837 313.64 297.693 313.544C299.581 313.416 301.197 313.352 302.541 313.352C305.389 313.352 307.965 313.672 310.269 314.312C312.605 314.952 314.605 315.96 316.269 317.336C317.933 318.712 319.213 320.472 320.109 322.616C321.005 324.76 321.453 327.336 321.453 330.344ZM347.339 347C346.667 345.912 345.867 344.744 344.939 343.496C344.043 342.216 343.051 340.952 341.963 339.704C340.907 338.424 339.803 337.208 338.651 336.056C337.499 334.872 336.347 333.832 335.195 332.936V347H327.707V313.736H335.195V326.312C337.147 324.264 339.099 322.136 341.051 319.928C343.035 317.688 344.875 315.624 346.571 313.736H355.451C353.179 316.424 350.891 319.016 348.587 321.512C346.315 324.008 343.915 326.52 341.387 329.048C344.043 331.256 346.603 333.88 349.067 336.92C351.563 339.96 353.947 343.32 356.219 347H347.339ZM369.891 338.168C369.891 336.952 370.067 335.848 370.419 334.856C370.771 333.832 371.235 332.92 371.811 332.12C372.419 331.288 373.107 330.568 373.875 329.96C374.675 329.32 375.507 328.76 376.371 328.28C375.603 327.352 374.915 326.36 374.307 325.304C373.699 324.216 373.395 323.032 373.395 321.752C373.395 318.936 374.243 316.776 375.939 315.272C377.635 313.736 379.971 312.968 382.947 312.968C384.451 312.968 385.763 313.176 386.883 313.592C388.003 313.976 388.931 314.52 389.667 315.224C390.435 315.896 391.011 316.696 391.395 317.624C391.779 318.52 391.971 319.496 391.971 320.552C391.971 322.504 391.411 324.248 390.291 325.784C389.203 327.288 387.811 328.552 386.115 329.576L391.491 334.952C391.779 334.312 392.051 333.512 392.307 332.552C392.595 331.56 392.771 330.696 392.835 329.96L398.787 330.728C398.723 331.336 398.611 332.008 398.451 332.744C398.291 333.448 398.083 334.168 397.827 334.904C397.603 335.64 397.331 336.376 397.011 337.112C396.723 337.848 396.403 338.52 396.051 339.128C397.075 340.28 398.067 341.544 399.027 342.92C400.019 344.264 400.867 345.624 401.571 347H394.227C393.971 346.584 393.619 346.072 393.171 345.464C392.723 344.824 392.275 344.28 391.827 343.832C390.547 344.856 389.059 345.72 387.363 346.424C385.667 347.096 383.763 347.432 381.651 347.432C379.411 347.432 377.539 347.16 376.035 346.616C374.531 346.04 373.315 345.32 372.387 344.456C371.491 343.56 370.851 342.568 370.467 341.48C370.083 340.36 369.891 339.256 369.891 338.168ZM376.563 337.448C376.563 337.928 376.659 338.424 376.851 338.936C377.043 339.448 377.347 339.928 377.763 340.376C378.211 340.792 378.771 341.144 379.443 341.432C380.115 341.688 380.931 341.816 381.891 341.816C383.235 341.816 384.403 341.64 385.395 341.288C386.419 340.936 387.267 340.472 387.939 339.896L380.259 332.168C379.811 332.392 379.363 332.664 378.915 332.984C378.499 333.304 378.115 333.688 377.763 334.136C377.411 334.552 377.123 335.032 376.899 335.576C376.675 336.12 376.563 336.744 376.563 337.448ZM385.875 320.888C385.875 320.152 385.635 319.496 385.155 318.92C384.675 318.344 383.875 318.056 382.755 318.056C381.731 318.056 380.931 318.376 380.355 319.016C379.811 319.624 379.539 320.424 379.539 321.416C379.539 322.248 379.779 323.064 380.259 323.864C380.739 324.632 381.363 325.368 382.131 326.072C383.155 325.496 384.035 324.808 384.771 324.008C385.507 323.208 385.875 322.168 385.875 320.888ZM417.426 347V313.736H439.698V320.024H424.914V326.984H438.066V333.272H424.914V347H417.426ZM454.588 347.48C452.508 347.448 450.812 347.224 449.5 346.808C448.22 346.392 447.196 345.816 446.428 345.08C445.692 344.312 445.18 343.4 444.892 342.344C444.636 341.256 444.508 340.04 444.508 338.696V310.904L451.66 309.752V337.256C451.66 337.896 451.708 338.472 451.804 338.984C451.9 339.496 452.076 339.928 452.332 340.28C452.62 340.632 453.02 340.92 453.532 341.144C454.044 341.368 454.732 341.512 455.596 341.576L454.588 347.48ZM481.248 346.136C480.032 346.488 478.464 346.808 476.544 347.096C474.624 347.416 472.608 347.576 470.496 347.576C468.352 347.576 466.56 347.288 465.12 346.712C463.712 346.136 462.592 345.336 461.76 344.312C460.928 343.256 460.336 342.008 459.984 340.568C459.632 339.128 459.456 337.544 459.456 335.816V321.752H466.608V334.952C466.608 337.256 466.912 338.92 467.52 339.944C468.128 340.968 469.264 341.48 470.928 341.48C471.44 341.48 471.984 341.464 472.56 341.432C473.136 341.368 473.648 341.304 474.096 341.24V321.752H481.248V346.136ZM487.722 315.464L494.874 314.312V321.752H503.466V327.704H494.874V336.584C494.874 338.088 495.13 339.288 495.642 340.184C496.186 341.08 497.258 341.528 498.858 341.528C499.626 341.528 500.41 341.464 501.21 341.336C502.042 341.176 502.794 340.968 503.466 340.712L504.474 346.28C503.61 346.632 502.65 346.936 501.594 347.192C500.538 347.448 499.242 347.576 497.706 347.576C495.754 347.576 494.138 347.32 492.858 346.808C491.578 346.264 490.554 345.528 489.786 344.6C489.018 343.64 488.474 342.488 488.154 341.144C487.866 339.8 487.722 338.312 487.722 336.68V315.464ZM509.05 315.464L516.202 314.312V321.752H524.794V327.704H516.202V336.584C516.202 338.088 516.458 339.288 516.97 340.184C517.514 341.08 518.586 341.528 520.186 341.528C520.954 341.528 521.738 341.464 522.538 341.336C523.37 341.176 524.122 340.968 524.794 340.712L525.802 346.28C524.938 346.632 523.978 346.936 522.922 347.192C521.866 347.448 520.57 347.576 519.034 347.576C517.082 347.576 515.466 347.32 514.186 346.808C512.906 346.264 511.882 345.528 511.114 344.6C510.346 343.64 509.802 342.488 509.482 341.144C509.194 339.8 509.05 338.312 509.05 336.68V315.464ZM528.48 334.568C528.48 332.328 528.816 330.376 529.488 328.712C530.192 327.016 531.104 325.608 532.224 324.488C533.344 323.368 534.624 322.52 536.064 321.944C537.536 321.368 539.04 321.08 540.576 321.08C544.16 321.08 546.992 322.184 549.072 324.392C551.152 326.568 552.192 329.784 552.192 334.04C552.192 334.456 552.176 334.92 552.144 335.432C552.112 335.912 552.08 336.344 552.048 336.728H535.824C535.984 338.2 536.672 339.368 537.888 340.232C539.104 341.096 540.736 341.528 542.784 341.528C544.096 341.528 545.376 341.416 546.624 341.192C547.904 340.936 548.944 340.632 549.744 340.28L550.704 346.088C550.32 346.28 549.808 346.472 549.168 346.664C548.528 346.856 547.808 347.016 547.008 347.144C546.24 347.304 545.408 347.432 544.512 347.528C543.616 347.624 542.72 347.672 541.824 347.672C539.552 347.672 537.568 347.336 535.872 346.664C534.208 345.992 532.816 345.08 531.696 343.928C530.608 342.744 529.792 341.352 529.248 339.752C528.736 338.152 528.48 336.424 528.48 334.568ZM545.28 331.832C545.248 331.224 545.136 330.632 544.944 330.056C544.784 329.48 544.512 328.968 544.128 328.52C543.776 328.072 543.312 327.704 542.736 327.416C542.192 327.128 541.504 326.984 540.672 326.984C539.872 326.984 539.184 327.128 538.608 327.416C538.032 327.672 537.552 328.024 537.168 328.472C536.784 328.92 536.48 329.448 536.256 330.056C536.064 330.632 535.92 331.224 535.824 331.832H545.28ZM572.928 328.088C572.288 327.928 571.536 327.768 570.672 327.608C569.808 327.416 568.88 327.32 567.888 327.32C567.44 327.32 566.896 327.368 566.256 327.464C565.648 327.528 565.184 327.608 564.864 327.704V347H557.712V323.096C558.992 322.648 560.496 322.232 562.224 321.848C563.984 321.432 565.936 321.224 568.08 321.224C568.464 321.224 568.928 321.256 569.472 321.32C570.016 321.352 570.56 321.416 571.104 321.512C571.648 321.576 572.192 321.672 572.736 321.8C573.28 321.896 573.744 322.024 574.128 322.184L572.928 328.088Z" fill="white"/>
<path d="M398 190L413.789 205.789L479.579 140H448L398 190ZM479.579 187.368H448L421.684 213.684L448 240H479.579L453.263 213.684L479.579 187.368Z" fill="white"/>
<path d="M247.5 160C201.661 160 164.04 195.152 160 240H335C330.96 195.152 293.339 160 247.5 160ZM280.965 207.43C280.965 203.399 284.228 200.131 288.253 200.131C292.278 200.131 295.541 203.399 295.541 207.43C295.541 211.46 292.278 214.728 288.253 214.728C284.228 214.728 280.965 211.46 280.965 207.43ZM206.747 214.728C202.722 214.728 199.459 211.46 199.459 207.43C199.459 203.399 202.722 200.131 206.747 200.131C210.772 200.131 214.035 203.399 214.035 207.43C214.035 211.46 210.772 214.728 206.747 214.728Z" fill="white"/>
<path d="M284 179C283.488 179 282.973 178.872 282.501 178.597C281.065 177.766 280.575 175.928 281.401 174.489L300.397 141.508C301.227 140.065 303.062 139.571 304.499 140.406C305.935 141.237 306.425 143.075 305.599 144.514L286.603 177.495C286.047 178.462 285.038 179 284 179Z" fill="white"/>
<path d="M210.998 179C209.96 179 208.951 178.458 208.396 177.495L189.403 144.514C188.573 143.075 189.067 141.237 190.5 140.406C191.932 139.571 193.771 140.065 194.601 141.508L213.597 174.489C214.427 175.932 213.933 177.77 212.497 178.597C212.025 178.872 211.51 179 210.998 179Z" fill="white"/>
</g>
<defs>
<clipPath id="clip0_2_28">
<rect width="640" height="470" fill="white"/>
</clipPath>
</defs>
</svg>
