<?xml version="1.0" encoding="utf-8"?>
<!-- Generator: Adobe Illustrator 24.0.2, SVG Export Plug-In . SVG Version: 6.00 Build 0)  -->
<svg version="1.1" xmlns="http://www.w3.org/2000/svg" xmlns:xlink="http://www.w3.org/1999/xlink" x="0px" y="0px" width="640px"
	 height="470px" viewBox="0 0 640 470" style="enable-background:new 0 0 640 470;" xml:space="preserve">
<style type="text/css">
	.st0{fill:#B84E91;}
	.st1{fill:#FFFFFF;}
	.st2{fill-rule:evenodd;clip-rule:evenodd;fill:#FFFFFF;}
	.st3{fill:#E6E7E8;}
	.st4{fill:url(#SVGID_1_);stroke:#FFFFFF;stroke-width:5;stroke-miterlimit:10;}
</style>
<g id="Layer_1">
	<rect y="-85" class="st0" width="640" height="640"/>
	<g>
		<path class="st1" d="M317.7,121c1.4-0.1,2.8-0.2,4.3-0.2c26,1,47,21.8,48,47.9v39.3c0,7.1-5.8,12.8-12.9,12.8
			c-6.5-1-11.4-6.3-12-12.8v-39.3c-1.1-13.7-13.1-24-26.8-22.9c-0.2,0-0.3,0-0.5,0"/>
		<path class="st3" d="M370,208.4c0,6.9-5.6,12.5-12.5,12.5s-12.5-5.6-12.5-12.5c0-6.9,5.6-12.5,12.5-12.5S370,201.5,370,208.4z"/>
		<path class="st3" d="M318.4,220.4c7.1,0.1,12.9-5.6,13-12.6c0,0,0,0,0-0.1c-0.2-6.9-6-12.3-12.8-12.1c-0.1,0-0.2,0-0.3,0
			c-13.6-1-23.9-12.9-23-26.6v-0.2c1-12.3,10.8-22,23.1-23c6.9,0.3,12.7-5.1,13-12c0-0.1,0-0.1,0-0.2c-0.1-7.1-5.9-12.8-13-12.7l0,0
			h-0.9c-26.5,1.2-47.4,23-47.6,49.6v0.2c0,31.2,27.3,49.7,47.7,49.7L318.4,220.4L318.4,220.4z"/>
	</g>
	<g>
		<path class="st1" d="M152.1,331.5c-13.1,0-23.8-10.5-23.9-23.6c0.2-13.1,10.8-23.6,23.9-23.6c6.1-0.1,11.9,2.3,16.2,6.5l-4.4,4.5
			c-3.1-3-7.3-4.6-11.6-4.6c-9.3,0-16.9,7.6-16.9,16.9c0,0.1,0,0.1,0,0.2c-0.1,9.3,7.4,17,16.7,17.1c0.1,0,0.1,0,0.2,0
			c4.5,0.2,8.8-1.5,12-4.7c2.1-2.2,3.3-5.1,3.5-8.1h-15.6v-6.4h21.7c0.2,1.3,0.4,2.7,0.3,4c0.2,5.6-1.8,11-5.6,15.1
			C164.3,329.3,158.2,331.7,152.1,331.5z M207.7,316.3c0.3,8.3-6.1,15.3-14.4,15.6c-8.3,0.3-15.3-6.1-15.6-14.4c0-0.4,0-0.8,0-1.2
			c-0.3-8.3,6.1-15.3,14.4-15.6c8.3-0.3,15.3,6.1,15.6,14.4C207.7,315.5,207.7,315.9,207.7,316.3z M201.2,316.3
			c0.5-4.7-3-8.8-7.6-9.2c-4.7-0.5-8.8,3-9.2,7.6c0,0.5,0,1,0,1.6c-0.5,4.7,3,8.8,7.6,9.2c4.7,0.5,8.8-3,9.2-7.6
			C201.2,317.3,201.2,316.8,201.2,316.3z M241.4,316.3c0.3,8.3-6.1,15.3-14.4,15.6c-8.3,0.3-15.3-6.1-15.6-14.4c0-0.4,0-0.8,0-1.3
			c-0.3-8.3,6.1-15.3,14.4-15.6c8.3-0.3,15.3,6.1,15.6,14.4C241.4,315.4,241.4,315.9,241.4,316.3z M234.8,316.3
			c0.5-4.7-3-8.8-7.6-9.2c-4.7-0.5-8.8,3-9.2,7.6c0,0.5,0,1.1,0,1.6c-0.5,4.7,3,8.8,7.6,9.2c4.7,0.5,8.8-3,9.2-7.6
			C234.8,317.4,234.8,316.8,234.8,316.3z M274.1,302v27.4c0,11.3-6.6,15.9-14.5,15.9c-5.9,0-11.2-3.5-13.5-9l5.8-2.5
			c1.2,3.2,4.2,5.3,7.6,5.4c5.1,0,8.1-3.1,8.1-8.9V328h-0.2c-2,2.3-4.9,3.6-8,3.5c-8.4,0-15.2-6.8-15.2-15.2
			c0-8.4,6.8-15.2,15.2-15.2c3-0.1,6,1.2,8,3.4h0.3V302C267.8,301.9,274.1,302,274.1,302z M268.2,316.3c0.4-4.7-3.1-8.9-7.8-9.3
			c-0.1,0-0.2,0-0.2,0c-4.8,0.2-8.6,4.3-8.5,9.1c0,0.1,0,0.1,0,0.2c-0.2,4.8,3.5,8.9,8.3,9.1c0.1,0,0.1,0,0.2,0
			c4.7-0.2,8.3-4.2,8.1-8.9C268.2,316.5,268.2,316.4,268.2,316.3L268.2,316.3z M285.8,285.9v44.7h-6.7v-44.7H285.8z M312.1,321.3
			l5.1,3.5c-2.8,4.2-7.6,6.8-12.7,6.7c-8.1,0.1-14.8-6.4-14.9-14.5c0-0.2,0-0.5,0-0.7c0-9.1,6.3-15.2,14.2-15.2c6,0.2,11.2,4,13,9.7
			l0.7,1.7l-20.3,8.5c1.3,2.9,4.2,4.7,7.4,4.6C307.6,325.5,310.5,323.9,312.1,321.3L312.1,321.3z M296.2,315.8l13.6-5.6
			c-1-2.1-3.3-3.4-5.6-3.2c-4.6,0.2-8.2,4.1-8,8.7C296.1,315.7,296.1,315.8,296.2,315.8L296.2,315.8z"/>
		<path class="st2" d="M334.6,331.3l15.3-40.5h5.9l15.3,40.5h-5.8l-3.9-11h-17l-4,11H334.6z M346,315.5h13.5l-6.6-18.3h-0.2
			L346,315.5L346,315.5z M385.3,332.2c-3.6,0-6.7-1.4-9.3-4.3c-2.6-2.8-3.9-6.3-3.9-10.5s1.3-7.7,3.9-10.5c2.6-2.8,5.7-4.3,9.3-4.3
			c2.1,0,4,0.5,5.7,1.4c1.7,0.9,2.9,2,3.8,3.4h0.2l-0.2-3.8v-12.7h5.2v40.5h-5v-3.8h-0.2c-0.8,1.4-2.1,2.5-3.8,3.4
			C389.3,331.8,387.4,332.2,385.3,332.2z M386.2,327.4c2.4,0,4.5-0.9,6.2-2.7c1.7-1.8,2.6-4.3,2.6-7.3s-0.9-5.5-2.6-7.3
			c-1.7-1.8-3.8-2.7-6.2-2.7c-2.4,0-4.5,0.9-6.2,2.8c-1.7,1.8-2.6,4.3-2.6,7.2s0.9,5.4,2.6,7.2C381.7,326.5,383.8,327.4,386.2,327.4
			z M406.9,331.3v-40.5h5.2l14.1,24.6h0.2l14.1-24.6h5.2v40.5h-5.2v-24l0.2-6.8h-0.2l-12.7,22.2h-3.1l-12.7-22.2h-0.2l0.2,6.8v24
			C412.1,331.3,406.9,331.3,406.9,331.3z M455.1,306.9c2.7-2.8,6.1-4.3,10.2-4.3s7.6,1.4,10.2,4.2c2.7,2.8,4,6.3,4,10.5
			s-1.3,7.7-4,10.5c-2.7,2.8-6.1,4.2-10.2,4.2s-7.6-1.4-10.2-4.2c-2.7-2.8-4-6.3-4-10.5S452.4,309.7,455.1,306.9z M458.9,324.8
			c1.8,1.8,3.9,2.7,6.4,2.7s4.6-0.9,6.3-2.8c1.8-1.8,2.7-4.3,2.7-7.2c0-3-0.9-5.4-2.7-7.2c-1.8-1.8-3.9-2.8-6.3-2.8
			s-4.6,0.9-6.3,2.8c-1.8,1.8-2.7,4.3-2.7,7.2C456.3,320.5,457.2,322.9,458.9,324.8z M498.7,332.2c-2.1,0-4-0.5-5.7-1.4
			c-1.7-0.9-2.9-2-3.8-3.4H489v3.8h-5v-40.5h5.2v12.8l-0.2,3.8h0.2c0.8-1.4,2.1-2.5,3.8-3.4c1.7-0.9,3.6-1.4,5.7-1.4
			c3.6,0,6.7,1.4,9.3,4.3c2.6,2.8,3.9,6.3,3.9,10.5s-1.3,7.7-3.9,10.5C505.4,330.8,502.3,332.2,498.7,332.2z M497.9,327.4
			c2.4,0,4.5-0.9,6.2-2.8c1.7-1.8,2.6-4.3,2.6-7.2s-0.9-5.4-2.6-7.2c-1.7-1.8-3.8-2.8-6.2-2.8c-2.4,0-4.5,0.9-6.2,2.7
			c-1.7,1.8-2.6,4.3-2.6,7.3s0.9,5.5,2.6,7.3C493.3,326.5,495.4,327.4,497.9,327.4z"/>
	</g>
</g>
<g id="Guides">
</g>
</svg>
