<?xml version="1.0" encoding="utf-8"?>
<!-- Generator: Adobe Illustrator 24.0.2, SVG Export Plug-In . SVG Version: 6.00 Build 0)  -->
<svg version="1.1" xmlns="http://www.w3.org/2000/svg" xmlns:xlink="http://www.w3.org/1999/xlink" x="0px" y="0px" width="640px"
	 height="470px" viewBox="0 0 640 470" style="enable-background:new 0 0 640 470;" xml:space="preserve">
<style type="text/css">
	.st0{fill:#B84E91;}
	.st1{fill:#FFFFFF;}
	.st2{fill-rule:evenodd;clip-rule:evenodd;fill:#FFFFFF;}
	.st3{fill:#E6E7E8;}
	.st4{fill:url(#SVGID_1_);stroke:#FFFFFF;stroke-width:5;stroke-miterlimit:10;}
</style>
<g id="Layer_1">
	<rect x="0" y="-85" class="st0" width="640" height="640"/>
	<path class="st1" d="M373.5,166.4c-0.5-22.8-19.1-41.1-42.1-41.1c-15.9,0-29.7,8.8-36.9,21.8c-3.2-1.9-7-2.9-11-2.9
		c-11.6,0-21.2,9-22,20.4c-11.5,4.7-19.6,16-19.6,29.2c0,17.4,14.1,31.5,31.5,31.5h94.8c16.4,0,29.7-13.3,29.7-29.7
		C398,181,387.4,168.9,373.5,166.4z"/>
	<g>
		<path class="st1" d="M209.3,328.2v-35.8h15.2c3.8,0,6.6,0.3,8.3,1s3.1,1.8,4.2,3.4c1,1.6,1.6,3.5,1.6,5.6c0,2.7-0.8,4.9-2.4,6.7
			c-1.6,1.8-3.9,2.9-7.1,3.3c1.6,0.9,2.9,1.9,3.9,3c1,1.1,2.4,3,4.1,5.8l4.4,7h-8.6l-5.2-7.8c-1.9-2.8-3.1-4.5-3.8-5.3
			s-1.4-1.2-2.2-1.5c-0.8-0.3-2-0.4-3.6-0.4h-1.5v14.9H209.3z M216.5,307.6h5.3c3.5,0,5.6-0.1,6.5-0.4c0.9-0.3,1.5-0.8,2-1.5
			c0.5-0.7,0.7-1.6,0.7-2.7c0-1.2-0.3-2.2-1-2.9s-1.6-1.2-2.7-1.4c-0.6-0.1-2.3-0.1-5.3-0.1h-5.6V307.6z"/>
		<path class="st1" d="M245.4,328.2v-35.8h26.5v6.1h-19.3v7.9h18v6h-18v9.7h20v6H245.4z"/>
		<path class="st1" d="M276.9,316.6l7-0.7c0.4,2.4,1.3,4.1,2.6,5.2c1.3,1.1,3,1.7,5.2,1.7c2.3,0,4.1-0.5,5.3-1.5s1.8-2.1,1.8-3.5
			c0-0.8-0.2-1.6-0.7-2.2s-1.4-1.1-2.6-1.6c-0.8-0.3-2.8-0.8-5.8-1.6c-3.9-1-6.6-2.1-8.2-3.5c-2.2-2-3.3-4.4-3.3-7.2
			c0-1.8,0.5-3.5,1.5-5.1c1-1.6,2.5-2.8,4.5-3.6s4.3-1.2,7-1.2c4.5,0,7.9,1,10.1,3c2.3,2,3.5,4.6,3.6,7.9l-7.2,0.3
			c-0.3-1.8-1-3.2-2-4c-1-0.8-2.5-1.2-4.6-1.2c-2.1,0-3.7,0.4-4.9,1.3c-0.8,0.6-1.1,1.3-1.1,2.2c0,0.8,0.4,1.6,1.1,2.2
			c0.9,0.8,3.1,1.6,6.6,2.4s6.1,1.7,7.8,2.6s3,2.1,4,3.6s1.4,3.4,1.4,5.7c0,2.1-0.6,4-1.7,5.8c-1.1,1.8-2.8,3.1-4.8,4
			c-2.1,0.9-4.7,1.3-7.8,1.3c-4.5,0-8-1-10.4-3.1C278.8,323.6,277.4,320.6,276.9,316.6z"/>
		<path class="st1" d="M320.1,328.2v-29.7h-10.6v-6.1H338v6.1h-10.6v29.7H320.1z"/>
		<path class="st1" d="M386.9,328.2h-7.9l-3.1-8.1h-14.3l-3,8.1H351l13.9-35.8h7.6L386.9,328.2z M373.6,314.1l-4.9-13.3l-4.8,13.3
			H373.6z"/>
		<path class="st1" d="M390.8,328.2v-35.8h11.6c4.4,0,7.3,0.2,8.6,0.5c2.1,0.5,3.8,1.7,5.2,3.5c1.4,1.8,2.1,4.1,2.1,7
			c0,2.2-0.4,4-1.2,5.5c-0.8,1.5-1.8,2.7-3,3.5s-2.5,1.4-3.7,1.7c-1.7,0.3-4.2,0.5-7.5,0.5H398v13.5H390.8z M398,298.5v10.2h4
			c2.8,0,4.8-0.2,5.7-0.6c1-0.4,1.7-1,2.3-1.8c0.5-0.8,0.8-1.7,0.8-2.8c0-1.3-0.4-2.4-1.1-3.2c-0.8-0.8-1.7-1.4-2.9-1.6
			c-0.9-0.2-2.6-0.2-5.2-0.2H398z"/>
		<path class="st1" d="M423.9,328.2v-35.8h7.2v35.8H423.9z"/>
	</g>
</g>
<g id="Guides">
</g>
</svg>
