<svg width="640" height="470" viewBox="0 0 640 470" fill="none" xmlns="http://www.w3.org/2000/svg">
<g clip-path="url(#clip0_1_2)">
<path d="M640 0H0V470H640V0Z" fill="#B84E91"/>
<path d="M129.472 347C128.8 345.912 128 344.744 127.072 343.496C126.176 342.216 125.184 340.952 124.096 339.704C123.04 338.424 121.936 337.208 120.784 336.056C119.632 334.872 118.48 333.832 117.328 332.936V347H109.84V313.736H117.328V326.312C119.28 324.264 121.232 322.136 123.184 319.928C125.168 317.688 127.008 315.624 128.704 313.736H137.584C135.312 316.424 133.024 319.016 130.72 321.512C128.448 324.008 126.048 326.52 123.52 329.048C126.176 331.256 128.736 333.88 131.2 336.92C133.696 339.96 136.08 343.32 138.352 347H129.472ZM163.867 334.328C163.867 336.312 163.579 338.136 163.003 339.8C162.427 341.432 161.595 342.84 160.507 344.024C159.419 345.176 158.107 346.072 156.571 346.712C155.067 347.352 153.371 347.672 151.483 347.672C149.627 347.672 147.931 347.352 146.395 346.712C144.891 346.072 143.595 345.176 142.507 344.024C141.419 342.84 140.571 341.432 139.963 339.8C139.355 338.136 139.051 336.312 139.051 334.328C139.051 332.344 139.355 330.536 139.963 328.904C140.603 327.272 141.467 325.88 142.555 324.728C143.675 323.576 144.987 322.68 146.491 322.04C148.027 321.4 149.691 321.08 151.483 321.08C153.307 321.08 154.971 321.4 156.475 322.04C158.011 322.68 159.323 323.576 160.411 324.728C161.499 325.88 162.347 327.272 162.955 328.904C163.563 330.536 163.867 332.344 163.867 334.328ZM156.571 334.328C156.571 332.12 156.123 330.392 155.227 329.144C154.363 327.864 153.115 327.224 151.483 327.224C149.851 327.224 148.587 327.864 147.691 329.144C146.795 330.392 146.347 332.12 146.347 334.328C146.347 336.536 146.795 338.296 147.691 339.608C148.587 340.888 149.851 341.528 151.483 341.528C153.115 341.528 154.363 340.888 155.227 339.608C156.123 338.296 156.571 336.536 156.571 334.328ZM169.167 315.464L176.319 314.312V321.752H184.911V327.704H176.319V336.584C176.319 338.088 176.575 339.288 177.087 340.184C177.631 341.08 178.703 341.528 180.303 341.528C181.071 341.528 181.855 341.464 182.655 341.336C183.487 341.176 184.239 340.968 184.911 340.712L185.919 346.28C185.055 346.632 184.095 346.936 183.039 347.192C181.983 347.448 180.687 347.576 179.151 347.576C177.199 347.576 175.583 347.32 174.303 346.808C173.023 346.264 171.999 345.528 171.231 344.6C170.463 343.64 169.919 342.488 169.599 341.144C169.311 339.8 169.167 338.312 169.167 336.68V315.464ZM200.815 347.48C198.735 347.448 197.039 347.224 195.727 346.808C194.447 346.392 193.423 345.816 192.655 345.08C191.919 344.312 191.407 343.4 191.119 342.344C190.863 341.256 190.735 340.04 190.735 338.696V310.904L197.887 309.752V337.256C197.887 337.896 197.935 338.472 198.031 338.984C198.127 339.496 198.303 339.928 198.559 340.28C198.847 340.632 199.247 340.92 199.759 341.144C200.271 341.368 200.959 341.512 201.823 341.576L200.815 347.48ZM213.075 347H205.923V321.752H213.075V347ZM213.747 314.456C213.747 315.768 213.315 316.808 212.451 317.576C211.619 318.312 210.627 318.68 209.475 318.68C208.323 318.68 207.315 318.312 206.451 317.576C205.619 316.808 205.203 315.768 205.203 314.456C205.203 313.144 205.619 312.12 206.451 311.384C207.315 310.616 208.323 310.232 209.475 310.232C210.627 310.232 211.619 310.616 212.451 311.384C213.315 312.12 213.747 313.144 213.747 314.456ZM219.798 322.616C221.014 322.264 222.582 321.944 224.502 321.656C226.422 321.336 228.438 321.176 230.549 321.176C232.694 321.176 234.47 321.464 235.878 322.04C237.318 322.584 238.454 323.368 239.286 324.392C240.118 325.416 240.71 326.632 241.062 328.04C241.414 329.448 241.59 331.016 241.59 332.744V347H234.438V333.608C234.438 331.304 234.134 329.672 233.526 328.712C232.918 327.752 231.782 327.272 230.118 327.272C229.606 327.272 229.062 327.304 228.486 327.368C227.91 327.4 227.398 327.448 226.95 327.512V347H219.798V322.616ZM254.831 339.704C254.895 340.472 254.927 341.016 254.927 341.336C254.959 341.656 254.975 341.928 254.975 342.152C254.975 343.112 254.879 344.136 254.687 345.224C254.527 346.28 254.287 347.352 253.967 348.44C253.647 349.528 253.247 350.616 252.767 351.704C252.287 352.792 251.743 353.832 251.135 354.824L245.519 353.432C246.255 351.32 246.767 349.336 247.055 347.48C247.343 345.624 247.487 344.088 247.487 342.872C247.487 342.68 247.471 342.44 247.439 342.152C247.439 341.832 247.423 341.512 247.391 341.192C247.391 340.872 247.375 340.568 247.343 340.28C247.343 339.992 247.343 339.8 247.343 339.704H254.831ZM279.375 340.904C279.727 340.936 280.127 340.968 280.575 341C281.055 341 281.615 341 282.255 341C285.999 341 288.767 340.056 290.559 338.168C292.383 336.28 293.295 333.672 293.295 330.344C293.295 326.856 292.431 324.216 290.703 322.424C288.975 320.632 286.239 319.736 282.495 319.736C281.983 319.736 281.455 319.752 280.911 319.784C280.367 319.784 279.855 319.816 279.375 319.88V340.904ZM301.023 330.344C301.023 333.224 300.575 335.736 299.679 337.88C298.783 340.024 297.503 341.8 295.839 343.208C294.207 344.616 292.207 345.672 289.839 346.376C287.471 347.08 284.815 347.432 281.871 347.432C280.527 347.432 278.959 347.368 277.167 347.24C275.375 347.144 273.615 346.92 271.887 346.568V314.168C273.615 313.848 275.407 313.64 277.263 313.544C279.151 313.416 280.767 313.352 282.111 313.352C284.959 313.352 287.535 313.672 289.839 314.312C292.175 314.952 294.175 315.96 295.839 317.336C297.503 318.712 298.783 320.472 299.679 322.616C300.575 324.76 301.023 327.336 301.023 330.344ZM316.446 342.008C317.15 342.008 317.822 341.992 318.462 341.96C319.102 341.928 319.614 341.88 319.998 341.816V336.392C319.71 336.328 319.278 336.264 318.702 336.2C318.126 336.136 317.598 336.104 317.118 336.104C316.446 336.104 315.806 336.152 315.198 336.248C314.622 336.312 314.11 336.456 313.662 336.68C313.214 336.904 312.862 337.208 312.606 337.592C312.35 337.976 312.222 338.456 312.222 339.032C312.222 340.152 312.59 340.936 313.326 341.384C314.094 341.8 315.134 342.008 316.446 342.008ZM315.87 321.08C317.982 321.08 319.742 321.32 321.15 321.8C322.558 322.28 323.678 322.968 324.51 323.864C325.374 324.76 325.982 325.848 326.334 327.128C326.686 328.408 326.862 329.832 326.862 331.4V346.28C325.838 346.504 324.414 346.76 322.59 347.048C320.766 347.368 318.558 347.528 315.966 347.528C314.334 347.528 312.846 347.384 311.502 347.096C310.19 346.808 309.054 346.344 308.094 345.704C307.134 345.032 306.398 344.168 305.886 343.112C305.374 342.056 305.118 340.76 305.118 339.224C305.118 337.752 305.406 336.504 305.982 335.48C306.59 334.456 307.39 333.64 308.382 333.032C309.374 332.424 310.51 331.992 311.79 331.736C313.07 331.448 314.398 331.304 315.773 331.304C316.702 331.304 317.518 331.352 318.222 331.448C318.958 331.512 319.55 331.608 319.998 331.736V331.064C319.998 329.848 319.63 328.872 318.894 328.136C318.158 327.4 316.878 327.032 315.054 327.032C313.838 327.032 312.638 327.128 311.454 327.32C310.27 327.48 309.246 327.72 308.382 328.04L307.47 322.28C307.886 322.152 308.398 322.024 309.006 321.896C309.646 321.736 310.334 321.608 311.07 321.512C311.806 321.384 312.574 321.288 313.374 321.224C314.206 321.128 315.038 321.08 315.87 321.08ZM348.545 328.088C347.905 327.928 347.153 327.768 346.289 327.608C345.425 327.416 344.497 327.32 343.505 327.32C343.057 327.32 342.513 327.368 341.873 327.464C341.265 327.528 340.801 327.608 340.481 327.704V347H333.329V323.096C334.609 322.648 336.113 322.232 337.841 321.848C339.601 321.432 341.553 321.224 343.697 321.224C344.081 321.224 344.545 321.256 345.089 321.32C345.633 321.352 346.177 321.416 346.721 321.512C347.265 321.576 347.809 321.672 348.353 321.8C348.897 321.896 349.361 322.024 349.745 322.184L348.545 328.088ZM353.339 315.464L360.491 314.312V321.752H369.083V327.704H360.491V336.584C360.491 338.088 360.747 339.288 361.259 340.184C361.803 341.08 362.875 341.528 364.475 341.528C365.243 341.528 366.027 341.464 366.827 341.336C367.659 341.176 368.411 340.968 369.083 340.712L370.091 346.28C369.227 346.632 368.267 346.936 367.211 347.192C366.155 347.448 364.859 347.576 363.323 347.576C361.371 347.576 359.755 347.32 358.475 346.808C357.195 346.264 356.171 345.528 355.403 344.6C354.635 343.64 354.091 342.488 353.771 341.144C353.483 339.8 353.339 338.312 353.339 336.68V315.464ZM384.758 338.168C384.758 336.952 384.934 335.848 385.286 334.856C385.638 333.832 386.102 332.92 386.678 332.12C387.286 331.288 387.974 330.568 388.742 329.96C389.542 329.32 390.374 328.76 391.238 328.28C390.47 327.352 389.782 326.36 389.174 325.304C388.566 324.216 388.262 323.032 388.262 321.752C388.262 318.936 389.11 316.776 390.806 315.272C392.502 313.736 394.838 312.968 397.814 312.968C399.318 312.968 400.63 313.176 401.75 313.592C402.87 313.976 403.798 314.52 404.534 315.224C405.302 315.896 405.878 316.696 406.262 317.624C406.646 318.52 406.838 319.496 406.838 320.552C406.838 322.504 406.278 324.248 405.158 325.784C404.07 327.288 402.678 328.552 400.982 329.576L406.358 334.952C406.646 334.312 406.918 333.512 407.174 332.552C407.462 331.56 407.638 330.696 407.702 329.96L413.654 330.728C413.59 331.336 413.478 332.008 413.318 332.744C413.158 333.448 412.95 334.168 412.694 334.904C412.47 335.64 412.198 336.376 411.878 337.112C411.59 337.848 411.27 338.52 410.918 339.128C411.942 340.28 412.934 341.544 413.894 342.92C414.886 344.264 415.734 345.624 416.438 347H409.094C408.838 346.584 408.486 346.072 408.038 345.464C407.59 344.824 407.142 344.28 406.694 343.832C405.414 344.856 403.926 345.72 402.23 346.424C400.534 347.096 398.63 347.432 396.518 347.432C394.278 347.432 392.406 347.16 390.902 346.616C389.398 346.04 388.182 345.32 387.254 344.456C386.358 343.56 385.718 342.568 385.334 341.48C384.95 340.36 384.758 339.256 384.758 338.168ZM391.43 337.448C391.43 337.928 391.526 338.424 391.718 338.936C391.91 339.448 392.214 339.928 392.63 340.376C393.078 340.792 393.638 341.144 394.31 341.432C394.982 341.688 395.798 341.816 396.758 341.816C398.102 341.816 399.27 341.64 400.262 341.288C401.286 340.936 402.134 340.472 402.806 339.896L395.126 332.168C394.678 332.392 394.23 332.664 393.782 332.984C393.366 333.304 392.982 333.688 392.63 334.136C392.278 334.552 391.99 335.032 391.766 335.576C391.542 336.12 391.43 336.744 391.43 337.448ZM400.742 320.888C400.742 320.152 400.502 319.496 400.022 318.92C399.542 318.344 398.742 318.056 397.622 318.056C396.598 318.056 395.798 318.376 395.222 319.016C394.678 319.624 394.406 320.424 394.406 321.416C394.406 322.248 394.646 323.064 395.126 323.864C395.606 324.632 396.23 325.368 396.998 326.072C398.022 325.496 398.902 324.808 399.638 324.008C400.374 323.208 400.742 322.168 400.742 320.888ZM450.485 335.816C450.485 337.448 450.293 338.984 449.909 340.424C449.557 341.864 448.917 343.128 447.989 344.216C447.093 345.272 445.861 346.12 444.293 346.76C442.757 347.368 440.805 347.672 438.437 347.672C436.261 347.672 434.389 347.416 432.821 346.904C431.253 346.36 429.957 345.736 428.933 345.032L431.429 339.224C432.357 339.768 433.349 340.248 434.405 340.664C435.461 341.08 436.613 341.288 437.861 341.288C439.685 341.288 440.997 340.84 441.797 339.944C442.597 339.048 442.997 337.544 442.997 335.432V313.736H450.485V335.816ZM466.867 342.008C467.571 342.008 468.243 341.992 468.883 341.96C469.523 341.928 470.035 341.88 470.419 341.816V336.392C470.131 336.328 469.699 336.264 469.123 336.2C468.547 336.136 468.019 336.104 467.539 336.104C466.867 336.104 466.227 336.152 465.619 336.248C465.043 336.312 464.531 336.456 464.083 336.68C463.635 336.904 463.283 337.208 463.027 337.592C462.771 337.976 462.643 338.456 462.643 339.032C462.643 340.152 463.011 340.936 463.747 341.384C464.515 341.8 465.555 342.008 466.867 342.008ZM466.291 321.08C468.403 321.08 470.163 321.32 471.571 321.8C472.979 322.28 474.099 322.968 474.931 323.864C475.795 324.76 476.403 325.848 476.755 327.128C477.107 328.408 477.283 329.832 477.283 331.4V346.28C476.259 346.504 474.835 346.76 473.011 347.048C471.187 347.368 468.979 347.528 466.387 347.528C464.755 347.528 463.267 347.384 461.923 347.096C460.611 346.808 459.475 346.344 458.515 345.704C457.555 345.032 456.819 344.168 456.307 343.112C455.795 342.056 455.539 340.76 455.539 339.224C455.539 337.752 455.827 336.504 456.403 335.48C457.011 334.456 457.811 333.64 458.803 333.032C459.795 332.424 460.931 331.992 462.211 331.736C463.491 331.448 464.819 331.304 466.195 331.304C467.123 331.304 467.939 331.352 468.643 331.448C469.379 331.512 469.971 331.608 470.419 331.736V331.064C470.419 329.848 470.051 328.872 469.315 328.136C468.579 327.4 467.299 327.032 465.475 327.032C464.259 327.032 463.059 327.128 461.875 327.32C460.691 327.48 459.667 327.72 458.803 328.04L457.891 322.28C458.307 322.152 458.819 322.024 459.427 321.896C460.067 321.736 460.755 321.608 461.491 321.512C462.227 321.384 462.995 321.288 463.795 321.224C464.627 321.128 465.459 321.08 466.291 321.08ZM490.005 347C488.373 343.8 486.709 340.056 485.013 335.768C483.349 331.48 481.765 326.808 480.261 321.752H487.845C488.165 323 488.533 324.36 488.949 325.832C489.397 327.272 489.845 328.744 490.293 330.248C490.773 331.72 491.237 333.16 491.685 334.568C492.165 335.976 492.629 337.256 493.077 338.408C493.493 337.256 493.941 335.976 494.421 334.568C494.901 333.16 495.365 331.72 495.813 330.248C496.293 328.744 496.741 327.272 497.157 325.832C497.605 324.36 497.989 323 498.309 321.752H505.701C504.197 326.808 502.597 331.48 500.901 335.768C499.237 340.056 497.589 343.8 495.957 347H490.005ZM518.711 342.008C519.415 342.008 520.087 341.992 520.727 341.96C521.367 341.928 521.879 341.88 522.263 341.816V336.392C521.975 336.328 521.543 336.264 520.967 336.2C520.391 336.136 519.863 336.104 519.383 336.104C518.711 336.104 518.071 336.152 517.463 336.248C516.887 336.312 516.375 336.456 515.927 336.68C515.479 336.904 515.127 337.208 514.871 337.592C514.615 337.976 514.487 338.456 514.487 339.032C514.487 340.152 514.855 340.936 515.591 341.384C516.359 341.8 517.399 342.008 518.711 342.008ZM518.135 321.08C520.247 321.08 522.007 321.32 523.415 321.8C524.823 322.28 525.943 322.968 526.775 323.864C527.639 324.76 528.247 325.848 528.599 327.128C528.951 328.408 529.127 329.832 529.127 331.4V346.28C528.103 346.504 526.679 346.76 524.855 347.048C523.031 347.368 520.823 347.528 518.231 347.528C516.599 347.528 515.111 347.384 513.767 347.096C512.455 346.808 511.319 346.344 510.359 345.704C509.399 345.032 508.663 344.168 508.151 343.112C507.639 342.056 507.383 340.76 507.383 339.224C507.383 337.752 507.671 336.504 508.247 335.48C508.855 334.456 509.655 333.64 510.647 333.032C511.639 332.424 512.775 331.992 514.055 331.736C515.335 331.448 516.663 331.304 518.039 331.304C518.967 331.304 519.783 331.352 520.487 331.448C521.223 331.512 521.815 331.608 522.263 331.736V331.064C522.263 329.848 521.895 328.872 521.159 328.136C520.423 327.4 519.143 327.032 517.319 327.032C516.103 327.032 514.903 327.128 513.719 327.32C512.535 327.48 511.511 327.72 510.647 328.04L509.735 322.28C510.151 322.152 510.663 322.024 511.271 321.896C511.911 321.736 512.599 321.608 513.335 321.512C514.071 321.384 514.839 321.288 515.639 321.224C516.471 321.128 517.303 321.08 518.135 321.08Z" fill="white"/>
<path d="M228 240H132.762L180.381 192.381L228 240ZM225.619 140L128 238.024V191.976L179.976 140H225.619ZM173.238 140L128 185.238V140H173.238Z" fill="white"/>
<path d="M468.121 113C475.127 129.212 443.002 139.224 440.016 152.729C437.279 165.14 459.104 179.561 459.124 179.561C455.81 174.425 453.372 170.195 450.048 162.204C444.425 148.689 484.293 136.457 468.121 113ZM489.459 135.452C489.459 135.452 461.274 137.264 459.841 155.277C459.204 163.299 467.255 167.518 467.484 173.35C467.673 178.117 462.707 182.108 462.707 182.108C462.707 182.108 471.744 180.387 474.57 173.111C477.705 165.04 468.459 159.586 469.395 153.127C470.291 146.947 489.459 135.452 489.459 135.452ZM445.191 177.092C445.191 177.092 419.395 176.724 419.395 184.019C419.395 191.643 453.163 192.21 477.277 187.522C477.277 187.522 483.686 183.113 485.398 181.471C469.594 184.696 433.567 185.054 433.567 182.268C433.567 179.7 445.191 177.092 445.191 177.092ZM494.793 177.092C492.265 177.291 489.538 178.267 487.07 180.038C492.882 178.784 497.818 182.387 497.818 186.487C497.818 195.723 484.443 204.401 484.443 204.401C484.443 204.401 505.143 202.053 505.143 186.885C505.143 179.998 500.356 176.654 494.793 177.092ZM438.981 191.264C435.02 191.264 429.108 194.369 429.108 197.315C429.108 203.237 458.885 207.795 480.939 199.146L473.296 194.449C458.348 199.236 430.82 197.674 438.981 191.264ZM442.643 204.561C437.219 204.561 433.646 207.835 433.646 210.293C433.646 217.896 466.041 218.663 478.869 210.93L470.748 205.755C461.164 209.805 437.11 210.422 442.643 204.561ZM424.57 211.408C415.732 211.229 410 215.199 410 218.494C410 236.01 500.446 235.203 500.446 217.299C500.446 214.324 497.012 212.881 495.748 212.204C503.143 229.322 421.704 227.958 421.704 217.857C421.704 215.558 427.695 213.358 433.248 214.433L428.551 211.726C427.168 211.517 425.834 211.438 424.57 211.408ZM510 223.191C496.246 236.229 461.393 240.956 426.322 232.904C461.383 247.256 509.831 239.204 510 223.191Z" fill="white"/>
<path d="M285.621 162.441L285.801 162.621V214.401L275.621 204.221C272.001 200.601 270.981 195.041 273.081 190.381L285.621 162.441ZM340.401 159.801H288.621L288.441 159.621L316.381 147.081C321.041 144.981 326.601 146.001 330.221 149.621L340.401 159.801ZM344.981 221.801H293.221L292.141 220.721C290.641 219.201 289.801 217.201 289.801 215.061V166.621L344.981 221.801ZM297.221 225.801H347.801V237.801C347.801 238.901 346.901 239.801 345.801 239.801H312.001C311.461 239.801 310.961 239.581 310.581 239.221L301.181 229.821L301.221 229.781L297.221 225.801ZM365.801 186.001V219.801C365.801 220.901 364.901 221.801 363.801 221.801H350.641L292.621 163.801H341.061C343.201 163.801 345.201 164.641 346.721 166.141L355.781 175.221L355.821 175.181L365.221 184.581C365.581 184.961 365.801 185.461 365.801 186.001Z" fill="white"/>
</g>
<defs>
<clipPath id="clip0_1_2">
<rect width="640" height="470" fill="white"/>
</clipPath>
</defs>
</svg>
